{"glyphs":{"0":{"ha":792,"x_min":56,"x_max":736,"o":"m 144 117 q 100 182 144 117 q 56 458 56 247 q 144 800 56 669 q 399 931 232 931 q 650 801 564 931 q 736 458 736 671 q 650 116 736 246 q 399 -14 564 -14 q 144 117 232 -14 m 200 761 q 171 703 200 761 q 150 447 142 646 q 227 139 158 249 q 419 35 296 29 q 597 155 540 40 q 646 469 654 269 q 570 778 638 669 q 379 882 503 888 q 200 761 258 876 m 358 419 q 350 427 358 419 q 342 458 342 435 q 358 498 342 482 q 399 514 374 514 q 437 497 421 514 q 453 458 453 481 q 437 419 453 436 q 399 403 421 403 q 358 419 375 403 z "},"1":{"ha":507,"x_min":56,"x_max":451,"o":"m 56 0 l 56 21 q 179 44 150 21 q 208 126 208 68 l 208 708 l 56 708 l 56 757 q 201 790 165 757 q 250 917 236 824 l 299 917 l 299 126 q 328 44 299 68 q 451 21 358 21 l 451 0 l 56 0 z "},"2":{"ha":749,"x_min":56,"x_max":692,"o":"m 671 203 l 692 200 l 674 35 l 669 0 l 56 0 q 68 140 56 81 q 99 238 81 199 q 158 309 118 276 q 235 363 197 342 q 338 413 272 383 q 416 449 389 435 q 483 488 443 463 q 544 539 524 514 q 580 601 564 564 q 596 683 596 639 q 544 831 596 779 q 394 882 492 882 q 335 876 365 882 q 269 855 306 871 q 213 812 233 839 q 182 741 193 785 q 190 635 171 697 l 100 607 q 95 741 81 685 q 138 834 110 797 q 213 892 165 871 q 306 922 260 914 q 403 931 351 931 q 605 869 524 931 q 686 688 686 807 q 678 615 686 649 q 658 558 669 582 q 623 510 646 533 q 581 472 600 486 q 530 440 563 457 q 476 413 497 422 q 417 387 454 403 q 360 361 379 371 q 177 242 226 300 q 124 63 128 185 l 551 63 q 635 90 608 63 q 671 203 663 118 z "},"3":{"ha":722,"x_min":49,"x_max":667,"o":"m 474 486 q 667 244 667 429 q 581 53 667 119 q 363 -14 494 -14 q 239 2 297 -14 q 131 56 181 18 q 65 153 82 93 q 67 300 49 213 l 157 272 q 178 97 117 158 q 346 35 239 35 q 516 92 456 35 q 576 243 576 149 q 503 411 576 360 q 283 463 429 463 l 283 511 q 494 558 426 511 q 563 708 563 606 q 508 838 563 794 q 357 882 453 882 q 192 818 254 882 q 171 635 131 754 l 81 607 q 73 734 61 679 q 112 826 85 789 q 183 887 139 864 q 274 920 228 910 q 369 931 319 931 q 571 873 489 931 q 653 699 653 815 q 474 486 653 543 z "},"4":{"ha":818,"x_min":56,"x_max":763,"o":"m 763 194 l 615 194 l 615 126 q 637 44 615 68 q 726 21 658 21 l 726 0 l 414 0 l 414 21 q 503 44 482 21 q 525 126 525 68 l 525 194 l 56 194 l 56 257 q 338 528 200 349 q 525 917 476 708 l 615 917 l 615 257 l 763 257 l 763 194 m 122 257 l 525 257 l 525 781 q 358 474 475 622 q 122 257 242 326 z "},"5":{"ha":776,"x_min":50,"x_max":721,"o":"m 435 624 q 534 609 486 624 q 625 563 582 594 q 694 471 668 531 q 721 329 721 411 q 617 79 721 172 q 360 -14 514 -14 q 231 2 289 -14 q 126 56 174 18 q 65 153 79 93 q 65 300 50 213 l 156 272 q 183 97 119 158 q 358 35 247 35 q 560 119 489 35 q 631 333 631 203 q 576 508 631 442 q 417 575 521 575 q 144 431 258 575 l 88 417 l 142 917 l 664 917 l 668 882 l 686 717 l 665 714 q 630 826 657 799 q 546 854 603 854 l 185 854 l 144 493 q 435 624 263 624 z "},"6":{"ha":792,"x_min":56,"x_max":736,"o":"m 146 436 q 317 540 215 507 q 511 560 418 572 q 670 474 604 549 q 736 274 736 400 q 718 174 736 222 q 664 82 700 125 q 564 13 628 39 q 417 -14 500 -14 q 56 439 56 -14 q 74 614 56 532 q 131 770 92 696 q 245 888 171 844 q 422 931 319 931 q 634 849 564 931 q 693 664 704 768 l 603 692 q 563 833 613 785 q 419 882 513 882 q 213 766 279 882 q 146 450 146 650 l 146 436 m 408 35 q 583 100 521 35 q 646 272 646 165 q 572 465 646 401 q 381 507 497 529 q 147 383 264 485 q 215 128 156 222 q 408 35 274 35 z "},"7":{"ha":767,"x_min":58,"x_max":711,"o":"m 79 917 l 711 917 l 711 861 q 526 663 601 765 q 413 449 451 560 q 358 234 374 339 q 343 0 343 129 l 253 0 q 269 222 253 119 q 324 435 285 324 q 442 653 364 547 q 636 854 521 758 l 199 854 q 113 828 140 854 q 78 721 86 801 l 58 724 l 75 881 l 79 917 z "},"8":{"ha":801,"x_min":56,"x_max":746,"o":"m 511 490 q 686 377 626 436 q 746 231 746 318 q 716 111 746 161 q 634 35 686 61 q 525 -2 582 10 q 401 -14 468 -14 q 153 47 250 -14 q 56 224 56 107 q 78 322 56 276 q 138 399 100 367 q 212 451 175 431 q 289 488 249 472 q 146 583 194 531 q 97 713 97 635 q 144 837 97 786 q 260 909 192 888 q 408 931 328 931 q 619 874 535 931 q 704 718 704 817 q 647 579 704 636 q 511 490 589 522 m 188 731 q 242 620 188 663 q 400 536 297 578 l 463 511 q 628 717 628 592 q 572 835 628 788 q 406 882 517 882 q 244 838 301 882 q 188 731 188 794 m 399 35 q 585 81 515 35 q 656 218 656 126 q 590 348 656 299 q 400 443 524 397 q 336 468 356 460 q 183 367 233 422 q 132 232 132 313 q 203 88 132 140 q 399 35 274 35 z "},"9":{"ha":792,"x_min":56,"x_max":736,"o":"m 375 931 q 736 479 736 931 q 718 304 736 386 q 661 148 700 222 q 547 30 622 74 q 371 -14 472 -14 q 158 67 228 -14 q 99 253 88 149 l 189 225 q 230 83 179 132 q 374 35 281 35 q 579 151 513 35 q 646 467 646 267 l 646 481 q 475 377 576 410 q 281 356 374 344 q 122 442 188 368 q 56 643 56 517 q 74 743 56 694 q 128 835 92 792 q 228 904 164 878 q 375 931 292 931 m 146 644 q 220 451 146 515 q 411 410 294 388 q 644 533 528 432 q 577 788 636 694 q 383 882 518 882 q 208 817 271 882 q 146 644 146 751 z "}," ":{"ha":333,"x_min":0,"x_max":0,"o":""},"!":{"ha":257,"x_min":56,"x_max":201,"o":"m 108 292 q 98 617 108 439 q 88 832 88 796 q 96 917 88 904 q 129 931 107 931 q 165 912 158 931 q 171 843 171 893 q 171 832 171 836 q 160 617 171 796 q 150 292 150 439 l 108 292 m 129 -14 q 76 8 96 -14 q 56 61 56 29 q 76 111 56 90 q 129 132 96 132 q 181 111 161 132 q 201 61 201 90 q 181 8 201 29 q 129 -14 161 -14 z "},"\"":{"ha":375,"x_min":56,"x_max":319,"o":"m 83 679 q 67 845 79 758 q 56 956 56 932 q 101 1014 56 1014 q 146 956 146 1014 q 134 845 146 932 q 118 679 122 758 l 83 679 m 257 679 q 241 845 253 758 q 229 956 229 932 q 275 1014 229 1014 q 319 956 319 1014 q 308 845 319 932 q 292 679 296 758 l 257 679 z "},"#":{"ha":1072,"x_min":56,"x_max":1017,"o":"m 1017 646 l 786 646 l 674 271 l 900 271 l 900 222 l 658 222 l 567 -83 l 514 -83 l 606 222 l 325 222 l 233 -83 l 181 -83 l 272 222 l 56 222 l 56 271 l 288 271 l 400 646 l 172 646 l 172 694 l 415 694 l 507 1000 l 558 1000 l 467 694 l 749 694 l 840 1000 l 892 1000 l 800 694 l 1017 694 l 1017 646 m 621 271 l 733 646 l 453 646 l 340 271 l 621 271 z "},"$":{"ha":688,"x_min":49,"x_max":632,"o":"m 632 281 q 400 85 632 100 l 414 -108 l 365 -111 l 351 83 q 249 94 296 85 q 160 123 203 103 q 93 177 117 143 q 59 261 69 211 q 67 379 49 311 l 157 351 q 145 263 139 300 q 167 201 151 225 q 213 161 182 176 q 276 140 244 146 q 349 132 308 133 l 328 426 q 131 508 188 469 q 74 626 74 547 q 135 754 74 710 q 301 804 196 799 l 288 997 l 336 1001 l 350 806 q 555 742 481 801 q 588 558 629 682 l 497 586 q 513 665 515 633 q 483 716 510 696 q 425 745 457 736 q 353 757 393 754 l 371 501 q 569 415 506 461 q 632 281 632 369 m 164 649 q 199 570 164 596 q 321 517 235 544 l 304 756 q 198 721 232 750 q 164 649 164 692 m 397 133 q 505 173 468 139 q 542 261 542 207 q 531 320 542 296 q 492 362 519 344 q 444 388 465 379 q 378 410 424 396 l 397 133 z "},"%":{"ha":1189,"x_min":56,"x_max":1133,"o":"m 336 919 q 426 908 390 904 q 496 924 463 911 q 553 957 529 938 q 608 993 578 976 q 669 1020 639 1010 q 742 1026 699 1031 q 839 1000 786 1022 l 403 -83 l 350 -83 l 788 1000 q 701 973 746 1000 q 623 918 657 946 q 528 876 589 890 q 396 886 468 861 q 478 682 478 817 q 424 508 478 582 q 265 433 369 433 q 108 508 161 433 q 56 682 56 582 q 108 856 56 782 q 265 931 161 931 q 336 919 303 931 m 172 535 q 185 508 172 535 q 267 482 199 482 q 361 535 335 482 q 388 682 388 588 q 361 829 388 776 q 267 882 335 882 q 172 829 199 882 q 146 682 146 776 q 172 535 146 588 m 764 409 q 790 446 764 409 q 921 483 817 483 q 1079 409 1025 483 q 1133 235 1133 335 q 1079 60 1133 135 q 921 -14 1025 -14 q 764 60 817 -14 q 711 235 711 135 q 764 409 711 335 m 828 88 q 841 61 828 88 q 922 35 854 35 q 1017 88 990 35 q 1043 235 1043 140 q 1017 382 1043 329 q 922 435 990 435 q 828 382 854 435 q 801 235 801 329 q 828 88 801 140 z "},"&":{"ha":971,"x_min":56,"x_max":915,"o":"m 915 574 q 851 469 915 508 q 676 401 788 431 q 732 336 707 379 q 757 238 757 293 q 663 52 757 118 q 424 -14 569 -14 q 156 65 257 -14 q 56 276 56 143 q 274 540 56 467 q 165 610 204 561 q 125 729 125 660 q 204 877 125 824 q 401 931 283 931 q 512 915 461 931 q 601 865 563 899 q 649 776 640 831 q 635 644 658 722 l 544 672 q 567 787 581 740 q 510 858 554 833 q 406 882 467 882 q 268 841 321 882 q 215 729 215 800 q 453 581 215 561 l 453 532 q 227 451 308 508 q 146 285 146 394 q 220 106 146 176 q 440 35 294 35 q 632 92 556 35 q 708 243 708 149 q 683 336 708 296 q 629 390 658 376 q 417 335 456 351 q 357 274 358 308 q 373 240 357 253 q 417 226 389 226 q 463 248 449 226 q 461 296 478 269 l 551 315 q 526 215 565 253 q 424 178 488 178 q 338 208 367 178 q 308 279 308 239 q 350 366 308 329 q 453 422 392 403 q 588 459 515 442 q 722 490 660 476 q 825 525 783 503 q 867 578 867 547 q 851 612 867 599 q 807 625 835 625 q 761 603 775 625 q 764 556 747 582 l 674 536 q 698 636 660 599 q 800 674 736 674 q 886 643 857 674 q 915 574 915 613 z "},"'":{"ha":201,"x_min":56,"x_max":146,"o":"m 83 679 q 67 845 79 758 q 56 956 56 932 q 101 1014 56 1014 q 146 956 146 1014 q 134 845 146 932 q 118 679 122 758 l 83 679 z "},"(":{"ha":442,"x_min":56,"x_max":386,"o":"m 56 417 q 136 756 56 617 q 358 1000 217 896 l 386 965 q 208 724 271 864 q 146 417 146 583 q 210 114 146 261 q 386 -132 274 -33 l 358 -167 q 138 82 221 -67 q 56 417 56 231 z "},")":{"ha":442,"x_min":56,"x_max":386,"o":"m 386 417 q 303 82 386 231 q 83 -167 221 -67 l 56 -132 q 232 114 168 -33 q 296 417 296 261 q 233 724 296 583 q 56 965 171 864 l 83 1000 q 306 756 225 896 q 386 417 386 617 z "},"*":{"ha":517,"x_min":42,"x_max":476,"o":"m 439 732 q 458 710 453 725 q 456 675 464 694 q 397 660 435 639 q 350 706 388 665 q 267 775 313 747 q 285 669 268 721 q 301 604 301 617 q 290 575 301 589 q 260 561 279 561 q 218 604 218 561 q 235 669 218 617 q 253 776 251 722 q 169 706 207 747 q 121 660 132 665 q 92 654 111 651 q 63 674 72 657 q 79 732 43 708 q 144 749 89 738 q 246 788 199 761 q 144 826 199 814 q 79 843 89 838 q 63 901 42 867 q 92 921 74 918 q 121 915 110 924 q 169 869 132 910 q 253 799 207 828 q 235 906 251 853 q 218 971 218 958 q 260 1014 218 1014 q 290 1000 279 1014 q 301 971 301 986 q 285 906 301 958 q 267 800 268 854 q 350 869 313 828 q 397 915 388 910 q 456 900 435 936 q 439 843 476 867 q 374 826 429 838 q 272 788 319 814 q 374 749 319 761 q 439 732 429 738 z "},"+":{"ha":606,"x_min":56,"x_max":550,"o":"m 425 382 l 550 382 l 550 313 l 425 313 q 329 322 411 313 q 338 225 338 247 l 338 100 l 268 100 l 268 225 q 278 322 268 235 q 181 313 190 313 l 56 313 l 56 382 l 181 382 q 278 374 203 382 q 268 469 268 457 l 268 594 l 338 594 l 338 469 q 329 374 338 444 q 425 382 400 382 z "},",":{"ha":263,"x_min":56,"x_max":207,"o":"m 56 -157 q 160 0 157 -96 q 124 -14 147 -14 q 74 8 92 -14 q 56 61 56 29 q 76 111 56 90 q 129 132 96 132 q 185 106 164 132 q 207 29 207 79 q 169 -93 207 -36 q 63 -185 132 -150 l 56 -157 z "},"-":{"ha":578,"x_min":56,"x_max":522,"o":"m 111 382 l 522 382 q 520 347 522 358 q 506 324 518 336 q 467 313 493 313 l 56 313 q 58 347 56 336 q 72 370 60 358 q 111 382 85 382 z "},".":{"ha":257,"x_min":56,"x_max":201,"o":"m 129 -14 q 76 8 96 -14 q 56 61 56 29 q 76 111 56 90 q 129 132 96 132 q 181 111 161 132 q 201 61 201 90 q 181 8 201 29 q 129 -14 161 -14 z "},"/":{"ha":600,"x_min":56,"x_max":544,"o":"m 544 1000 l 108 -83 l 56 -83 l 493 1000 l 544 1000 z "},":":{"ha":257,"x_min":56,"x_max":201,"o":"m 129 486 q 76 508 96 486 q 56 561 56 529 q 76 611 56 590 q 129 632 96 632 q 181 611 161 632 q 201 561 201 590 q 181 508 201 529 q 129 486 161 486 m 129 -14 q 76 8 96 -14 q 56 61 56 29 q 76 111 56 90 q 129 132 96 132 q 181 111 161 132 q 201 61 201 90 q 181 8 201 29 q 129 -14 161 -14 z "},";":{"ha":263,"x_min":56,"x_max":207,"o":"m 129 486 q 76 508 96 486 q 56 561 56 529 q 76 611 56 590 q 129 632 96 632 q 181 611 161 632 q 201 561 201 590 q 181 508 201 529 q 129 486 161 486 m 56 -157 q 160 0 157 -96 q 124 -14 147 -14 q 74 8 92 -14 q 56 61 56 29 q 76 111 56 90 q 129 132 96 132 q 185 106 164 132 q 207 29 207 79 q 169 -93 207 -36 q 63 -185 132 -150 l 56 -157 z "},"<":{"ha":606,"x_min":56,"x_max":550,"o":"m 550 97 l 56 313 l 56 382 l 550 597 l 550 522 l 244 389 q 124 353 164 353 l 124 343 q 244 306 161 343 l 550 172 l 550 97 z "},"=":{"ha":606,"x_min":56,"x_max":550,"o":"m 56 493 l 550 493 l 550 424 l 56 424 l 56 493 m 56 271 l 550 271 l 550 201 l 56 201 l 56 271 z "},">":{"ha":606,"x_min":56,"x_max":550,"o":"m 56 97 l 56 172 l 361 306 q 483 343 444 343 l 483 353 q 361 389 442 353 l 56 522 l 56 597 l 550 382 l 550 313 l 56 97 z "},"?":{"ha":653,"x_min":50,"x_max":597,"o":"m 597 743 q 555 621 597 665 q 435 538 513 576 q 386 513 400 521 q 351 490 372 506 q 323 460 329 474 q 309 422 317 446 q 302 367 301 397 q 308 292 303 336 l 260 292 q 247 377 249 339 q 256 443 246 415 q 275 490 265 471 q 308 526 285 508 q 345 553 332 544 q 389 576 358 561 q 477 644 447 607 q 507 739 507 682 q 465 842 507 803 q 331 882 422 882 q 272 876 300 882 q 213 854 243 869 q 167 812 183 839 q 145 744 151 785 q 157 649 139 704 l 67 621 q 63 771 50 711 q 123 866 76 831 q 223 916 169 901 q 343 931 276 931 q 526 881 454 931 q 597 743 597 831 m 293 -14 q 241 8 261 -14 q 221 61 221 29 q 241 111 221 90 q 293 132 261 132 q 346 111 325 132 q 367 61 367 90 q 347 8 367 29 q 293 -14 326 -14 z "},"@":{"ha":1181,"x_min":56,"x_max":1125,"o":"m 279 389 q 369 608 290 521 q 567 694 447 694 q 792 533 729 694 l 801 533 l 804 592 q 825 665 807 650 q 889 681 843 681 l 861 268 q 871 140 856 186 q 938 94 886 94 q 1039 165 1001 94 q 1076 375 1076 236 q 958 740 1076 599 q 615 882 839 882 q 244 733 385 882 q 104 347 104 583 q 124 198 104 271 q 185 58 143 125 q 288 -58 228 -8 q 438 -137 349 -107 q 632 -167 526 -167 q 1101 31 940 -167 l 1125 -15 q 632 -215 949 -215 q 374 -167 488 -215 q 192 -36 260 -118 q 90 144 125 46 q 56 347 56 242 q 208 768 56 606 q 615 931 361 931 q 994 776 863 931 q 1125 375 1125 621 q 1074 131 1125 217 q 924 46 1024 46 q 820 94 856 46 q 792 217 785 143 l 782 217 q 689 76 754 125 q 528 28 624 28 q 338 126 410 28 q 279 389 267 224 m 369 389 q 403 167 354 258 q 556 76 451 76 q 776 347 746 76 q 744 558 790 471 q 594 646 699 646 q 496 622 539 646 q 428 558 453 597 q 389 476 403 518 q 369 389 375 435 z "},"A":{"ha":1058,"x_min":28,"x_max":1031,"o":"m 900 117 q 950 43 922 65 q 1031 21 978 21 l 1031 0 l 711 0 l 711 21 q 813 44 796 21 q 803 117 829 67 l 676 431 l 336 431 l 210 117 q 200 44 183 67 q 301 21 217 21 l 301 0 l 28 0 l 28 21 q 108 43 81 21 q 158 117 136 65 l 438 808 l 438 807 q 449 874 460 853 q 378 896 439 896 l 378 917 l 578 917 l 900 117 m 356 479 l 657 479 l 507 853 l 356 479 m 438 807 l 435 800 l 438 807 z "},"B":{"ha":836,"x_min":56,"x_max":781,"o":"m 599 492 q 781 242 781 436 q 755 128 781 175 q 694 56 729 81 q 603 19 660 32 q 505 3 546 6 q 404 0 464 0 l 56 0 l 56 21 q 112 44 99 21 q 125 126 125 68 l 125 792 q 112 873 125 850 q 56 896 99 896 l 56 917 l 376 917 q 456 916 426 917 q 531 911 486 915 q 602 899 575 907 q 661 874 629 890 q 711 835 693 858 q 741 777 729 813 q 753 697 753 742 q 599 492 753 542 m 215 868 l 215 514 l 383 514 q 595 549 528 514 q 663 692 663 585 q 601 834 663 800 q 390 868 540 868 l 215 868 m 418 49 q 626 96 561 49 q 690 256 690 143 q 411 465 690 465 l 215 465 l 215 49 l 418 49 z "},"C":{"ha":864,"x_min":56,"x_max":814,"o":"m 56 458 q 167 806 56 681 q 471 931 278 931 q 722 840 629 931 q 808 590 814 750 l 718 618 q 656 811 728 740 q 471 882 583 882 q 235 769 324 882 q 146 458 146 656 q 228 147 146 258 q 457 35 311 35 q 654 108 581 35 q 718 313 728 181 l 808 340 q 719 78 814 169 q 457 -14 625 -14 q 160 110 265 -14 q 56 458 56 233 z "},"D":{"ha":906,"x_min":56,"x_max":850,"o":"m 404 917 q 511 908 460 917 q 627 871 563 900 q 739 794 692 842 q 818 660 786 747 q 850 458 850 574 q 818 256 850 343 q 739 122 786 169 q 627 46 692 75 q 511 8 563 17 q 404 0 460 0 l 56 0 l 56 21 q 112 44 99 21 q 125 126 125 68 l 125 792 q 112 873 125 850 q 56 896 99 896 l 56 917 l 404 917 m 383 49 q 660 147 560 49 q 760 458 760 246 q 660 769 760 671 q 383 868 560 868 l 215 868 l 215 49 l 383 49 z "},"E":{"ha":756,"x_min":56,"x_max":700,"o":"m 679 189 l 700 186 l 676 21 l 674 0 l 56 0 l 56 21 q 112 44 99 21 q 125 126 125 68 l 125 792 q 112 873 125 850 q 56 896 99 896 l 56 917 l 660 917 l 663 896 l 686 731 l 665 728 q 626 840 653 813 q 542 868 599 868 l 215 868 l 215 490 l 436 490 q 517 503 494 490 q 540 560 540 517 l 561 560 l 561 372 l 540 372 q 517 428 540 415 q 436 442 494 442 l 215 442 l 215 49 l 556 49 q 640 76 613 49 q 679 189 667 104 z "},"F":{"ha":756,"x_min":56,"x_max":699,"o":"m 669 903 l 699 696 l 678 693 q 635 833 663 799 q 549 868 607 868 l 215 868 l 215 449 l 478 449 q 559 462 536 449 q 582 518 582 475 l 603 518 l 603 331 l 582 331 q 559 387 582 374 q 478 400 536 400 l 215 400 l 215 126 q 228 44 215 68 q 285 21 242 21 l 285 0 l 56 0 l 56 21 q 112 44 99 21 q 125 126 125 68 l 125 792 q 112 873 125 850 q 56 896 99 896 l 56 917 l 668 917 l 669 903 z "},"G":{"ha":971,"x_min":56,"x_max":942,"o":"m 56 458 q 176 800 56 669 q 501 931 296 931 q 765 840 674 931 q 850 597 856 749 l 760 625 q 699 810 771 738 q 501 882 628 882 q 243 772 340 882 q 146 458 146 663 q 245 144 146 253 q 493 35 344 35 q 627 51 571 35 q 756 104 683 67 l 756 314 q 716 400 756 372 q 553 443 676 428 l 556 464 l 796 433 l 826 431 l 942 415 l 940 396 q 863 382 881 403 q 846 303 846 361 l 846 101 q 493 -14 686 -14 q 172 114 288 -14 q 56 458 56 242 z "},"H":{"ha":972,"x_min":56,"x_max":917,"o":"m 917 896 q 860 873 874 896 q 847 792 847 850 l 847 126 q 860 44 847 68 q 917 21 874 21 l 917 0 l 688 0 l 688 21 q 744 44 731 21 q 757 126 757 68 l 757 475 l 215 475 l 215 126 q 228 44 215 68 q 285 21 242 21 l 285 0 l 56 0 l 56 21 q 112 44 99 21 q 125 126 125 68 l 125 792 q 112 873 125 850 q 56 896 99 896 l 56 917 l 285 917 l 285 896 q 228 873 242 896 q 215 792 215 850 l 215 524 l 757 524 l 757 792 q 744 873 757 850 q 688 896 731 896 l 688 917 l 917 917 l 917 896 z "},"I":{"ha":340,"x_min":56,"x_max":285,"o":"m 56 0 l 56 21 q 112 44 99 21 q 125 126 125 68 l 125 792 q 112 873 125 850 q 56 896 99 896 l 56 917 l 285 917 l 285 896 q 228 873 242 896 q 215 792 215 850 l 215 126 q 228 44 215 68 q 285 21 242 21 l 285 0 l 56 0 z "},"J":{"ha":336,"x_min":14,"x_max":281,"o":"m 281 917 l 281 896 q 224 873 238 896 q 211 792 211 850 l 211 0 q 168 -202 211 -129 q 29 -306 125 -275 l 14 -257 q 100 -166 79 -228 q 121 0 121 -104 l 121 792 q 108 873 121 850 q 51 896 94 896 l 51 917 l 281 917 z "},"K":{"ha":864,"x_min":56,"x_max":850,"o":"m 660 231 q 745 65 710 110 q 850 21 781 21 l 850 0 q 676 35 722 0 q 579 192 629 71 q 553 258 568 217 q 528 322 538 300 q 504 375 519 344 q 472 422 489 406 q 431 455 456 438 q 372 479 406 472 q 296 486 339 486 l 215 407 l 215 126 q 228 44 215 68 q 285 21 242 21 l 285 0 l 56 0 l 56 21 q 112 44 99 21 q 125 126 125 68 l 125 792 q 112 873 125 850 q 56 896 99 896 l 56 917 l 285 917 l 285 896 q 228 873 242 896 q 215 792 215 850 l 215 475 l 581 829 q 620 881 625 867 q 532 896 615 896 l 532 917 l 821 917 l 821 896 q 647 829 715 896 l 350 539 l 350 531 q 431 522 394 531 q 495 492 467 514 q 545 449 524 471 q 588 386 567 426 q 624 315 610 346 q 660 231 638 285 z "},"L":{"ha":742,"x_min":56,"x_max":700,"o":"m 679 189 l 700 186 l 676 21 l 674 0 l 56 0 l 56 21 q 112 44 99 21 q 125 126 125 68 l 125 792 q 112 873 125 850 q 56 896 99 896 l 56 917 l 285 917 l 285 896 q 228 873 242 896 q 215 792 215 850 l 215 49 l 556 49 q 640 76 613 49 q 679 189 667 104 z "},"M":{"ha":1267,"x_min":56,"x_max":1211,"o":"m 1211 897 q 1155 873 1168 896 q 1142 792 1142 850 l 1142 126 q 1155 44 1142 68 q 1211 21 1168 21 l 1211 0 l 982 0 l 982 21 q 1038 44 1025 21 q 1051 126 1051 68 l 1051 794 l 667 0 l 567 0 l 174 794 l 174 126 q 187 44 174 68 q 243 21 200 21 l 243 0 l 56 0 l 56 21 q 112 44 99 21 q 125 126 125 68 l 125 792 q 112 873 125 850 q 56 896 99 896 l 56 917 l 139 917 q 208 901 186 917 q 263 817 229 885 l 639 56 l 1010 817 q 1065 897 1038 878 q 1128 917 1093 915 l 1211 918 l 1211 897 z "},"N":{"ha":985,"x_min":56,"x_max":929,"o":"m 56 0 l 56 21 q 112 44 99 21 q 125 126 125 68 l 125 792 q 112 873 125 850 q 56 896 99 896 l 56 917 l 139 917 q 206 900 182 915 q 268 836 231 885 l 811 107 l 811 792 q 798 873 811 850 q 742 896 785 896 l 742 917 l 929 917 l 929 896 q 873 873 886 896 q 860 792 860 850 l 860 0 q 782 15 808 0 q 717 82 756 29 l 174 811 l 174 126 q 187 44 174 68 q 243 21 200 21 l 243 0 l 56 0 z "},"O":{"ha":958,"x_min":56,"x_max":903,"o":"m 170 119 q 113 185 170 119 q 56 458 56 251 q 170 798 56 665 q 479 931 285 931 q 788 798 674 931 q 903 458 903 665 q 788 119 903 251 q 479 -14 674 -14 q 170 119 285 -14 m 149 428 q 267 130 167 236 q 528 39 368 24 q 753 176 676 53 q 811 490 831 300 q 691 788 792 682 q 432 879 590 894 q 206 742 283 865 q 149 428 129 618 z "},"P":{"ha":836,"x_min":56,"x_max":781,"o":"m 376 917 q 449 916 422 917 q 524 910 475 915 q 602 893 572 904 q 669 860 632 882 q 728 808 707 839 q 765 728 750 776 q 781 617 781 679 q 765 506 781 554 q 728 426 750 457 q 669 372 707 394 q 601 340 631 350 q 523 324 572 329 q 449 317 474 318 q 376 317 424 317 l 215 317 l 215 126 q 228 44 215 68 q 285 21 242 21 l 285 0 l 56 0 l 56 21 q 112 44 99 21 q 125 126 125 68 l 125 792 q 112 873 125 850 q 56 896 99 896 l 56 917 l 376 917 m 397 365 q 619 421 549 365 q 690 617 690 476 q 619 813 690 757 q 397 868 549 868 l 215 868 l 215 365 l 397 365 z "},"Q":{"ha":958,"x_min":56,"x_max":903,"o":"m 749 -69 l 839 -42 q 826 -203 865 -136 q 700 -271 788 -271 q 517 -153 592 -271 q 478 -99 492 -115 q 438 -65 464 -82 q 381 -49 411 -49 q 242 -133 301 -49 l 197 -112 q 372 -1 269 -15 q 140 157 225 32 q 56 458 56 282 q 170 798 56 665 q 479 931 285 931 q 788 798 674 931 q 903 458 903 665 q 790 120 903 253 q 483 -14 676 -12 q 535 -45 510 -24 q 572 -82 560 -67 q 604 -126 583 -97 q 626 -160 608 -133 q 651 -194 644 -187 q 675 -212 658 -201 q 711 -222 692 -222 q 769 -178 758 -222 q 749 -69 781 -133 m 149 428 q 267 130 167 236 q 528 39 368 24 q 753 176 676 53 q 811 490 831 300 q 691 788 792 682 q 432 879 590 894 q 206 742 283 865 q 149 428 129 618 z "},"R":{"ha":864,"x_min":56,"x_max":850,"o":"m 636 274 q 724 76 671 131 q 850 21 776 21 l 850 0 q 767 3 800 0 q 697 21 733 7 q 637 60 661 35 q 590 128 613 85 q 553 235 568 172 q 447 438 514 388 q 233 488 381 488 l 215 488 l 215 126 q 228 44 215 68 q 285 21 242 21 l 285 0 l 56 0 l 56 21 q 112 44 99 21 q 125 126 125 68 l 125 792 q 112 873 125 850 q 56 896 99 896 l 56 917 l 363 917 q 440 915 407 917 q 520 900 472 913 q 599 866 568 888 q 653 802 631 844 q 676 700 676 760 q 482 493 676 519 q 636 274 594 438 m 215 536 l 383 536 q 586 700 586 536 q 383 868 586 868 l 215 868 l 215 536 z "},"S":{"ha":807,"x_min":54,"x_max":765,"o":"m 89 701 q 181 872 89 814 q 417 931 274 931 q 552 913 490 931 q 663 858 614 896 q 726 758 713 819 q 717 610 740 697 l 626 638 q 610 817 675 753 q 415 882 544 882 q 242 840 304 882 q 179 717 179 797 q 220 624 179 664 q 297 567 261 583 q 408 526 333 551 q 424 521 419 522 q 649 431 599 460 q 765 249 758 365 q 765 232 765 240 q 718 88 765 144 q 600 8 671 31 q 436 -14 529 -14 q 332 -6 382 -14 q 233 19 282 1 q 148 65 183 36 q 86 135 113 93 q 57 235 60 178 q 69 368 54 293 l 160 340 q 144 219 136 271 q 178 133 153 168 q 247 76 203 97 q 338 44 290 54 q 439 35 385 35 q 675 218 675 35 q 671 255 675 238 q 663 285 667 272 q 647 313 660 299 q 628 335 635 326 q 601 354 621 343 q 574 370 582 365 q 540 386 567 375 q 505 400 514 397 q 464 415 496 403 q 424 429 432 426 q 373 447 410 435 q 322 465 336 460 q 276 483 307 471 q 231 503 244 496 q 192 525 217 511 q 156 551 167 539 q 129 580 144 563 q 107 615 114 597 q 94 654 100 632 q 89 701 89 676 z "},"T":{"ha":853,"x_min":42,"x_max":811,"o":"m 788 896 l 811 731 l 790 728 q 751 840 778 813 q 667 868 724 868 l 472 868 l 472 126 q 485 44 472 68 q 542 21 499 21 l 542 0 l 313 0 l 313 21 q 369 44 356 21 q 382 126 382 68 l 382 868 l 188 868 q 102 840 129 868 q 63 728 75 813 l 42 731 l 65 896 l 68 917 l 785 917 l 788 896 z "},"U":{"ha":944,"x_min":42,"x_max":903,"o":"m 903 917 l 903 896 q 847 873 860 896 q 833 792 833 850 l 832 465 q 814 260 829 343 q 760 112 799 176 q 653 17 722 47 q 479 -14 583 -14 q 298 16 371 -14 q 185 110 225 46 q 128 258 144 174 q 111 465 111 342 l 111 792 q 98 873 111 850 q 42 896 85 896 l 42 917 l 271 917 l 271 896 q 215 873 228 896 q 201 792 201 850 l 200 465 q 267 135 200 236 q 493 35 335 35 q 716 142 651 35 q 785 465 781 249 l 786 792 q 773 873 786 850 q 717 896 760 896 l 717 917 l 903 917 z "},"V":{"ha":1031,"x_min":14,"x_max":1017,"o":"m 1017 917 l 1017 896 q 936 874 964 896 q 886 800 908 851 l 564 0 l 468 0 l 144 800 q 94 874 122 851 q 14 896 67 896 l 14 917 l 333 917 l 333 896 q 232 873 249 896 q 242 800 215 850 l 538 65 l 835 800 q 844 873 861 850 q 743 896 828 896 l 743 917 l 1017 917 z "},"W":{"ha":1638,"x_min":56,"x_max":1582,"o":"m 1582 917 l 1582 896 q 1503 873 1529 896 q 1460 797 1478 850 l 1197 0 l 1103 0 l 819 840 l 540 0 l 446 0 l 179 797 q 135 874 161 851 q 56 896 108 896 l 56 917 l 367 917 l 367 896 q 269 872 286 896 q 274 797 251 849 l 514 76 l 793 917 l 888 917 l 1171 76 l 1408 797 q 1413 872 1431 849 q 1317 896 1396 896 l 1317 917 l 1582 917 z "},"X":{"ha":951,"x_min":28,"x_max":924,"o":"m 924 896 q 788 815 844 896 l 531 460 l 531 458 l 788 101 q 924 21 844 21 l 924 0 l 607 0 l 607 21 q 703 40 693 21 q 676 103 714 58 l 451 417 l 224 101 q 197 40 186 58 q 293 21 207 21 l 293 0 l 28 0 l 28 21 q 164 101 107 21 l 421 458 l 164 815 q 28 896 107 896 l 28 917 l 344 917 l 344 896 q 248 877 258 896 q 275 814 238 858 l 500 500 l 728 815 q 755 877 765 858 q 658 896 744 896 l 658 917 l 924 917 l 924 896 z "},"Y":{"ha":901,"x_min":14,"x_max":888,"o":"m 888 917 l 888 896 q 810 876 840 896 q 751 808 779 856 l 496 369 l 496 126 q 509 44 496 68 q 565 21 522 21 l 565 0 l 336 0 l 336 21 q 392 44 379 21 q 406 126 406 68 l 406 369 l 150 808 q 92 876 122 856 q 14 896 61 896 l 14 917 l 324 917 l 324 896 q 233 876 243 896 q 254 808 222 856 l 475 429 l 693 808 q 715 876 725 856 q 625 896 704 896 l 625 917 l 888 917 z "},"Z":{"ha":806,"x_min":56,"x_max":750,"o":"m 729 189 l 750 186 l 726 21 l 724 0 l 58 0 l 58 42 l 621 868 l 201 868 q 116 840 143 868 q 76 728 89 813 l 56 731 l 79 896 l 82 917 l 733 917 l 733 875 l 172 49 l 606 49 q 690 76 663 49 q 729 189 717 104 z "},"[":{"ha":372,"x_min":56,"x_max":317,"o":"m 56 -167 l 56 1000 l 317 1000 l 317 951 l 146 951 l 146 -118 l 317 -118 l 317 -167 l 56 -167 z "},"\\":{"ha":600,"x_min":56,"x_max":544,"o":"m 56 1000 l 108 1000 l 544 -83 l 493 -83 l 56 1000 z "},"]":{"ha":372,"x_min":56,"x_max":317,"o":"m 317 -167 l 56 -167 l 56 -118 l 226 -118 l 226 951 l 56 951 l 56 1000 l 317 1000 l 317 -167 z "},"^":{"ha":611,"x_min":56,"x_max":556,"o":"m 556 478 l 482 478 l 347 808 q 311 931 313 890 l 301 931 q 268 808 301 886 l 131 478 l 56 478 l 272 1000 l 342 1000 l 556 478 z "},"_":{"ha":1008,"x_min":56,"x_max":953,"o":"m 111 -97 l 953 -97 q 951 -135 953 -124 q 936 -157 949 -147 q 897 -167 924 -167 l 56 -167 q 58 -128 56 -140 q 72 -107 60 -117 q 111 -97 85 -97 z "},"`":{"ha":328,"x_min":56,"x_max":272,"o":"m 272 813 l 238 792 q 56 1000 56 842 l 160 972 q 272 813 160 857 z "},"a":{"ha":740,"x_min":56,"x_max":713,"o":"m 643 140 q 660 62 643 76 q 713 69 676 47 l 713 49 q 628 0 688 0 q 574 20 596 0 q 553 82 553 40 l 553 138 l 543 138 q 417 26 499 67 q 247 -14 336 -14 q 109 29 163 -14 q 56 157 56 72 q 74 235 56 199 q 118 296 92 271 q 189 342 144 321 q 271 377 233 364 q 367 403 308 390 q 460 421 425 415 q 551 435 494 426 q 510 606 546 553 q 378 660 475 660 q 222 598 275 660 q 200 450 169 536 l 110 422 q 154 624 78 540 q 385 708 231 708 q 585 628 528 708 q 643 367 643 547 l 643 140 m 553 297 l 553 388 q 402 361 471 378 q 274 317 333 344 q 180 249 214 290 q 146 158 146 208 q 271 35 146 35 q 462 108 371 35 q 553 288 553 182 l 553 297 z "},"b":{"ha":831,"x_min":28,"x_max":775,"o":"m 685 611 q 730 563 685 611 q 775 347 775 514 q 685 83 775 181 q 456 -14 596 -14 q 301 31 369 -14 q 199 154 232 76 l 188 154 l 188 69 q 170 21 188 38 q 138 2 153 4 q 97 0 122 0 l 97 875 q 84 956 97 933 q 28 979 71 979 l 28 1000 l 111 1000 q 149 994 135 999 q 175 973 163 990 q 188 924 188 956 l 188 540 l 199 540 q 301 663 232 618 q 456 708 369 708 q 685 611 596 708 m 616 122 q 647 165 616 122 q 678 347 678 208 q 616 573 678 486 q 442 660 554 660 q 260 572 321 660 q 199 347 199 485 q 260 122 199 210 q 442 35 321 35 q 616 122 554 35 z "},"c":{"ha":754,"x_min":56,"x_max":706,"o":"m 141 90 q 98 142 141 90 q 56 347 56 194 q 142 604 56 500 q 392 708 228 708 q 607 624 528 708 q 683 403 686 540 l 593 431 q 542 595 600 531 q 392 660 483 660 q 208 572 271 660 q 146 347 146 485 q 208 122 146 210 q 389 35 271 35 q 553 103 486 35 q 607 278 619 171 l 697 306 q 618 74 706 161 q 389 -14 531 -14 q 141 90 226 -14 z "},"d":{"ha":844,"x_min":56,"x_max":803,"o":"m 145 83 q 100 132 145 83 q 56 347 56 181 q 145 611 56 514 q 375 708 235 708 q 530 663 461 708 q 632 540 599 618 l 643 540 l 643 875 q 630 956 643 933 q 574 979 617 979 l 574 1000 l 656 1000 q 694 994 679 999 q 721 973 708 990 q 733 924 733 956 l 733 126 q 747 44 733 68 q 803 21 760 21 l 803 0 l 719 0 q 643 69 643 3 l 643 154 l 632 154 q 530 31 599 76 q 375 -14 461 -14 q 145 83 235 -14 m 215 573 q 184 530 215 573 q 153 347 153 486 q 215 122 153 208 q 389 35 276 35 q 571 122 510 35 q 632 347 632 210 q 571 572 632 485 q 389 660 510 660 q 215 573 276 660 z "},"e":{"ha":733,"x_min":56,"x_max":683,"o":"m 672 253 q 612 68 683 150 q 404 -14 540 -14 q 142 83 228 -14 q 56 335 56 179 q 158 608 56 507 q 417 708 260 708 q 606 654 538 708 q 674 511 674 600 q 619 386 674 435 q 481 324 564 338 q 309 317 397 311 q 146 349 221 324 l 146 325 q 217 112 146 189 q 390 35 288 35 q 535 82 479 35 q 582 225 592 129 l 672 253 m 417 660 q 235 588 304 660 q 150 397 167 517 q 476 383 369 347 q 583 519 583 419 q 542 620 583 581 q 417 660 500 660 z "},"f":{"ha":517,"x_min":56,"x_max":524,"o":"m 479 803 l 389 831 q 420 924 431 882 q 357 965 410 965 q 309 956 329 965 q 277 926 289 947 q 258 885 265 904 q 247 827 250 865 q 244 765 244 789 q 243 694 243 742 l 446 694 q 444 669 446 676 q 433 653 443 661 q 404 646 424 646 l 243 646 l 243 126 q 256 44 243 68 q 313 21 269 21 l 313 0 l 83 0 l 83 21 q 140 44 126 21 q 153 126 153 68 l 153 646 l 56 646 l 56 694 l 153 694 l 153 756 q 203 952 153 890 q 353 1014 253 1014 q 489 947 454 1014 q 479 803 524 881 z "},"g":{"ha":771,"x_min":47,"x_max":764,"o":"m 754 610 l 671 582 q 643 660 688 660 q 582 622 604 660 q 643 458 643 554 q 565 278 643 347 q 358 208 488 208 q 218 236 281 208 q 171 163 171 199 q 215 111 171 124 q 378 111 258 99 q 613 90 532 128 q 694 -62 694 51 q 604 -234 694 -176 q 375 -292 514 -292 q 267 -283 317 -292 q 170 -256 217 -275 q 98 -204 124 -236 q 60 -124 72 -172 q 67 -10 47 -75 l 157 -37 q 145 -123 138 -87 q 172 -182 153 -158 q 225 -219 190 -206 q 297 -237 260 -232 q 376 -243 333 -243 q 544 -201 485 -243 q 604 -79 604 -158 q 551 22 604 0 q 378 29 499 43 q 101 131 101 1 q 182 254 101 199 q 74 458 74 325 q 151 639 74 569 q 358 708 229 708 q 554 647 478 708 q 674 708 599 708 q 745 677 726 708 q 754 610 764 646 m 410 264 q 527 344 489 278 q 549 494 565 411 q 469 625 533 578 q 307 654 404 672 q 190 572 228 639 q 168 424 151 506 q 248 292 183 339 q 410 264 313 246 z "},"h":{"ha":832,"x_min":56,"x_max":776,"o":"m 707 126 q 720 44 707 68 q 776 21 733 21 l 776 0 l 547 0 l 547 21 q 603 44 590 21 q 617 126 617 68 l 617 443 q 582 605 617 550 q 465 660 547 660 q 344 624 396 660 q 266 526 293 588 q 227 396 239 464 q 215 250 215 328 l 215 126 q 228 44 215 68 q 285 21 242 21 l 285 0 l 56 0 l 56 21 q 112 44 99 21 q 125 126 125 68 l 125 875 q 112 956 125 933 q 56 979 99 979 l 56 1000 l 139 1000 q 176 994 163 999 q 203 973 190 990 q 215 924 215 956 l 215 485 l 226 485 q 482 708 278 708 q 707 429 707 708 l 707 126 z "},"i":{"ha":340,"x_min":56,"x_max":285,"o":"m 199 833 q 190 825 199 833 q 158 817 182 817 q 118 833 135 817 q 101 875 101 850 q 119 914 101 897 q 158 931 136 931 q 198 914 181 931 q 215 875 215 897 q 199 833 215 850 m 215 625 l 215 126 q 228 44 215 68 q 285 21 242 21 l 285 0 l 56 0 l 56 21 q 112 44 99 21 q 125 126 125 68 l 125 569 q 112 651 125 628 q 56 674 99 674 l 56 694 l 139 694 q 196 681 176 694 q 215 625 215 668 z "},"j":{"ha":294,"x_min":14,"x_max":211,"o":"m 154 817 q 114 833 131 817 q 97 875 97 850 q 115 914 97 897 q 154 931 132 931 q 194 914 176 931 q 211 875 211 897 q 194 833 211 850 q 154 817 176 817 m 133 694 q 172 690 157 693 q 199 671 186 686 q 211 628 211 656 l 211 0 q 168 -202 211 -129 q 29 -306 125 -275 l 14 -257 q 100 -166 79 -228 q 121 0 121 -104 l 121 569 q 108 651 121 628 q 51 674 94 674 l 51 694 l 133 694 z "},"k":{"ha":793,"x_min":56,"x_max":765,"o":"m 592 231 q 665 66 632 111 q 765 21 699 21 l 765 0 q 597 37 644 0 q 507 199 550 74 q 427 347 469 306 q 306 388 385 388 l 215 310 l 215 126 q 228 44 215 68 q 285 21 242 21 l 285 0 l 56 0 l 56 21 q 112 44 99 21 q 125 126 125 68 l 125 875 q 112 956 125 933 q 56 979 99 979 l 56 1000 l 139 1000 q 176 994 163 999 q 203 973 190 990 q 215 924 215 956 l 215 374 l 494 613 q 519 634 514 629 q 534 649 525 639 q 539 662 543 660 q 527 668 535 664 q 501 673 519 672 q 451 674 482 674 l 451 694 l 733 694 l 733 674 q 568 613 640 674 l 368 440 l 368 432 q 592 231 522 432 z "},"l":{"ha":326,"x_min":56,"x_max":285,"o":"m 215 924 l 215 126 q 228 44 215 68 q 285 21 242 21 l 285 0 l 56 0 l 56 21 q 112 44 99 21 q 125 126 125 68 l 125 875 q 112 956 125 933 q 56 979 99 979 l 56 1000 l 139 1000 q 176 994 163 999 q 203 973 190 990 q 215 924 215 956 z "},"m":{"ha":1211,"x_min":56,"x_max":1156,"o":"m 1086 126 q 1099 44 1086 68 q 1156 21 1113 21 l 1156 0 l 926 0 l 926 21 q 983 44 969 21 q 996 126 996 68 l 996 471 q 970 611 996 563 q 881 660 944 660 q 747 598 800 660 q 672 448 693 536 q 651 250 651 360 l 651 126 q 665 44 651 68 q 721 21 678 21 l 721 0 l 492 0 l 492 21 q 548 44 535 21 q 561 126 561 68 l 561 471 q 444 660 561 660 q 338 625 383 660 q 267 531 293 590 q 228 401 240 471 q 215 250 215 331 l 215 126 q 228 44 215 68 q 285 21 242 21 l 285 0 l 56 0 l 56 21 q 112 44 99 21 q 125 126 125 68 l 125 569 q 112 651 125 628 q 56 674 99 674 l 56 694 l 139 694 q 176 690 163 693 q 203 672 190 686 q 215 632 215 658 l 215 485 l 226 485 q 311 652 256 596 q 461 708 367 708 q 599 653 554 708 q 650 485 644 599 l 661 485 q 747 652 692 596 q 896 708 801 708 q 1041 644 996 708 q 1086 447 1086 581 l 1086 126 z "},"n":{"ha":832,"x_min":56,"x_max":776,"o":"m 707 126 q 720 44 707 68 q 776 21 733 21 l 776 0 l 547 0 l 547 21 q 603 44 590 21 q 617 126 617 68 l 617 443 q 582 605 617 550 q 465 660 547 660 q 344 624 396 660 q 266 526 293 588 q 227 396 239 464 q 215 250 215 328 l 215 126 q 228 44 215 68 q 285 21 242 21 l 285 0 l 56 0 l 56 21 q 112 44 99 21 q 125 126 125 68 l 125 569 q 112 651 125 628 q 56 674 99 674 l 56 694 l 139 694 q 176 690 163 693 q 203 672 190 686 q 215 632 215 658 l 215 485 l 226 485 q 482 708 278 708 q 707 429 707 708 l 707 126 z "},"o":{"ha":778,"x_min":56,"x_max":722,"o":"m 56 347 q 143 603 56 497 q 389 708 231 708 q 635 603 547 708 q 722 347 722 497 q 635 92 722 199 q 389 -14 547 -14 q 143 92 231 -14 q 56 347 56 199 m 187 556 q 160 510 187 556 q 147 325 133 464 q 231 106 161 186 q 419 38 300 25 q 592 140 539 49 q 632 371 644 232 q 548 589 618 508 q 360 658 478 669 q 187 556 240 647 z "},"p":{"ha":858,"x_min":56,"x_max":803,"o":"m 714 611 q 758 563 714 611 q 803 347 803 514 q 714 83 803 181 q 485 -14 625 -14 q 328 31 397 -14 q 226 154 260 76 l 217 154 l 217 -181 q 230 -262 217 -239 q 286 -285 243 -285 l 286 -306 l 57 -306 l 57 -285 q 113 -262 100 -285 q 126 -181 126 -239 l 126 569 q 113 650 126 626 q 56 674 99 674 l 57 694 l 139 694 q 177 690 163 693 q 204 670 192 686 q 217 625 217 654 l 217 540 l 226 540 q 328 663 260 618 q 485 708 397 708 q 714 611 625 708 m 644 122 q 675 165 644 122 q 706 347 706 208 q 644 573 706 486 q 471 660 583 660 q 288 572 350 660 q 226 347 226 485 q 288 122 226 210 q 471 35 350 35 q 644 122 583 35 z "},"q":{"ha":858,"x_min":56,"x_max":803,"o":"m 145 83 q 100 132 145 83 q 56 347 56 181 q 145 611 56 514 q 375 708 235 708 q 530 663 461 708 q 632 540 599 618 l 643 540 l 643 625 q 655 670 643 654 q 681 690 667 686 q 719 694 696 693 l 801 694 l 803 674 q 746 650 760 674 q 732 569 732 626 l 733 -181 q 747 -262 733 -239 q 803 -285 760 -285 l 803 -306 l 574 -306 l 574 -285 q 630 -262 617 -285 q 643 -181 643 -239 l 643 154 l 632 154 q 530 31 599 76 q 375 -14 461 -14 q 145 83 235 -14 m 215 573 q 184 530 215 573 q 153 347 153 486 q 215 122 153 208 q 389 35 276 35 q 571 122 510 35 q 632 347 632 210 q 571 572 632 485 q 389 660 510 660 q 215 573 276 660 z "},"r":{"ha":676,"x_min":56,"x_max":656,"o":"m 479 708 q 621 634 586 708 q 606 422 656 560 l 515 450 q 461 660 601 660 q 330 597 388 660 q 244 441 272 533 q 215 250 215 349 l 215 126 q 228 44 215 68 q 285 21 242 21 l 285 0 l 56 0 l 56 21 q 112 44 99 21 q 125 126 125 68 l 125 569 q 112 651 125 628 q 56 674 99 674 l 56 694 l 139 694 q 176 690 163 693 q 203 672 190 686 q 215 632 215 658 l 215 478 l 226 478 q 256 559 238 521 q 305 632 275 597 q 379 688 335 667 q 479 708 424 708 z "},"s":{"ha":660,"x_min":33,"x_max":618,"o":"m 60 529 q 130 664 60 619 q 321 708 200 708 q 434 696 382 708 q 528 654 486 683 q 582 578 571 625 q 574 461 593 531 l 483 489 q 499 572 503 539 q 464 624 494 604 q 398 651 433 643 q 321 660 363 660 q 192 629 233 660 q 150 551 150 599 q 188 471 150 496 q 321 415 225 446 q 339 410 332 411 q 551 321 485 367 q 618 183 618 275 q 544 33 618 81 q 350 -14 471 -14 q 244 -6 292 -14 q 151 23 196 3 q 81 76 106 43 q 44 161 56 110 q 53 282 33 213 l 143 254 q 131 162 124 200 q 156 99 139 124 q 206 60 172 74 q 275 40 240 46 q 351 35 310 35 q 483 69 438 35 q 528 164 528 104 q 525 193 528 179 q 519 217 522 207 q 506 238 515 228 q 492 255 497 249 q 472 269 486 261 q 450 281 457 278 q 424 292 443 285 q 399 302 406 300 q 369 311 392 304 q 339 321 346 318 q 120 408 181 369 q 60 529 60 447 z "},"t":{"ha":465,"x_min":56,"x_max":424,"o":"m 361 90 l 424 69 q 301 -14 400 -14 q 186 28 229 -14 q 143 196 143 71 l 143 646 l 56 646 l 56 694 q 133 713 108 699 q 172 774 158 728 q 185 917 185 821 l 233 917 l 233 694 l 388 694 q 386 669 388 676 q 375 653 385 661 q 346 646 365 646 l 233 646 l 233 225 q 248 78 233 121 q 307 35 263 35 q 361 90 356 35 z "},"u":{"ha":832,"x_min":57,"x_max":776,"o":"m 776 674 q 720 651 733 674 q 707 569 707 628 l 707 126 q 720 44 707 68 q 776 21 733 21 l 776 0 l 693 0 q 656 5 669 1 q 629 22 642 8 q 617 63 617 36 l 617 210 l 607 210 q 351 -14 553 -14 q 126 265 126 -14 l 126 569 q 113 651 126 628 q 57 674 100 674 l 57 694 l 286 694 l 286 674 q 230 651 243 674 q 217 569 217 628 l 217 251 q 251 90 217 144 q 367 35 285 35 q 488 71 438 35 q 566 169 539 107 q 605 299 593 232 q 617 444 617 367 l 617 569 q 603 651 617 628 q 547 674 590 674 l 547 694 l 776 694 l 776 674 z "},"v":{"ha":847,"x_min":14,"x_max":833,"o":"m 833 694 l 833 674 q 756 651 783 674 q 707 578 728 629 l 472 0 l 375 0 l 140 578 q 92 651 119 629 q 14 674 64 674 l 14 694 l 322 694 l 322 674 q 226 651 242 674 q 238 578 211 628 l 446 64 l 654 578 q 664 651 679 628 q 569 674 649 674 l 569 694 l 833 694 z "},"w":{"ha":1164,"x_min":14,"x_max":1150,"o":"m 1150 694 l 1150 674 q 1075 651 1100 674 q 1033 575 1050 628 l 857 0 l 761 0 l 588 549 l 403 0 l 307 0 l 131 574 q 89 651 114 628 q 14 674 64 674 l 14 694 l 319 694 l 319 674 q 221 650 239 674 q 225 575 203 626 l 378 81 l 585 694 l 636 694 l 831 82 l 982 575 q 986 650 1004 626 q 888 674 968 674 l 888 694 l 1150 694 z "},"x":{"ha":829,"x_min":28,"x_max":801,"o":"m 801 674 q 657 593 717 674 l 474 343 l 657 100 q 801 21 717 21 l 801 0 l 483 0 l 483 21 q 576 39 567 21 q 546 100 585 57 l 386 311 l 231 101 q 203 40 193 58 q 296 21 213 21 l 296 0 l 28 0 l 28 21 q 172 101 113 21 l 357 351 l 172 594 q 28 674 113 674 l 28 694 l 347 694 l 347 674 q 254 656 264 674 q 283 594 244 638 l 443 385 l 599 593 q 627 655 636 636 q 535 674 618 674 l 535 694 l 801 694 l 801 674 z "},"y":{"ha":835,"x_min":14,"x_max":821,"o":"m 821 694 l 821 674 q 740 651 768 674 q 693 578 713 629 l 450 -57 q 428 -111 433 -99 q 410 -156 424 -124 q 388 -199 396 -189 q 363 -231 379 -210 q 333 -258 347 -251 q 297 -271 318 -264 q 253 -278 276 -278 q 124 -212 161 -278 q 128 -42 86 -146 l 218 -69 q 188 -192 175 -156 q 254 -229 201 -229 q 333 -189 303 -229 q 397 -57 363 -149 l 419 0 l 365 0 l 143 578 q 94 651 122 629 q 14 674 67 674 l 14 694 l 333 694 l 333 674 q 231 651 249 674 q 239 578 214 628 l 440 57 l 640 576 q 647 651 664 628 q 546 674 631 674 l 546 694 l 821 694 z "},"z":{"ha":722,"x_min":56,"x_max":667,"o":"m 535 646 l 206 646 q 120 618 147 646 q 81 506 93 590 l 60 508 l 83 674 l 86 694 l 653 694 l 653 653 l 175 49 l 522 49 q 606 76 579 49 q 646 189 633 104 l 667 186 l 643 21 l 640 0 l 56 0 l 56 42 l 535 646 z "},"{":{"ha":429,"x_min":56,"x_max":374,"o":"m 56 393 l 56 442 q 181 468 140 442 q 227 543 222 494 q 224 660 232 592 q 209 841 213 760 q 245 967 206 922 q 374 1000 285 1013 l 374 951 q 315 940 336 956 q 292 890 294 925 q 292 824 289 856 q 303 740 294 793 q 314 660 311 688 q 153 422 333 422 l 153 413 q 314 174 333 413 q 303 93 311 146 q 292 9 294 40 q 292 -57 289 -22 q 315 -107 294 -92 q 374 -118 336 -122 l 374 -167 q 245 -134 285 -179 q 209 -8 206 -89 q 224 174 213 74 q 227 291 232 242 q 181 367 222 340 q 56 393 140 393 z "},"|":{"ha":181,"x_min":56,"x_max":125,"o":"m 56 1000 l 125 1000 l 125 -208 l 56 -208 l 56 1000 z "},"}":{"ha":429,"x_min":56,"x_max":374,"o":"m 374 393 q 222 342 251 393 q 207 174 192 290 q 218 78 215 117 q 221 -6 221 40 q 212 -81 221 -53 q 185 -133 203 -108 q 134 -165 167 -157 q 56 -167 101 -174 l 56 -118 q 101 -113 83 -121 q 128 -88 119 -106 q 139 -51 136 -71 q 139 0 142 -31 q 133 56 136 31 q 124 116 129 82 q 117 174 118 150 q 276 413 97 413 l 276 422 q 117 660 97 422 q 124 717 118 683 q 133 777 129 751 q 139 833 136 803 q 139 884 142 864 q 128 922 136 904 q 101 947 119 939 q 56 951 83 954 l 56 1000 q 134 999 101 1007 q 185 966 167 990 q 212 914 203 942 q 221 840 221 886 q 218 755 221 793 q 207 660 215 717 q 203 543 199 592 q 248 468 207 494 q 374 442 289 442 l 374 393 z "},"~":{"ha":606,"x_min":42,"x_max":564,"o":"m 449 243 q 360 265 404 243 q 285 313 315 286 q 217 360 256 339 q 143 382 178 382 q 113 271 72 382 l 64 299 q 71 413 42 374 q 157 451 100 451 q 246 430 201 451 q 320 382 290 408 q 389 334 350 356 q 463 313 428 313 q 493 424 533 313 l 542 396 q 535 282 564 321 q 449 243 506 243 z "},"¡":{"ha":257,"x_min":56,"x_max":201,"o":"m 129 708 q 181 688 161 708 q 201 635 201 667 q 181 583 201 604 q 129 563 161 563 q 76 583 96 563 q 56 635 56 604 q 76 688 56 667 q 129 708 96 708 m 108 403 l 150 403 q 160 77 150 256 q 171 -137 171 -101 q 160 -225 171 -211 q 129 -236 149 -236 q 99 -225 108 -236 q 89 -200 90 -214 q 88 -153 88 -186 q 88 -137 88 -143 q 98 77 88 -101 q 108 403 108 256 z "},"¢":{"ha":754,"x_min":56,"x_max":704,"o":"m 697 403 q 633 187 704 272 q 439 86 561 101 l 453 -108 l 404 -111 l 390 83 l 389 83 q 141 188 226 83 q 56 444 56 292 q 128 685 56 585 q 340 803 201 786 l 326 997 l 375 1000 l 389 806 l 392 806 q 607 722 528 806 q 683 500 686 638 l 593 528 q 542 692 600 628 q 392 757 483 757 l 436 136 q 568 217 518 153 q 607 375 618 282 l 697 403 m 146 444 q 208 220 146 307 q 388 132 269 133 l 343 753 q 196 651 246 736 q 146 444 146 567 z "},"£":{"ha":681,"x_min":56,"x_max":624,"o":"m 603 203 l 624 200 l 604 35 l 601 0 l 56 0 l 56 63 q 208 308 208 138 q 188 411 208 358 l 56 411 l 56 460 l 167 460 q 135 518 160 474 q 101 584 111 563 q 80 643 90 606 q 69 715 69 681 q 144 874 69 818 q 344 931 218 931 q 436 922 394 931 q 518 893 478 914 q 579 838 558 872 q 610 749 600 803 q 600 621 619 694 l 510 649 q 524 748 529 707 q 507 815 519 789 q 467 856 494 840 q 412 876 439 871 q 351 882 385 882 q 207 838 254 882 q 160 728 160 794 q 176 648 160 690 q 223 549 193 606 q 267 460 253 493 l 518 460 l 518 411 l 285 411 q 299 317 299 360 q 249 165 299 228 q 128 74 200 101 l 128 63 l 482 63 q 566 90 539 63 q 603 203 593 118 z "},"¤":{"ha":735,"x_min":56,"x_max":679,"o":"m 567 608 q 622 443 622 540 q 567 278 622 346 l 679 165 l 644 132 l 532 244 q 368 189 465 189 q 203 244 272 189 l 90 132 l 56 165 l 169 279 q 114 443 114 347 q 169 607 114 539 l 56 721 l 89 756 l 203 642 q 368 697 272 697 q 532 642 465 697 l 646 756 l 679 721 l 567 608 m 388 239 q 517 308 474 249 q 553 461 561 368 q 488 605 543 553 q 349 649 433 657 q 219 578 264 639 q 185 426 175 518 q 248 281 193 333 q 388 239 303 229 z "},"¥":{"ha":985,"x_min":56,"x_max":929,"o":"m 929 917 l 929 896 q 851 876 882 896 q 793 808 821 856 l 568 421 l 789 421 l 789 372 l 539 372 l 538 369 l 538 296 l 789 296 l 789 247 l 538 247 l 538 126 q 551 44 538 68 q 607 21 564 21 l 607 0 l 378 0 l 378 21 q 434 44 421 21 q 447 126 447 68 l 447 247 l 207 247 l 207 296 l 447 296 l 447 369 l 446 372 l 207 372 l 207 421 l 417 421 l 192 808 q 133 876 164 856 q 56 896 103 896 l 56 917 l 365 917 l 365 896 q 274 876 285 896 q 296 808 264 856 l 517 429 l 735 808 q 756 876 767 856 q 667 896 746 896 l 667 917 l 929 917 z "},"¦":{"ha":181,"x_min":56,"x_max":125,"o":"m 56 569 l 56 1000 l 125 1000 l 125 569 l 56 569 m 56 -208 l 56 222 l 125 222 l 125 -208 l 56 -208 z "},"§":{"ha":686,"x_min":63,"x_max":631,"o":"m 496 257 q 597 190 563 229 q 631 85 631 150 q 557 -54 631 -8 q 358 -100 483 -100 q 235 -87 290 -100 q 134 -44 181 -75 q 75 39 88 -12 q 79 168 63 90 l 169 140 q 192 -8 132 36 q 360 -51 251 -51 q 494 -18 449 -51 q 540 71 540 15 q 499 160 540 132 q 353 214 458 188 q 250 240 285 231 q 172 268 215 250 q 110 305 129 286 q 76 352 90 324 q 63 419 63 381 q 203 588 63 549 q 98 652 133 614 q 63 754 63 690 q 135 887 63 843 q 335 931 207 931 q 449 918 397 931 q 544 878 501 906 q 598 803 586 850 q 593 690 610 757 l 503 718 q 485 842 540 803 q 333 882 429 882 q 197 851 242 882 q 153 771 153 819 q 192 687 153 713 q 343 633 232 661 q 442 608 406 618 q 519 579 478 597 q 581 541 560 561 q 617 490 603 521 q 631 419 631 460 q 496 257 631 292 m 153 436 q 162 391 153 410 q 183 360 171 372 q 222 337 196 347 q 270 321 249 326 q 331 306 292 315 q 354 300 346 301 l 365 297 q 494 313 447 278 q 540 411 540 347 q 538 441 540 428 q 528 465 535 454 q 515 484 521 476 q 494 499 510 492 q 472 511 479 507 q 443 522 464 515 q 413 530 422 528 q 378 538 404 532 q 342 547 351 544 q 338 549 340 547 q 333 550 335 550 q 201 532 250 569 q 153 436 153 494 z "},"¨":{"ha":435,"x_min":56,"x_max":379,"o":"m 153 853 q 144 844 153 853 q 113 836 136 836 q 72 853 89 836 q 56 894 56 869 q 73 933 56 917 q 113 950 90 950 q 152 933 135 950 q 169 894 169 917 q 153 853 169 869 m 363 853 q 354 844 363 853 q 322 836 346 836 q 282 853 299 836 q 265 894 265 869 q 283 933 265 917 q 322 950 300 950 q 362 933 344 950 q 379 894 379 917 q 363 853 379 869 z "},"©":{"ha":1206,"x_min":56,"x_max":1150,"o":"m 1001 -51 q 927 -133 1001 -51 q 603 -215 853 -215 q 204 -51 353 -215 q 56 358 56 114 q 120 646 56 517 q 310 853 185 775 q 603 931 436 931 q 895 853 769 931 q 1085 646 1021 775 q 1150 358 1150 517 q 1001 -51 1150 114 m 603 -167 q 967 -17 833 -167 q 1101 358 1101 132 q 967 733 1101 583 q 603 882 833 882 q 239 733 374 882 q 104 358 104 583 q 239 -17 104 132 q 603 -167 374 -167 m 367 101 q 325 153 367 101 q 282 358 282 206 q 368 615 282 511 q 618 719 454 719 q 833 635 754 719 q 910 414 913 551 l 819 442 q 768 606 826 542 q 618 671 710 671 q 435 583 497 671 q 372 358 372 496 q 435 133 372 221 q 615 46 497 46 q 779 114 713 46 q 833 289 846 182 l 924 317 q 844 85 932 172 q 615 -3 757 -3 q 367 101 453 -3 z "},"«":{"ha":682,"x_min":56,"x_max":643,"o":"m 225 660 l 315 660 q 298 449 344 544 q 125 353 251 353 l 125 343 q 298 247 251 343 q 315 35 344 150 l 225 35 q 240 138 239 90 q 228 228 242 185 q 170 298 214 272 q 56 324 126 324 l 56 372 q 170 397 126 372 q 228 466 214 422 q 240 557 242 510 q 225 660 239 604 m 524 660 l 614 660 q 597 449 643 544 q 424 353 550 353 l 424 343 q 597 247 550 343 q 614 35 643 150 l 524 35 q 539 138 538 90 q 526 228 540 185 q 469 298 513 272 q 354 324 425 324 l 354 372 q 469 397 425 372 q 526 466 513 422 q 539 557 540 510 q 524 660 538 604 z "},"¬":{"ha":606,"x_min":56,"x_max":550,"o":"m 56 382 l 550 382 l 550 158 l 481 158 l 481 313 l 56 313 l 56 382 z "},"®":{"ha":721,"x_min":56,"x_max":665,"o":"m 361 1014 q 586 924 507 1014 q 665 711 665 833 q 586 499 665 589 q 361 408 507 408 q 135 499 215 408 q 56 711 56 589 q 135 924 56 833 q 361 1014 214 1014 m 104 711 q 170 533 104 610 q 361 457 236 457 q 526 510 460 457 q 465 514 482 493 q 440 594 449 535 q 406 678 432 657 q 324 700 379 700 l 315 700 l 315 617 q 322 576 315 588 q 350 565 329 565 l 350 554 l 232 554 l 232 565 q 260 576 254 565 q 267 617 267 588 l 267 818 q 260 859 267 847 q 232 871 254 871 l 232 881 l 346 881 q 387 878 371 881 q 428 869 403 876 q 466 842 453 863 q 479 790 479 822 q 426 711 479 731 q 488 594 475 683 q 529 535 497 532 q 592 599 564 539 q 617 710 617 651 l 617 711 q 551 890 617 814 q 361 965 486 965 q 170 890 236 965 q 104 711 104 814 m 364 728 q 416 744 401 728 q 431 790 431 760 q 416 837 431 821 q 364 853 401 853 l 315 853 l 315 728 l 324 728 l 336 728 l 364 728 z "},"¯":{"ha":482,"x_min":56,"x_max":426,"o":"m 56 921 l 426 921 l 426 872 l 56 872 l 56 921 z "},"°":{"ha":614,"x_min":56,"x_max":558,"o":"m 489 585 q 454 549 489 585 q 307 513 419 513 q 125 585 194 513 q 56 764 56 657 q 125 942 56 869 q 307 1014 194 1014 q 489 942 419 1014 q 558 764 558 869 q 489 585 558 657 m 175 635 q 200 608 175 635 q 307 582 225 582 q 439 635 389 582 q 489 764 489 688 q 439 892 489 840 q 307 944 389 944 q 175 892 225 944 q 125 764 125 840 q 175 635 125 688 z "},"±":{"ha":606,"x_min":56,"x_max":550,"o":"m 550 340 l 425 340 q 329 349 400 340 q 338 253 338 278 l 338 136 l 550 136 l 550 67 l 56 67 l 56 136 l 268 136 l 268 253 q 278 349 268 267 q 181 340 203 340 l 56 340 l 56 410 l 181 410 q 278 400 190 410 q 268 497 268 488 l 268 622 l 338 622 l 338 497 q 329 400 338 475 q 425 410 411 410 l 550 410 l 550 340 z "},"´":{"ha":328,"x_min":56,"x_max":272,"o":"m 56 813 q 168 972 168 857 l 272 1000 q 90 792 272 842 l 56 813 z "},"¶":{"ha":665,"x_min":56,"x_max":610,"o":"m 322 1000 l 378 889 l 388 889 l 388 1000 l 457 1000 l 457 -208 l 388 -208 l 388 542 l 378 542 l 322 431 q 233 444 276 431 q 149 486 190 457 q 81 574 107 515 q 56 715 56 633 q 81 856 56 797 q 149 944 107 915 q 233 987 190 974 q 322 1000 276 1000 m 540 1000 l 610 1000 l 610 -208 l 540 -208 l 540 1000 z "},"·":{"ha":257,"x_min":56,"x_max":201,"o":"m 129 275 q 76 297 96 275 q 56 350 56 318 q 76 400 56 379 q 129 421 96 421 q 181 400 161 421 q 201 350 201 379 q 181 297 201 318 q 129 275 161 275 z "},"¸":{"ha":397,"x_min":47,"x_max":342,"o":"m 233 -76 q 310 -104 278 -76 q 342 -186 342 -132 q 301 -283 342 -247 q 193 -318 260 -318 q 90 -283 132 -318 q 58 -185 47 -249 l 128 -210 q 141 -250 121 -237 q 190 -262 161 -262 q 251 -242 229 -262 q 272 -183 272 -221 q 208 -118 272 -118 q 121 -154 154 -118 l 86 -146 l 122 0 l 192 0 l 138 -106 l 149 -106 q 233 -76 188 -76 z "},"»":{"ha":682,"x_min":39,"x_max":626,"o":"m 158 660 q 143 557 144 604 q 156 466 142 510 q 213 397 169 422 q 328 372 257 372 l 328 324 q 213 298 257 324 q 156 228 169 272 q 143 138 142 185 q 158 35 144 90 l 68 35 q 85 247 39 150 q 258 343 132 343 l 258 353 q 85 449 132 353 q 68 660 39 544 l 158 660 m 457 660 q 442 557 443 604 q 454 466 440 510 q 512 397 468 422 q 626 372 556 372 l 626 324 q 512 298 556 324 q 454 228 468 272 q 442 138 440 185 q 457 35 443 90 l 367 35 q 384 247 338 150 q 557 343 431 343 l 557 353 q 384 449 431 353 q 367 660 338 544 l 457 660 z "},"¿":{"ha":653,"x_min":56,"x_max":603,"o":"m 360 708 q 413 688 393 708 q 433 635 433 667 q 413 583 433 604 q 360 563 393 563 q 308 583 328 563 q 288 635 288 604 q 308 688 288 667 q 360 708 328 708 m 56 -49 q 98 74 56 29 q 218 157 140 118 q 260 178 249 172 q 293 198 272 185 q 320 221 314 211 q 337 249 326 231 q 349 288 347 267 q 350 337 350 308 q 346 403 350 365 l 394 403 q 407 317 406 356 q 398 251 408 279 q 378 205 388 224 q 345 168 369 186 q 308 142 321 150 q 264 118 294 135 q 176 50 206 88 q 146 -44 146 13 q 188 -148 146 -108 q 322 -187 231 -187 q 381 -181 353 -187 q 440 -160 410 -175 q 485 -117 469 -144 q 508 -50 501 -90 q 496 46 514 -10 l 586 74 q 590 -76 603 -17 q 530 -172 576 -136 q 430 -222 483 -207 q 310 -236 376 -236 q 127 -186 199 -236 q 56 -49 56 -136 z "},"À":{"ha":1058,"x_min":28,"x_max":1031,"o":"m 574 1014 q 392 1222 392 1064 l 496 1194 q 608 1035 496 1079 l 574 1014 m 900 117 q 950 43 922 65 q 1031 21 978 21 l 1031 0 l 711 0 l 711 21 q 813 44 796 21 q 803 117 829 67 l 676 431 l 336 431 l 210 117 q 200 44 183 67 q 301 21 217 21 l 301 0 l 28 0 l 28 21 q 108 43 81 21 q 158 117 136 65 l 438 808 l 438 807 q 449 874 460 853 q 378 896 439 896 l 378 917 l 578 917 l 900 117 m 356 479 l 657 479 l 507 853 l 356 479 m 438 807 l 435 800 l 438 807 z "},"Á":{"ha":1058,"x_min":28,"x_max":1031,"o":"m 636 1222 q 454 1014 636 1064 l 419 1035 q 532 1194 532 1079 l 636 1222 m 900 117 q 950 43 922 65 q 1031 21 978 21 l 1031 0 l 711 0 l 711 21 q 813 44 796 21 q 803 117 829 67 l 676 431 l 336 431 l 210 117 q 200 44 183 67 q 301 21 217 21 l 301 0 l 28 0 l 28 21 q 108 43 81 21 q 158 117 136 65 l 438 808 l 438 807 q 449 874 460 853 q 378 896 439 896 l 378 917 l 578 917 l 900 117 m 356 479 l 657 479 l 507 853 l 356 479 m 438 807 l 435 800 l 438 807 z "},"Â":{"ha":1058,"x_min":28,"x_max":1031,"o":"m 524 1153 q 375 1014 483 1038 l 354 1069 q 483 1222 461 1107 l 574 1222 q 701 1069 596 1107 l 681 1014 q 533 1153 574 1036 l 524 1153 m 900 117 q 950 43 922 65 q 1031 21 978 21 l 1031 0 l 711 0 l 711 21 q 813 44 796 21 q 803 117 829 67 l 676 431 l 336 431 l 210 117 q 200 44 183 67 q 301 21 217 21 l 301 0 l 28 0 l 28 21 q 108 43 81 21 q 158 117 136 65 l 438 808 l 438 807 q 449 874 460 853 q 378 896 439 896 l 378 917 l 578 917 l 900 117 m 356 479 l 657 479 l 507 853 l 356 479 m 438 807 l 435 800 l 438 807 z "},"Ã":{"ha":1058,"x_min":28,"x_max":1031,"o":"m 400 1049 l 331 1069 q 335 1181 308 1140 q 417 1222 361 1222 q 488 1203 454 1222 q 543 1163 522 1185 q 588 1123 564 1142 q 635 1104 613 1104 q 656 1208 693 1104 l 725 1181 q 721 1074 747 1114 q 639 1035 694 1035 q 550 1065 590 1035 q 479 1124 510 1094 q 422 1153 449 1153 q 400 1049 363 1153 m 900 117 q 950 43 922 65 q 1031 21 978 21 l 1031 0 l 711 0 l 711 21 q 813 44 796 21 q 803 117 829 67 l 676 431 l 336 431 l 210 117 q 200 44 183 67 q 301 21 217 21 l 301 0 l 28 0 l 28 21 q 108 43 81 21 q 158 117 136 65 l 438 808 l 438 807 q 449 874 460 853 q 378 896 439 896 l 378 917 l 578 917 l 900 117 m 356 479 l 657 479 l 507 853 l 356 479 m 438 807 l 435 800 l 438 807 z "},"Ä":{"ha":1058,"x_min":28,"x_max":1031,"o":"m 463 1075 q 454 1067 463 1075 q 422 1058 446 1058 q 382 1075 399 1058 q 365 1117 365 1092 q 383 1156 365 1139 q 422 1172 400 1172 q 462 1156 444 1172 q 479 1117 479 1139 q 463 1075 479 1092 m 672 1075 q 664 1067 672 1075 q 632 1058 656 1058 q 592 1075 608 1058 q 575 1117 575 1092 q 592 1156 575 1139 q 632 1172 610 1172 q 672 1156 654 1172 q 689 1117 689 1139 q 672 1075 689 1092 m 900 117 q 950 43 922 65 q 1031 21 978 21 l 1031 0 l 711 0 l 711 21 q 813 44 796 21 q 803 117 829 67 l 676 431 l 336 431 l 210 117 q 200 44 183 67 q 301 21 217 21 l 301 0 l 28 0 l 28 21 q 108 43 81 21 q 158 117 136 65 l 438 808 l 438 807 q 449 874 460 853 q 378 896 439 896 l 378 917 l 578 917 l 900 117 m 356 479 l 657 479 l 507 853 l 356 479 m 438 807 l 435 800 l 438 807 z "},"Å":{"ha":1058,"x_min":28,"x_max":1031,"o":"m 528 1014 q 435 1043 468 1014 q 403 1118 403 1072 q 436 1192 403 1163 q 528 1222 469 1222 q 619 1192 586 1222 q 653 1118 653 1163 q 619 1043 653 1072 q 528 1014 586 1014 m 583 1118 q 583 1146 583 1118 q 528 1174 583 1174 q 472 1118 472 1174 q 528 1063 472 1063 q 583 1118 583 1063 m 900 117 q 950 43 922 65 q 1031 21 978 21 l 1031 0 l 711 0 l 711 21 q 813 44 796 21 q 803 117 829 67 l 676 431 l 336 431 l 210 117 q 200 44 183 67 q 301 21 217 21 l 301 0 l 28 0 l 28 21 q 108 43 81 21 q 158 117 136 65 l 438 808 l 438 807 q 449 874 460 853 q 378 896 439 896 l 378 917 l 578 917 l 900 117 m 356 479 l 657 479 l 507 853 l 356 479 m 438 807 l 435 800 l 438 807 z "},"Æ":{"ha":1282,"x_min":28,"x_max":1226,"o":"m 1206 189 l 1226 186 l 1203 21 l 1200 0 l 593 0 l 593 21 q 649 44 636 21 q 663 126 663 68 l 663 375 l 333 375 l 211 114 q 198 43 183 65 q 297 21 213 21 l 297 0 l 28 0 l 28 21 q 104 42 75 21 q 158 114 133 64 l 482 803 q 496 874 511 851 q 397 896 481 896 l 397 917 l 1186 917 l 1189 896 l 1213 731 l 1192 728 q 1152 840 1179 813 q 1068 868 1125 868 l 753 868 l 753 490 l 963 490 q 1044 503 1021 490 q 1067 560 1067 517 l 1088 560 l 1088 372 l 1067 372 q 1044 428 1067 415 q 963 442 1021 442 l 753 442 l 753 49 l 1082 49 q 1166 76 1139 49 q 1206 189 1193 104 m 357 424 l 663 424 l 663 868 l 539 868 q 539 813 560 856 l 357 424 z "},"Ç":{"ha":864,"x_min":56,"x_max":814,"o":"m 718 313 l 808 340 q 731 90 814 181 q 499 -12 649 -1 l 451 -106 l 463 -106 q 547 -76 501 -76 q 624 -104 592 -76 q 656 -186 656 -132 q 615 -283 656 -247 q 507 -318 574 -318 q 403 -283 446 -318 q 372 -185 361 -249 l 442 -210 q 455 -250 435 -237 q 504 -262 475 -262 q 565 -242 543 -262 q 586 -183 586 -221 q 522 -118 586 -118 q 435 -154 468 -118 l 400 -146 l 433 -14 q 153 117 251 -6 q 56 458 56 240 q 167 806 56 681 q 471 931 278 931 q 722 840 629 931 q 808 590 814 750 l 718 618 q 656 811 728 740 q 471 882 583 882 q 235 769 324 882 q 146 458 146 656 q 228 147 146 258 q 457 35 311 35 q 654 108 581 35 q 718 313 728 181 z "},"È":{"ha":756,"x_min":56,"x_max":700,"o":"m 431 1014 q 249 1222 249 1064 l 353 1194 q 465 1035 353 1079 l 431 1014 m 679 189 l 700 186 l 676 21 l 674 0 l 56 0 l 56 21 q 112 44 99 21 q 125 126 125 68 l 125 792 q 112 873 125 850 q 56 896 99 896 l 56 917 l 660 917 l 663 896 l 686 731 l 665 728 q 626 840 653 813 q 542 868 599 868 l 215 868 l 215 490 l 436 490 q 517 503 494 490 q 540 560 540 517 l 561 560 l 561 372 l 540 372 q 517 428 540 415 q 436 442 494 442 l 215 442 l 215 49 l 556 49 q 640 76 613 49 q 679 189 667 104 z "},"É":{"ha":756,"x_min":56,"x_max":700,"o":"m 493 1222 q 311 1014 493 1064 l 276 1035 q 389 1194 389 1079 l 493 1222 m 679 189 l 700 186 l 676 21 l 674 0 l 56 0 l 56 21 q 112 44 99 21 q 125 126 125 68 l 125 792 q 112 873 125 850 q 56 896 99 896 l 56 917 l 660 917 l 663 896 l 686 731 l 665 728 q 626 840 653 813 q 542 868 599 868 l 215 868 l 215 490 l 436 490 q 517 503 494 490 q 540 560 540 517 l 561 560 l 561 372 l 540 372 q 517 428 540 415 q 436 442 494 442 l 215 442 l 215 49 l 556 49 q 640 76 613 49 q 679 189 667 104 z "},"Ê":{"ha":756,"x_min":56,"x_max":700,"o":"m 381 1153 q 232 1014 340 1038 l 211 1069 q 340 1222 318 1107 l 431 1222 q 558 1069 453 1107 l 538 1014 q 390 1153 431 1036 l 381 1153 m 679 189 l 700 186 l 676 21 l 674 0 l 56 0 l 56 21 q 112 44 99 21 q 125 126 125 68 l 125 792 q 112 873 125 850 q 56 896 99 896 l 56 917 l 660 917 l 663 896 l 686 731 l 665 728 q 626 840 653 813 q 542 868 599 868 l 215 868 l 215 490 l 436 490 q 517 503 494 490 q 540 560 540 517 l 561 560 l 561 372 l 540 372 q 517 428 540 415 q 436 442 494 442 l 215 442 l 215 49 l 556 49 q 640 76 613 49 q 679 189 667 104 z "},"Ë":{"ha":756,"x_min":56,"x_max":700,"o":"m 321 1075 q 313 1067 321 1075 q 281 1058 304 1058 q 240 1075 257 1058 q 224 1117 224 1092 q 241 1156 224 1139 q 281 1172 258 1172 q 320 1156 303 1172 q 338 1117 338 1139 q 321 1075 338 1092 m 531 1075 q 522 1067 531 1075 q 490 1058 514 1058 q 450 1075 467 1058 q 433 1117 433 1092 q 451 1156 433 1139 q 490 1172 468 1172 q 530 1156 513 1172 q 547 1117 547 1139 q 531 1075 547 1092 m 679 189 l 700 186 l 676 21 l 674 0 l 56 0 l 56 21 q 112 44 99 21 q 125 126 125 68 l 125 792 q 112 873 125 850 q 56 896 99 896 l 56 917 l 660 917 l 663 896 l 686 731 l 665 728 q 626 840 653 813 q 542 868 599 868 l 215 868 l 215 490 l 436 490 q 517 503 494 490 q 540 560 540 517 l 561 560 l 561 372 l 540 372 q 517 428 540 415 q 436 442 494 442 l 215 442 l 215 49 l 556 49 q 640 76 613 49 q 679 189 667 104 z "},"Ì":{"ha":340,"x_min":33,"x_max":285,"o":"m 250 1035 l 215 1014 q 33 1222 33 1064 l 138 1194 q 250 1035 138 1079 m 56 0 l 56 21 q 112 44 99 21 q 125 126 125 68 l 125 792 q 112 873 125 850 q 56 896 99 896 l 56 917 l 285 917 l 285 896 q 228 873 242 896 q 215 792 215 850 l 215 126 q 228 44 215 68 q 285 21 242 21 l 285 0 l 56 0 z "},"Í":{"ha":340,"x_min":56,"x_max":285,"o":"m 63 1035 q 175 1194 175 1079 l 279 1222 q 97 1014 279 1064 l 63 1035 m 56 0 l 56 21 q 112 44 99 21 q 125 126 125 68 l 125 792 q 112 873 125 850 q 56 896 99 896 l 56 917 l 285 917 l 285 896 q 228 873 242 896 q 215 792 215 850 l 215 126 q 228 44 215 68 q 285 21 242 21 l 285 0 l 56 0 z "},"Î":{"ha":340,"x_min":-4,"x_max":343,"o":"m 343 1069 l 322 1014 q 175 1153 215 1036 l 165 1153 q 17 1014 125 1038 l -4 1069 q 125 1222 103 1107 l 215 1222 q 343 1069 238 1107 m 56 0 l 56 21 q 112 44 99 21 q 125 126 125 68 l 125 792 q 112 873 125 850 q 56 896 99 896 l 56 917 l 285 917 l 285 896 q 228 873 242 896 q 215 792 215 850 l 215 126 q 228 44 215 68 q 285 21 242 21 l 285 0 l 56 0 z "},"Ï":{"ha":340,"x_min":8,"x_max":332,"o":"m 106 1075 q 97 1067 106 1075 q 65 1058 89 1058 q 25 1075 42 1058 q 8 1117 8 1092 q 26 1156 8 1139 q 65 1172 43 1172 q 105 1156 88 1172 q 122 1117 122 1139 q 106 1075 122 1092 m 315 1075 q 307 1067 315 1075 q 275 1058 299 1058 q 235 1075 251 1058 q 218 1117 218 1092 q 235 1156 218 1139 q 275 1172 253 1172 q 315 1156 297 1172 q 332 1117 332 1139 q 315 1075 332 1092 m 56 0 l 56 21 q 112 44 99 21 q 125 126 125 68 l 125 792 q 112 873 125 850 q 56 896 99 896 l 56 917 l 285 917 l 285 896 q 228 873 242 896 q 215 792 215 850 l 215 126 q 228 44 215 68 q 285 21 242 21 l 285 0 l 56 0 z "},"Ð":{"ha":906,"x_min":42,"x_max":850,"o":"m 404 917 q 511 908 460 917 q 627 871 563 900 q 739 794 692 842 q 818 660 786 747 q 850 458 850 574 q 818 256 850 343 q 739 122 786 169 q 627 46 692 75 q 511 8 563 17 q 404 0 460 0 l 56 0 l 56 21 q 112 44 99 21 q 125 126 125 68 l 125 435 l 42 435 l 42 483 l 125 483 l 125 792 q 112 873 125 850 q 56 896 99 896 l 56 917 l 404 917 m 383 49 q 660 147 560 49 q 760 458 760 246 q 660 769 760 671 q 383 868 560 868 l 215 868 l 215 483 l 431 483 l 431 435 l 215 435 l 215 49 l 383 49 z "},"Ñ":{"ha":985,"x_min":56,"x_max":929,"o":"m 604 1035 q 515 1065 556 1035 q 444 1124 475 1094 q 388 1153 414 1153 q 365 1049 328 1153 l 296 1069 q 300 1181 274 1140 q 382 1222 326 1222 q 453 1203 419 1222 q 508 1163 488 1185 q 553 1123 529 1142 q 600 1104 578 1104 q 621 1208 658 1104 l 690 1181 q 685 1074 713 1114 q 604 1035 658 1035 m 56 0 l 56 21 q 112 44 99 21 q 125 126 125 68 l 125 792 q 112 873 125 850 q 56 896 99 896 l 56 917 l 139 917 q 206 900 182 915 q 268 836 231 885 l 811 107 l 811 792 q 798 873 811 850 q 742 896 785 896 l 742 917 l 929 917 l 929 896 q 873 873 886 896 q 860 792 860 850 l 860 0 q 782 15 808 0 q 717 82 756 29 l 174 811 l 174 126 q 187 44 174 68 q 243 21 200 21 l 243 0 l 56 0 z "},"Ò":{"ha":958,"x_min":56,"x_max":903,"o":"m 560 1035 l 525 1014 q 343 1222 343 1064 l 447 1194 q 560 1035 447 1079 m 170 119 q 113 185 170 119 q 56 458 56 251 q 170 798 56 665 q 479 931 285 931 q 788 798 674 931 q 903 458 903 665 q 788 119 903 251 q 479 -14 674 -14 q 170 119 285 -14 m 149 428 q 267 130 167 236 q 528 39 368 24 q 753 176 676 53 q 811 490 831 300 q 691 788 792 682 q 432 879 590 894 q 206 742 283 865 q 149 428 129 618 z "},"Ó":{"ha":958,"x_min":56,"x_max":903,"o":"m 371 1035 q 483 1194 483 1079 l 588 1222 q 406 1014 588 1064 l 371 1035 m 170 119 q 113 185 170 119 q 56 458 56 251 q 170 798 56 665 q 479 931 285 931 q 788 798 674 931 q 903 458 903 665 q 788 119 903 251 q 479 -14 674 -14 q 170 119 285 -14 m 149 428 q 267 130 167 236 q 528 39 368 24 q 753 176 676 53 q 811 490 831 300 q 691 788 792 682 q 432 879 590 894 q 206 742 283 865 q 149 428 129 618 z "},"Ô":{"ha":958,"x_min":56,"x_max":903,"o":"m 653 1069 l 632 1014 q 485 1153 525 1036 l 475 1153 q 326 1014 435 1038 l 306 1069 q 435 1222 413 1107 l 525 1222 q 653 1069 547 1107 m 170 119 q 113 185 170 119 q 56 458 56 251 q 170 798 56 665 q 479 931 285 931 q 788 798 674 931 q 903 458 903 665 q 788 119 903 251 q 479 -14 674 -14 q 170 119 285 -14 m 149 428 q 267 130 167 236 q 528 39 368 24 q 753 176 676 53 q 811 490 831 300 q 691 788 792 682 q 432 879 590 894 q 206 742 283 865 q 149 428 129 618 z "},"Õ":{"ha":958,"x_min":56,"x_max":903,"o":"m 590 1035 q 501 1065 542 1035 q 431 1124 461 1094 q 374 1153 400 1153 q 351 1049 314 1153 l 282 1069 q 286 1181 260 1140 q 368 1222 313 1222 q 440 1203 406 1222 q 494 1163 474 1185 q 540 1123 515 1142 q 586 1104 564 1104 q 607 1208 646 1104 l 676 1181 q 672 1074 699 1114 q 590 1035 644 1035 m 170 119 q 113 185 170 119 q 56 458 56 251 q 170 798 56 665 q 479 931 285 931 q 788 798 674 931 q 903 458 903 665 q 788 119 903 251 q 479 -14 674 -14 q 170 119 285 -14 m 149 428 q 267 130 167 236 q 528 39 368 24 q 753 176 676 53 q 811 490 831 300 q 691 788 792 682 q 432 879 590 894 q 206 742 283 865 q 149 428 129 618 z "},"Ö":{"ha":958,"x_min":56,"x_max":903,"o":"m 415 1075 q 407 1067 415 1075 q 375 1058 399 1058 q 335 1075 351 1058 q 318 1117 318 1092 q 335 1156 318 1139 q 375 1172 353 1172 q 415 1156 397 1172 q 432 1117 432 1139 q 415 1075 432 1092 m 625 1075 q 617 1067 625 1075 q 585 1058 608 1058 q 544 1075 561 1058 q 528 1117 528 1092 q 545 1156 528 1139 q 585 1172 563 1172 q 624 1156 607 1172 q 642 1117 642 1139 q 625 1075 642 1092 m 170 119 q 113 185 170 119 q 56 458 56 251 q 170 798 56 665 q 479 931 285 931 q 788 798 674 931 q 903 458 903 665 q 788 119 903 251 q 479 -14 674 -14 q 170 119 285 -14 m 149 428 q 267 130 167 236 q 528 39 368 24 q 753 176 676 53 q 811 490 831 300 q 691 788 792 682 q 432 879 590 894 q 206 742 283 865 q 149 428 129 618 z "},"×":{"ha":510,"x_min":56,"x_max":454,"o":"m 292 357 q 310 344 297 353 q 335 323 322 335 q 365 294 349 311 l 454 206 l 406 157 l 317 246 q 256 319 289 272 q 193 246 213 264 l 104 157 l 56 206 l 144 294 q 174 323 161 311 q 200 344 188 335 q 218 357 213 353 q 200 370 213 361 q 174 390 188 379 q 144 418 161 401 l 56 507 l 104 556 l 193 468 q 256 393 210 451 q 317 468 290 442 l 406 556 l 454 507 l 365 418 q 335 390 349 401 q 310 370 322 379 q 292 357 297 361 z "},"Ø":{"ha":958,"x_min":56,"x_max":903,"o":"m 678 885 q 844 717 785 829 q 903 458 903 604 q 788 119 903 251 q 479 -14 674 -14 q 326 13 399 -14 l 288 -83 l 235 -83 l 281 32 q 115 200 174 88 q 56 458 56 313 q 170 798 56 665 q 479 931 285 931 q 633 904 561 931 l 672 1000 l 724 1000 l 678 885 m 149 428 q 307 96 169 196 l 611 849 q 432 879 532 889 q 206 742 283 865 q 149 428 129 618 m 528 39 q 753 176 676 53 q 811 490 831 300 q 653 822 788 722 l 349 69 q 528 39 428 29 z "},"Ù":{"ha":944,"x_min":42,"x_max":903,"o":"m 536 1014 q 354 1222 354 1064 l 458 1194 q 571 1035 458 1079 l 536 1014 m 903 917 l 903 896 q 847 873 860 896 q 833 792 833 850 l 832 465 q 814 260 829 343 q 760 112 799 176 q 653 17 722 47 q 479 -14 583 -14 q 298 16 371 -14 q 185 110 225 46 q 128 258 144 174 q 111 465 111 342 l 111 792 q 98 873 111 850 q 42 896 85 896 l 42 917 l 271 917 l 271 896 q 215 873 228 896 q 201 792 201 850 l 200 465 q 267 135 200 236 q 493 35 335 35 q 716 142 651 35 q 785 465 781 249 l 786 792 q 773 873 786 850 q 717 896 760 896 l 717 917 l 903 917 z "},"Ú":{"ha":944,"x_min":42,"x_max":903,"o":"m 599 1222 q 417 1014 599 1064 l 382 1035 q 494 1194 494 1079 l 599 1222 m 903 917 l 903 896 q 847 873 860 896 q 833 792 833 850 l 832 465 q 814 260 829 343 q 760 112 799 176 q 653 17 722 47 q 479 -14 583 -14 q 298 16 371 -14 q 185 110 225 46 q 128 258 144 174 q 111 465 111 342 l 111 792 q 98 873 111 850 q 42 896 85 896 l 42 917 l 271 917 l 271 896 q 215 873 228 896 q 201 792 201 850 l 200 465 q 267 135 200 236 q 493 35 335 35 q 716 142 651 35 q 785 465 781 249 l 786 792 q 773 873 786 850 q 717 896 760 896 l 717 917 l 903 917 z "},"Û":{"ha":944,"x_min":42,"x_max":903,"o":"m 486 1153 q 338 1014 446 1038 l 317 1069 q 446 1222 424 1107 l 536 1222 q 664 1069 558 1107 l 643 1014 q 496 1153 536 1036 l 486 1153 m 903 917 l 903 896 q 847 873 860 896 q 833 792 833 850 l 832 465 q 814 260 829 343 q 760 112 799 176 q 653 17 722 47 q 479 -14 583 -14 q 298 16 371 -14 q 185 110 225 46 q 128 258 144 174 q 111 465 111 342 l 111 792 q 98 873 111 850 q 42 896 85 896 l 42 917 l 271 917 l 271 896 q 215 873 228 896 q 201 792 201 850 l 200 465 q 267 135 200 236 q 493 35 335 35 q 716 142 651 35 q 785 465 781 249 l 786 792 q 773 873 786 850 q 717 896 760 896 l 717 917 l 903 917 z "},"Ü":{"ha":944,"x_min":42,"x_max":903,"o":"m 425 1075 q 417 1067 425 1075 q 385 1058 408 1058 q 344 1075 361 1058 q 328 1117 328 1092 q 345 1156 328 1139 q 385 1172 363 1172 q 424 1156 407 1172 q 442 1117 442 1139 q 425 1075 442 1092 m 635 1075 q 626 1067 635 1075 q 594 1058 618 1058 q 554 1075 571 1058 q 538 1117 538 1092 q 555 1156 538 1139 q 594 1172 572 1172 q 634 1156 617 1172 q 651 1117 651 1139 q 635 1075 651 1092 m 903 917 l 903 896 q 847 873 860 896 q 833 792 833 850 l 832 465 q 814 260 829 343 q 760 112 799 176 q 653 17 722 47 q 479 -14 583 -14 q 298 16 371 -14 q 185 110 225 46 q 128 258 144 174 q 111 465 111 342 l 111 792 q 98 873 111 850 q 42 896 85 896 l 42 917 l 271 917 l 271 896 q 215 873 228 896 q 201 792 201 850 l 200 465 q 267 135 200 236 q 493 35 335 35 q 716 142 651 35 q 785 465 781 249 l 786 792 q 773 873 786 850 q 717 896 760 896 l 717 917 l 903 917 z "},"Ý":{"ha":901,"x_min":14,"x_max":888,"o":"m 560 1222 q 378 1014 560 1064 l 343 1035 q 456 1194 456 1079 l 560 1222 m 888 917 l 888 896 q 810 876 840 896 q 751 808 779 856 l 496 369 l 496 126 q 509 44 496 68 q 565 21 522 21 l 565 0 l 336 0 l 336 21 q 392 44 379 21 q 406 126 406 68 l 406 369 l 150 808 q 92 876 122 856 q 14 896 61 896 l 14 917 l 324 917 l 324 896 q 233 876 243 896 q 254 808 222 856 l 475 429 l 693 808 q 715 876 725 856 q 625 896 704 896 l 625 917 l 888 917 z "},"Þ":{"ha":836,"x_min":56,"x_max":781,"o":"m 376 778 q 449 777 422 778 q 524 771 475 776 q 602 754 572 765 q 669 722 632 743 q 728 669 707 700 q 765 589 750 638 q 781 478 781 540 q 765 367 781 415 q 728 287 750 318 q 669 233 707 256 q 601 201 631 211 q 523 185 572 190 q 449 178 474 179 q 376 178 424 178 l 215 178 l 215 126 q 228 44 215 68 q 285 21 242 21 l 285 0 l 56 0 l 56 21 q 112 44 99 21 q 125 126 125 68 l 125 792 q 112 873 125 850 q 56 896 99 896 l 56 917 l 285 917 l 285 896 q 228 873 242 896 q 215 792 215 850 l 215 778 l 376 778 m 397 226 q 619 282 549 226 q 690 478 690 338 q 619 674 690 618 q 397 729 549 729 l 215 729 l 215 226 l 397 226 z "},"ß":{"ha":781,"x_min":56,"x_max":753,"o":"m 125 611 q 196 858 125 786 q 396 931 267 931 q 572 868 501 931 q 642 665 642 806 q 446 554 446 665 q 478 475 446 508 q 555 418 510 442 q 644 367 600 394 q 721 292 689 340 q 753 178 753 244 q 692 40 753 93 q 532 -14 632 -14 q 355 58 417 -14 q 333 272 293 129 l 424 244 q 415 89 383 143 q 529 35 446 35 q 629 68 596 35 q 663 161 663 101 q 631 249 663 213 q 553 310 599 286 q 464 358 508 333 q 388 426 419 383 q 356 528 356 468 q 551 700 356 676 q 517 830 551 785 q 397 875 482 875 q 257 819 299 875 q 215 639 215 763 l 215 83 q 195 17 215 33 q 139 0 175 1 l 56 0 l 56 21 q 112 44 99 21 q 125 126 125 68 l 125 611 z "},"à":{"ha":740,"x_min":56,"x_max":713,"o":"m 428 792 q 246 1000 246 842 l 350 972 q 463 813 350 857 l 428 792 m 643 140 q 660 62 643 76 q 713 69 676 47 l 713 49 q 628 0 688 0 q 574 20 596 0 q 553 82 553 40 l 553 138 l 543 138 q 417 26 499 67 q 247 -14 336 -14 q 109 29 163 -14 q 56 157 56 72 q 74 235 56 199 q 118 296 92 271 q 189 342 144 321 q 271 377 233 364 q 367 403 308 390 q 460 421 425 415 q 551 435 494 426 q 510 606 546 553 q 378 660 475 660 q 222 598 275 660 q 200 450 169 536 l 110 422 q 154 624 78 540 q 385 708 231 708 q 585 628 528 708 q 643 367 643 547 l 643 140 m 553 297 l 553 388 q 402 361 471 378 q 274 317 333 344 q 180 249 214 290 q 146 158 146 208 q 271 35 146 35 q 462 108 371 35 q 553 288 553 182 l 553 297 z "},"á":{"ha":740,"x_min":56,"x_max":713,"o":"m 490 1000 q 308 792 490 842 l 274 813 q 386 972 386 857 l 490 1000 m 643 140 q 660 62 643 76 q 713 69 676 47 l 713 49 q 628 0 688 0 q 574 20 596 0 q 553 82 553 40 l 553 138 l 543 138 q 417 26 499 67 q 247 -14 336 -14 q 109 29 163 -14 q 56 157 56 72 q 74 235 56 199 q 118 296 92 271 q 189 342 144 321 q 271 377 233 364 q 367 403 308 390 q 460 421 425 415 q 551 435 494 426 q 510 606 546 553 q 378 660 475 660 q 222 598 275 660 q 200 450 169 536 l 110 422 q 154 624 78 540 q 385 708 231 708 q 585 628 528 708 q 643 367 643 547 l 643 140 m 553 297 l 553 388 q 402 361 471 378 q 274 317 333 344 q 180 249 214 290 q 146 158 146 208 q 271 35 146 35 q 462 108 371 35 q 553 288 553 182 l 553 297 z "},"â":{"ha":740,"x_min":56,"x_max":713,"o":"m 378 931 q 229 792 338 815 l 208 847 q 338 1000 315 885 l 428 1000 q 556 847 450 885 l 535 792 q 388 931 428 814 l 378 931 m 643 140 q 660 62 643 76 q 713 69 676 47 l 713 49 q 628 0 688 0 q 574 20 596 0 q 553 82 553 40 l 553 138 l 543 138 q 417 26 499 67 q 247 -14 336 -14 q 109 29 163 -14 q 56 157 56 72 q 74 235 56 199 q 118 296 92 271 q 189 342 144 321 q 271 377 233 364 q 367 403 308 390 q 460 421 425 415 q 551 435 494 426 q 510 606 546 553 q 378 660 475 660 q 222 598 275 660 q 200 450 169 536 l 110 422 q 154 624 78 540 q 385 708 231 708 q 585 628 528 708 q 643 367 643 547 l 643 140 m 553 297 l 553 388 q 402 361 471 378 q 274 317 333 344 q 180 249 214 290 q 146 158 146 208 q 271 35 146 35 q 462 108 371 35 q 553 288 553 182 l 553 297 z "},"ã":{"ha":740,"x_min":56,"x_max":713,"o":"m 254 826 l 185 847 q 189 959 163 918 q 271 1000 215 1000 q 342 981 308 1000 q 397 941 376 963 q 442 901 418 919 q 489 882 467 882 q 510 986 549 882 l 579 958 q 574 852 601 892 q 493 813 547 813 q 404 842 444 813 q 333 901 364 872 q 276 931 303 931 q 254 826 215 931 m 643 140 q 660 62 643 76 q 713 69 676 47 l 713 49 q 628 0 688 0 q 574 20 596 0 q 553 82 553 40 l 553 138 l 543 138 q 417 26 499 67 q 247 -14 336 -14 q 109 29 163 -14 q 56 157 56 72 q 74 235 56 199 q 118 296 92 271 q 189 342 144 321 q 271 377 233 364 q 367 403 308 390 q 460 421 425 415 q 551 435 494 426 q 510 606 546 553 q 378 660 475 660 q 222 598 275 660 q 200 450 169 536 l 110 422 q 154 624 78 540 q 385 708 231 708 q 585 628 528 708 q 643 367 643 547 l 643 140 m 553 297 l 553 388 q 402 361 471 378 q 274 317 333 344 q 180 249 214 290 q 146 158 146 208 q 271 35 146 35 q 462 108 371 35 q 553 288 553 182 l 553 297 z "},"ä":{"ha":740,"x_min":56,"x_max":713,"o":"m 318 853 q 310 844 318 853 q 278 836 301 836 q 238 853 254 836 q 221 894 221 869 q 238 933 221 917 q 278 950 256 950 q 317 933 300 950 q 335 894 335 917 q 318 853 335 869 m 528 853 q 519 844 528 853 q 488 836 511 836 q 447 853 464 836 q 431 894 431 869 q 448 933 431 917 q 488 950 465 950 q 527 933 510 950 q 544 894 544 917 q 528 853 544 869 m 643 140 q 660 62 643 76 q 713 69 676 47 l 713 49 q 628 0 688 0 q 574 20 596 0 q 553 82 553 40 l 553 138 l 543 138 q 417 26 499 67 q 247 -14 336 -14 q 109 29 163 -14 q 56 157 56 72 q 74 235 56 199 q 118 296 92 271 q 189 342 144 321 q 271 377 233 364 q 367 403 308 390 q 460 421 425 415 q 551 435 494 426 q 510 606 546 553 q 378 660 475 660 q 222 598 275 660 q 200 450 169 536 l 110 422 q 154 624 78 540 q 385 708 231 708 q 585 628 528 708 q 643 367 643 547 l 643 140 m 553 297 l 553 388 q 402 361 471 378 q 274 317 333 344 q 180 249 214 290 q 146 158 146 208 q 271 35 146 35 q 462 108 371 35 q 553 288 553 182 l 553 297 z "},"å":{"ha":740,"x_min":56,"x_max":713,"o":"m 382 792 q 290 821 322 792 q 257 896 257 850 q 290 970 257 940 q 382 1000 324 1000 q 474 970 440 1000 q 507 896 507 940 q 474 821 507 850 q 382 792 440 792 m 438 896 q 438 924 438 896 q 382 951 438 951 q 326 896 326 951 q 382 840 326 840 q 438 896 438 840 m 643 140 q 660 62 643 76 q 713 69 676 47 l 713 49 q 628 0 688 0 q 574 20 596 0 q 553 82 553 40 l 553 138 l 543 138 q 417 26 499 67 q 247 -14 336 -14 q 109 29 163 -14 q 56 157 56 72 q 74 235 56 199 q 118 296 92 271 q 189 342 144 321 q 271 377 233 364 q 367 403 308 390 q 460 421 425 415 q 551 435 494 426 q 510 606 546 553 q 378 660 475 660 q 222 598 275 660 q 200 450 169 536 l 110 422 q 154 624 78 540 q 385 708 231 708 q 585 628 528 708 q 643 367 643 547 l 643 140 m 553 297 l 553 388 q 402 361 471 378 q 274 317 333 344 q 180 249 214 290 q 146 158 146 208 q 271 35 146 35 q 462 108 371 35 q 553 288 553 182 l 553 297 z "},"æ":{"ha":1231,"x_min":56,"x_max":1181,"o":"m 1169 253 q 1109 68 1181 150 q 901 -14 1038 -14 q 684 44 767 -14 q 571 203 601 101 q 448 42 539 97 q 254 -14 357 -14 q 110 28 164 -14 q 56 157 56 71 q 77 245 56 206 q 142 313 99 285 q 227 360 185 340 q 335 394 269 379 q 444 417 401 410 q 551 435 486 425 q 508 601 546 542 q 375 660 471 660 q 221 598 272 660 q 200 450 169 536 l 110 422 q 153 624 78 540 q 382 708 228 708 q 615 560 561 708 q 741 669 663 631 q 914 708 819 708 q 1103 654 1035 708 q 1171 511 1171 600 q 1116 386 1171 435 q 978 324 1061 338 q 806 317 894 311 q 643 349 718 324 l 643 325 q 714 112 643 189 q 888 35 785 35 q 1033 82 976 35 q 1079 225 1089 129 l 1169 253 m 914 660 q 733 588 801 660 q 647 397 664 517 q 974 383 867 347 q 1081 519 1081 419 q 1039 620 1081 581 q 914 660 997 660 m 271 35 q 466 119 379 35 q 553 335 553 204 l 553 388 q 402 361 471 378 q 274 317 333 344 q 180 249 214 290 q 146 158 146 208 q 271 35 146 35 z "},"ç":{"ha":754,"x_min":56,"x_max":704,"o":"m 697 306 q 629 86 704 172 q 428 -12 554 0 l 379 -106 l 390 -106 q 475 -76 429 -76 q 551 -104 519 -76 q 583 -186 583 -132 q 542 -283 583 -247 q 435 -318 501 -318 q 331 -283 374 -318 q 300 -185 289 -249 l 369 -210 q 383 -250 363 -237 q 432 -262 403 -262 q 492 -242 471 -262 q 514 -183 514 -221 q 450 -118 514 -118 q 363 -154 396 -118 l 328 -146 l 361 -12 q 134 100 213 -3 q 56 347 56 203 q 142 604 56 500 q 392 708 228 708 q 607 624 528 708 q 683 403 686 540 l 593 431 q 542 595 600 531 q 392 660 483 660 q 208 572 271 660 q 146 347 146 485 q 208 122 146 210 q 389 35 271 35 q 553 103 486 35 q 607 278 619 171 l 697 306 z "},"è":{"ha":733,"x_min":56,"x_max":683,"o":"m 469 792 q 288 1000 288 842 l 392 972 q 504 813 392 857 l 469 792 m 672 253 q 612 68 683 150 q 404 -14 540 -14 q 142 83 228 -14 q 56 335 56 179 q 158 608 56 507 q 417 708 260 708 q 606 654 538 708 q 674 511 674 600 q 619 386 674 435 q 481 324 564 338 q 309 317 397 311 q 146 349 221 324 l 146 325 q 217 112 146 189 q 390 35 288 35 q 535 82 479 35 q 582 225 592 129 l 672 253 m 417 660 q 235 588 304 660 q 150 397 167 517 q 476 383 369 347 q 583 519 583 419 q 542 620 583 581 q 417 660 500 660 z "},"é":{"ha":733,"x_min":56,"x_max":683,"o":"m 532 1000 q 350 792 532 842 l 315 813 q 428 972 428 857 l 532 1000 m 672 253 q 612 68 683 150 q 404 -14 540 -14 q 142 83 228 -14 q 56 335 56 179 q 158 608 56 507 q 417 708 260 708 q 606 654 538 708 q 674 511 674 600 q 619 386 674 435 q 481 324 564 338 q 309 317 397 311 q 146 349 221 324 l 146 325 q 217 112 146 189 q 390 35 288 35 q 535 82 479 35 q 582 225 592 129 l 672 253 m 417 660 q 235 588 304 660 q 150 397 167 517 q 476 383 369 347 q 583 519 583 419 q 542 620 583 581 q 417 660 500 660 z "},"ê":{"ha":733,"x_min":56,"x_max":683,"o":"m 419 931 q 271 792 379 815 l 250 847 q 379 1000 357 885 l 469 1000 q 597 847 492 885 l 576 792 q 429 931 469 814 l 419 931 m 672 253 q 612 68 683 150 q 404 -14 540 -14 q 142 83 228 -14 q 56 335 56 179 q 158 608 56 507 q 417 708 260 708 q 606 654 538 708 q 674 511 674 600 q 619 386 674 435 q 481 324 564 338 q 309 317 397 311 q 146 349 221 324 l 146 325 q 217 112 146 189 q 390 35 288 35 q 535 82 479 35 q 582 225 592 129 l 672 253 m 417 660 q 235 588 304 660 q 150 397 167 517 q 476 383 369 347 q 583 519 583 419 q 542 620 583 581 q 417 660 500 660 z "},"ë":{"ha":733,"x_min":56,"x_max":683,"o":"m 360 853 q 351 844 360 853 q 319 836 343 836 q 279 853 296 836 q 263 894 263 869 q 280 933 263 917 q 319 950 297 950 q 359 933 342 950 q 376 894 376 917 q 360 853 376 869 m 569 853 q 561 844 569 853 q 529 836 553 836 q 489 853 506 836 q 472 894 472 869 q 490 933 472 917 q 529 950 507 950 q 569 933 551 950 q 586 894 586 917 q 569 853 586 869 m 672 253 q 612 68 683 150 q 404 -14 540 -14 q 142 83 228 -14 q 56 335 56 179 q 158 608 56 507 q 417 708 260 708 q 606 654 538 708 q 674 511 674 600 q 619 386 674 435 q 481 324 564 338 q 309 317 397 311 q 146 349 221 324 l 146 325 q 217 112 146 189 q 390 35 288 35 q 535 82 479 35 q 582 225 592 129 l 672 253 m 417 660 q 235 588 304 660 q 150 397 167 517 q 476 383 369 347 q 583 519 583 419 q 542 620 583 581 q 417 660 500 660 z "},"ì":{"ha":313,"x_min":18,"x_max":271,"o":"m 235 813 l 200 792 q 18 1000 18 842 l 122 972 q 235 813 122 857 m 201 632 l 201 126 q 215 44 201 68 q 271 21 228 21 l 271 0 l 42 0 l 42 21 q 98 44 85 21 q 111 126 111 68 l 111 569 q 98 651 111 628 q 42 674 85 674 l 42 694 l 125 694 q 163 690 149 693 q 189 672 176 686 q 201 632 201 658 z "},"í":{"ha":313,"x_min":42,"x_max":271,"o":"m 46 813 q 158 972 158 857 l 263 1000 q 81 792 263 842 l 46 813 m 201 632 l 201 126 q 215 44 201 68 q 271 21 228 21 l 271 0 l 42 0 l 42 21 q 98 44 85 21 q 111 126 111 68 l 111 569 q 98 651 111 628 q 42 674 85 674 l 42 694 l 125 694 q 163 690 149 693 q 189 672 176 686 q 201 632 201 658 z "},"î":{"ha":313,"x_min":-19,"x_max":328,"o":"m 328 847 l 307 792 q 160 931 200 814 l 150 931 q 1 792 110 815 l -19 847 q 110 1000 88 885 l 200 1000 q 328 847 222 885 m 201 632 l 201 126 q 215 44 201 68 q 271 21 228 21 l 271 0 l 42 0 l 42 21 q 98 44 85 21 q 111 126 111 68 l 111 569 q 98 651 111 628 q 42 674 85 674 l 42 694 l 125 694 q 163 690 149 693 q 189 672 176 686 q 201 632 201 658 z "},"ï":{"ha":313,"x_min":-8,"x_max":315,"o":"m 89 853 q 81 844 89 853 q 49 836 72 836 q 8 853 25 836 q -8 894 -8 869 q 9 933 -8 917 q 49 950 26 950 q 88 933 71 950 q 106 894 106 917 q 89 853 106 869 m 299 853 q 290 844 299 853 q 258 836 282 836 q 218 853 235 836 q 201 894 201 869 q 219 933 201 917 q 258 950 236 950 q 298 933 281 950 q 315 894 315 917 q 299 853 315 869 m 201 632 l 201 126 q 215 44 201 68 q 271 21 228 21 l 271 0 l 42 0 l 42 21 q 98 44 85 21 q 111 126 111 68 l 111 569 q 98 651 111 628 q 42 674 85 674 l 42 694 l 125 694 q 163 690 149 693 q 189 672 176 686 q 201 632 201 658 z "},"ð":{"ha":775,"x_min":56,"x_max":719,"o":"m 542 893 q 719 375 719 743 q 632 85 719 185 q 393 -14 544 -14 q 151 85 247 -14 q 56 361 56 185 q 142 615 56 521 q 374 708 228 708 q 531 659 460 708 q 640 506 603 610 l 650 506 q 481 867 633 757 l 289 788 l 269 832 l 429 899 q 171 951 326 951 l 199 1000 q 496 926 378 1000 l 674 1000 l 693 956 l 542 893 m 429 38 q 594 141 546 49 q 629 368 642 233 q 549 588 615 506 q 357 658 482 669 q 190 554 240 647 q 153 326 140 461 q 235 108 167 190 q 429 38 304 25 z "},"ñ":{"ha":832,"x_min":56,"x_max":776,"o":"m 289 826 l 219 847 q 224 959 197 918 q 306 1000 250 1000 q 377 981 343 1000 q 432 941 411 963 q 477 901 453 919 q 524 882 501 882 q 544 986 583 882 l 614 958 q 610 852 636 892 q 528 813 583 813 q 439 842 479 813 q 368 901 399 872 q 311 931 338 931 q 289 826 250 931 m 707 126 q 720 44 707 68 q 776 21 733 21 l 776 0 l 547 0 l 547 21 q 603 44 590 21 q 617 126 617 68 l 617 443 q 582 605 617 550 q 465 660 547 660 q 344 624 396 660 q 266 526 293 588 q 227 396 239 464 q 215 250 215 328 l 215 126 q 228 44 215 68 q 285 21 242 21 l 285 0 l 56 0 l 56 21 q 112 44 99 21 q 125 126 125 68 l 125 569 q 112 651 125 628 q 56 674 99 674 l 56 694 l 139 694 q 176 690 163 693 q 203 672 190 686 q 215 632 215 658 l 215 485 l 226 485 q 482 708 278 708 q 707 429 707 708 l 707 126 z "},"ò":{"ha":778,"x_min":56,"x_max":722,"o":"m 469 813 l 435 792 q 253 1000 253 842 l 357 972 q 469 813 357 857 m 56 347 q 143 603 56 497 q 389 708 231 708 q 635 603 547 708 q 722 347 722 497 q 635 92 722 199 q 389 -14 547 -14 q 143 92 231 -14 q 56 347 56 199 m 187 556 q 160 510 187 556 q 147 325 133 464 q 231 106 161 186 q 419 38 300 25 q 592 140 539 49 q 632 371 644 232 q 548 589 618 508 q 360 658 478 669 q 187 556 240 647 z "},"ó":{"ha":778,"x_min":56,"x_max":722,"o":"m 281 813 q 393 972 393 857 l 497 1000 q 315 792 497 842 l 281 813 m 56 347 q 143 603 56 497 q 389 708 231 708 q 635 603 547 708 q 722 347 722 497 q 635 92 722 199 q 389 -14 547 -14 q 143 92 231 -14 q 56 347 56 199 m 187 556 q 160 510 187 556 q 147 325 133 464 q 231 106 161 186 q 419 38 300 25 q 592 140 539 49 q 632 371 644 232 q 548 589 618 508 q 360 658 478 669 q 187 556 240 647 z "},"ô":{"ha":778,"x_min":56,"x_max":722,"o":"m 563 847 l 542 792 q 394 931 435 814 l 385 931 q 236 792 344 815 l 215 847 q 344 1000 322 885 l 435 1000 q 563 847 457 885 m 56 347 q 143 603 56 497 q 389 708 231 708 q 635 603 547 708 q 722 347 722 497 q 635 92 722 199 q 389 -14 547 -14 q 143 92 231 -14 q 56 347 56 199 m 187 556 q 160 510 187 556 q 147 325 133 464 q 231 106 161 186 q 419 38 300 25 q 592 140 539 49 q 632 371 644 232 q 548 589 618 508 q 360 658 478 669 q 187 556 240 647 z "},"õ":{"ha":778,"x_min":56,"x_max":722,"o":"m 500 813 q 411 842 451 813 q 340 901 371 872 q 283 931 310 931 q 261 826 222 931 l 192 847 q 196 959 169 918 q 278 1000 222 1000 q 349 981 315 1000 q 404 941 383 963 q 449 901 425 919 q 496 882 474 882 q 517 986 556 882 l 586 958 q 582 852 608 892 q 500 813 556 813 m 56 347 q 143 603 56 497 q 389 708 231 708 q 635 603 547 708 q 722 347 722 497 q 635 92 722 199 q 389 -14 547 -14 q 143 92 231 -14 q 56 347 56 199 m 187 556 q 160 510 187 556 q 147 325 133 464 q 231 106 161 186 q 419 38 300 25 q 592 140 539 49 q 632 371 644 232 q 548 589 618 508 q 360 658 478 669 q 187 556 240 647 z "},"ö":{"ha":778,"x_min":56,"x_max":722,"o":"m 325 853 q 317 844 325 853 q 285 836 308 836 q 244 853 261 836 q 228 894 228 869 q 245 933 228 917 q 285 950 263 950 q 324 933 307 950 q 342 894 342 917 q 325 853 342 869 m 535 853 q 526 844 535 853 q 494 836 518 836 q 454 853 471 836 q 438 894 438 869 q 455 933 438 917 q 494 950 472 950 q 534 933 517 950 q 551 894 551 917 q 535 853 551 869 m 56 347 q 143 603 56 497 q 389 708 231 708 q 635 603 547 708 q 722 347 722 497 q 635 92 722 199 q 389 -14 547 -14 q 143 92 231 -14 q 56 347 56 199 m 187 556 q 160 510 187 556 q 147 325 133 464 q 231 106 161 186 q 419 38 300 25 q 592 140 539 49 q 632 371 644 232 q 548 589 618 508 q 360 658 478 669 q 187 556 240 647 z "},"÷":{"ha":606,"x_min":56,"x_max":550,"o":"m 303 458 q 260 476 276 458 q 244 518 244 493 q 260 558 244 542 q 303 575 276 575 q 344 558 328 575 q 361 518 361 542 q 344 476 361 493 q 303 458 328 458 m 56 382 l 550 382 l 550 313 l 56 313 l 56 382 m 303 119 q 260 137 276 119 q 244 179 244 154 q 260 219 244 203 q 303 236 276 236 q 344 219 328 236 q 361 179 361 203 q 344 137 361 154 q 303 119 328 119 z "},"ø":{"ha":778,"x_min":56,"x_max":722,"o":"m 546 672 q 677 541 632 629 q 722 347 722 453 q 635 92 722 199 q 389 -14 547 -14 q 276 3 326 -14 l 197 -194 l 144 -194 l 232 22 q 101 154 146 67 q 56 347 56 242 q 143 603 56 497 q 389 708 231 708 q 501 692 451 708 l 582 889 l 633 889 l 546 672 m 147 325 q 256 82 163 156 l 481 639 q 360 658 429 665 q 187 556 240 647 q 147 325 133 464 m 419 38 q 592 140 539 49 q 632 371 644 232 q 522 614 614 539 l 297 56 q 419 38 349 31 z "},"ù":{"ha":832,"x_min":57,"x_max":776,"o":"m 463 792 q 281 1000 281 842 l 385 972 q 497 813 385 857 l 463 792 m 776 674 q 720 651 733 674 q 707 569 707 628 l 707 126 q 720 44 707 68 q 776 21 733 21 l 776 0 l 693 0 q 656 5 669 1 q 629 22 642 8 q 617 63 617 36 l 617 210 l 607 210 q 351 -14 553 -14 q 126 265 126 -14 l 126 569 q 113 651 126 628 q 57 674 100 674 l 57 694 l 286 694 l 286 674 q 230 651 243 674 q 217 569 217 628 l 217 251 q 251 90 217 144 q 367 35 285 35 q 488 71 438 35 q 566 169 539 107 q 605 299 593 232 q 617 444 617 367 l 617 569 q 603 651 617 628 q 547 674 590 674 l 547 694 l 776 694 l 776 674 z "},"ú":{"ha":832,"x_min":57,"x_max":776,"o":"m 525 1000 q 343 792 525 842 l 308 813 q 421 972 421 857 l 525 1000 m 776 674 q 720 651 733 674 q 707 569 707 628 l 707 126 q 720 44 707 68 q 776 21 733 21 l 776 0 l 693 0 q 656 5 669 1 q 629 22 642 8 q 617 63 617 36 l 617 210 l 607 210 q 351 -14 553 -14 q 126 265 126 -14 l 126 569 q 113 651 126 628 q 57 674 100 674 l 57 694 l 286 694 l 286 674 q 230 651 243 674 q 217 569 217 628 l 217 251 q 251 90 217 144 q 367 35 285 35 q 488 71 438 35 q 566 169 539 107 q 605 299 593 232 q 617 444 617 367 l 617 569 q 603 651 617 628 q 547 674 590 674 l 547 694 l 776 694 l 776 674 z "},"û":{"ha":832,"x_min":57,"x_max":776,"o":"m 413 931 q 264 792 372 815 l 243 847 q 372 1000 350 885 l 463 1000 q 590 847 485 885 l 569 792 q 422 931 463 814 l 413 931 m 776 674 q 720 651 733 674 q 707 569 707 628 l 707 126 q 720 44 707 68 q 776 21 733 21 l 776 0 l 693 0 q 656 5 669 1 q 629 22 642 8 q 617 63 617 36 l 617 210 l 607 210 q 351 -14 553 -14 q 126 265 126 -14 l 126 569 q 113 651 126 628 q 57 674 100 674 l 57 694 l 286 694 l 286 674 q 230 651 243 674 q 217 569 217 628 l 217 251 q 251 90 217 144 q 367 35 285 35 q 488 71 438 35 q 566 169 539 107 q 605 299 593 232 q 617 444 617 367 l 617 569 q 603 651 617 628 q 547 674 590 674 l 547 694 l 776 694 l 776 674 z "},"ü":{"ha":832,"x_min":57,"x_max":776,"o":"m 351 853 q 343 844 351 853 q 311 836 335 836 q 271 853 288 836 q 254 894 254 869 q 272 933 254 917 q 311 950 289 950 q 351 933 333 950 q 368 894 368 917 q 351 853 368 869 m 561 853 q 553 844 561 853 q 521 836 544 836 q 481 853 497 836 q 464 894 464 869 q 481 933 464 917 q 521 950 499 950 q 560 933 543 950 q 578 894 578 917 q 561 853 578 869 m 776 674 q 720 651 733 674 q 707 569 707 628 l 707 126 q 720 44 707 68 q 776 21 733 21 l 776 0 l 693 0 q 656 5 669 1 q 629 22 642 8 q 617 63 617 36 l 617 210 l 607 210 q 351 -14 553 -14 q 126 265 126 -14 l 126 569 q 113 651 126 628 q 57 674 100 674 l 57 694 l 286 694 l 286 674 q 230 651 243 674 q 217 569 217 628 l 217 251 q 251 90 217 144 q 367 35 285 35 q 488 71 438 35 q 566 169 539 107 q 605 299 593 232 q 617 444 617 367 l 617 569 q 603 651 617 628 q 547 674 590 674 l 547 694 l 776 694 l 776 674 z "},"ý":{"ha":835,"x_min":14,"x_max":821,"o":"m 551 1000 q 369 792 551 842 l 335 813 q 447 972 447 857 l 551 1000 m 821 694 l 821 674 q 740 651 768 674 q 693 578 713 629 l 450 -57 q 428 -111 433 -99 q 410 -156 424 -124 q 388 -199 396 -189 q 363 -231 379 -210 q 333 -258 347 -251 q 297 -271 318 -264 q 253 -278 276 -278 q 124 -212 161 -278 q 128 -42 86 -146 l 218 -69 q 188 -192 175 -156 q 254 -229 201 -229 q 333 -189 303 -229 q 397 -57 363 -149 l 419 0 l 365 0 l 143 578 q 94 651 122 629 q 14 674 67 674 l 14 694 l 333 694 l 333 674 q 231 651 249 674 q 239 578 214 628 l 440 57 l 640 576 q 647 651 664 628 q 546 674 631 674 l 546 694 l 821 694 z "},"þ":{"ha":889,"x_min":56,"x_max":803,"o":"m 713 611 q 758 563 713 611 q 803 347 803 514 q 713 83 803 181 q 483 -14 624 -14 q 328 31 397 -14 q 226 154 260 76 l 215 154 l 215 -181 q 228 -262 215 -239 q 285 -285 242 -285 l 285 -306 l 56 -306 l 56 -285 q 112 -262 99 -285 q 125 -181 125 -239 l 125 875 q 112 956 125 933 q 56 979 99 979 l 56 1000 l 139 1000 q 176 995 163 999 q 203 976 190 992 q 215 931 215 960 l 215 540 l 226 540 q 328 663 260 618 q 483 708 397 708 q 713 611 624 708 m 644 122 q 675 165 644 122 q 706 347 706 208 q 644 573 706 486 q 469 660 582 660 q 288 572 349 660 q 226 347 226 485 q 288 122 226 210 q 469 35 349 35 q 644 122 582 35 z "},"ÿ":{"ha":835,"x_min":14,"x_max":821,"o":"m 379 853 q 371 844 379 853 q 339 836 363 836 q 299 853 315 836 q 282 894 282 869 q 299 933 282 917 q 339 950 317 950 q 378 933 361 950 q 396 894 396 917 q 379 853 396 869 m 589 853 q 581 844 589 853 q 549 836 572 836 q 508 853 525 836 q 492 894 492 869 q 509 933 492 917 q 549 950 526 950 q 588 933 571 950 q 606 894 606 917 q 589 853 606 869 m 821 694 l 821 674 q 740 651 768 674 q 693 578 713 629 l 450 -57 q 428 -111 433 -99 q 410 -156 424 -124 q 388 -199 396 -189 q 363 -231 379 -210 q 333 -258 347 -251 q 297 -271 318 -264 q 253 -278 276 -278 q 124 -212 161 -278 q 128 -42 86 -146 l 218 -69 q 188 -192 175 -156 q 254 -229 201 -229 q 333 -189 303 -229 q 397 -57 363 -149 l 419 0 l 365 0 l 143 578 q 94 651 122 629 q 14 674 67 674 l 14 694 l 333 694 l 333 674 q 231 651 249 674 q 239 578 214 628 l 440 57 l 640 576 q 647 651 664 628 q 546 674 631 674 l 546 694 l 821 694 z "},"Ā":{"ha":1058,"x_min":28,"x_max":1031,"o":"m 713 1143 l 713 1094 l 342 1094 l 342 1143 l 713 1143 m 900 117 q 950 43 922 65 q 1031 21 978 21 l 1031 0 l 711 0 l 711 21 q 813 44 796 21 q 803 117 829 67 l 676 431 l 336 431 l 210 117 q 200 44 183 67 q 301 21 217 21 l 301 0 l 28 0 l 28 21 q 108 43 81 21 q 158 117 136 65 l 438 808 l 438 807 q 449 874 460 853 q 378 896 439 896 l 378 917 l 578 917 l 900 117 m 356 479 l 657 479 l 507 853 l 356 479 m 438 807 l 435 800 l 438 807 z "},"ā":{"ha":740,"x_min":56,"x_max":713,"o":"m 567 921 l 567 872 l 196 872 l 196 921 l 567 921 m 643 140 q 660 62 643 76 q 713 69 676 47 l 713 49 q 628 0 688 0 q 574 20 596 0 q 553 82 553 40 l 553 138 l 543 138 q 417 26 499 67 q 247 -14 336 -14 q 109 29 163 -14 q 56 157 56 72 q 74 235 56 199 q 118 296 92 271 q 189 342 144 321 q 271 377 233 364 q 367 403 308 390 q 460 421 425 415 q 551 435 494 426 q 510 606 546 553 q 378 660 475 660 q 222 598 275 660 q 200 450 169 536 l 110 422 q 154 624 78 540 q 385 708 231 708 q 585 628 528 708 q 643 367 643 547 l 643 140 m 553 297 l 553 388 q 402 361 471 378 q 274 317 333 344 q 180 249 214 290 q 146 158 146 208 q 271 35 146 35 q 462 108 371 35 q 553 288 553 182 l 553 297 z "},"Ă":{"ha":1058,"x_min":28,"x_max":1031,"o":"m 531 1014 q 392 1075 435 1014 q 350 1222 350 1136 l 440 1222 q 465 1101 440 1139 q 551 1063 490 1063 q 631 1101 607 1063 q 656 1222 656 1139 l 704 1222 q 531 1014 704 1014 m 900 117 q 950 43 922 65 q 1031 21 978 21 l 1031 0 l 711 0 l 711 21 q 813 44 796 21 q 803 117 829 67 l 676 431 l 336 431 l 210 117 q 200 44 183 67 q 301 21 217 21 l 301 0 l 28 0 l 28 21 q 108 43 81 21 q 158 117 136 65 l 438 808 l 438 807 q 449 874 460 853 q 378 896 439 896 l 378 917 l 578 917 l 900 117 m 356 479 l 657 479 l 507 853 l 356 479 m 438 807 l 435 800 l 438 807 z "},"ă":{"ha":740,"x_min":56,"x_max":713,"o":"m 386 792 q 248 853 290 792 q 206 1000 206 914 l 296 1000 q 321 878 296 917 q 407 840 346 840 q 487 878 463 840 q 511 1000 511 917 l 560 1000 q 386 792 560 792 m 643 140 q 660 62 643 76 q 713 69 676 47 l 713 49 q 628 0 688 0 q 574 20 596 0 q 553 82 553 40 l 553 138 l 543 138 q 417 26 499 67 q 247 -14 336 -14 q 109 29 163 -14 q 56 157 56 72 q 74 235 56 199 q 118 296 92 271 q 189 342 144 321 q 271 377 233 364 q 367 403 308 390 q 460 421 425 415 q 551 435 494 426 q 510 606 546 553 q 378 660 475 660 q 222 598 275 660 q 200 450 169 536 l 110 422 q 154 624 78 540 q 385 708 231 708 q 585 628 528 708 q 643 367 643 547 l 643 140 m 553 297 l 553 388 q 402 361 471 378 q 274 317 333 344 q 180 249 214 290 q 146 158 146 208 q 271 35 146 35 q 462 108 371 35 q 553 288 553 182 l 553 297 z "},"Ą":{"ha":1058,"x_min":28,"x_max":1031,"o":"m 942 0 q 828 -90 860 -53 q 796 -167 796 -128 q 852 -240 796 -224 q 985 -206 908 -257 l 1008 -247 q 889 -308 958 -297 q 769 -284 819 -318 q 719 -186 719 -250 q 879 -11 719 -85 l 879 0 l 711 0 l 711 21 q 813 44 796 21 q 803 117 829 67 l 676 431 l 336 431 l 210 117 q 200 44 183 67 q 301 21 217 21 l 301 0 l 28 0 l 28 21 q 108 43 81 21 q 158 117 136 65 l 438 808 l 438 807 q 449 874 460 853 q 378 896 439 896 l 378 917 l 578 917 l 900 117 q 950 43 922 65 q 1031 21 978 21 l 1031 0 l 942 0 m 356 479 l 657 479 l 507 853 l 356 479 m 438 807 l 435 800 l 438 807 z "},"ą":{"ha":767,"x_min":56,"x_max":750,"o":"m 726 -206 l 750 -247 q 631 -308 700 -297 q 511 -284 561 -318 q 461 -186 461 -250 q 625 -11 461 -83 l 625 0 q 574 22 594 1 q 553 82 553 42 l 553 138 l 543 138 q 417 26 499 67 q 247 -14 336 -14 q 109 29 163 -14 q 56 157 56 72 q 74 235 56 199 q 118 296 92 271 q 189 342 144 321 q 271 377 233 364 q 367 403 308 390 q 460 421 425 415 q 551 435 494 426 q 510 606 546 553 q 378 660 475 660 q 222 598 275 660 q 200 450 169 536 l 110 422 q 154 624 78 540 q 385 708 231 708 q 585 628 528 708 q 643 367 643 547 l 643 140 q 660 62 643 76 q 713 69 676 47 l 713 49 q 649 -23 694 13 q 570 -92 603 -58 q 538 -167 538 -125 q 593 -240 538 -224 q 726 -206 649 -257 m 553 297 l 553 388 q 402 361 471 378 q 274 317 333 344 q 180 249 214 290 q 146 158 146 208 q 271 35 146 35 q 462 108 371 35 q 553 288 553 182 l 553 297 z "},"Ć":{"ha":864,"x_min":56,"x_max":814,"o":"m 365 1035 q 478 1194 478 1079 l 582 1222 q 400 1014 582 1064 l 365 1035 m 56 458 q 167 806 56 681 q 471 931 278 931 q 722 840 629 931 q 808 590 814 750 l 718 618 q 656 811 728 740 q 471 882 583 882 q 235 769 324 882 q 146 458 146 656 q 228 147 146 258 q 457 35 311 35 q 654 108 581 35 q 718 313 728 181 l 808 340 q 719 78 814 169 q 457 -14 625 -14 q 160 110 265 -14 q 56 458 56 233 z "},"ć":{"ha":754,"x_min":56,"x_max":706,"o":"m 282 813 q 394 972 394 857 l 499 1000 q 317 792 499 842 l 282 813 m 141 90 q 98 142 141 90 q 56 347 56 194 q 142 604 56 500 q 392 708 228 708 q 607 624 528 708 q 683 403 686 540 l 593 431 q 542 595 600 531 q 392 660 483 660 q 208 572 271 660 q 146 347 146 485 q 208 122 146 210 q 389 35 271 35 q 553 103 486 35 q 607 278 619 171 l 697 306 q 618 74 706 161 q 389 -14 531 -14 q 141 90 226 -14 z "},"Ċ":{"ha":864,"x_min":56,"x_max":814,"o":"m 514 1075 q 506 1067 514 1075 q 474 1058 497 1058 q 433 1075 450 1058 q 417 1117 417 1092 q 434 1156 417 1139 q 474 1172 451 1172 q 513 1156 496 1172 q 531 1117 531 1139 q 514 1075 531 1092 m 56 458 q 167 806 56 681 q 471 931 278 931 q 722 840 629 931 q 808 590 814 750 l 718 618 q 656 811 728 740 q 471 882 583 882 q 235 769 324 882 q 146 458 146 656 q 228 147 146 258 q 457 35 311 35 q 654 108 581 35 q 718 313 728 181 l 808 340 q 719 78 814 169 q 457 -14 625 -14 q 160 110 265 -14 q 56 458 56 233 z "},"ċ":{"ha":754,"x_min":56,"x_max":706,"o":"m 431 853 q 422 844 431 853 q 390 836 414 836 q 350 853 367 836 q 333 894 333 869 q 351 933 333 917 q 390 950 368 950 q 430 933 413 950 q 447 894 447 917 q 431 853 447 869 m 141 90 q 98 142 141 90 q 56 347 56 194 q 142 604 56 500 q 392 708 228 708 q 607 624 528 708 q 683 403 686 540 l 593 431 q 542 595 600 531 q 392 660 483 660 q 208 572 271 660 q 146 347 146 485 q 208 122 146 210 q 389 35 271 35 q 553 103 486 35 q 607 278 619 171 l 697 306 q 618 74 706 161 q 389 -14 531 -14 q 141 90 226 -14 z "},"Č":{"ha":864,"x_min":56,"x_max":814,"o":"m 647 1168 q 519 1015 542 1131 l 429 1015 q 300 1168 407 1131 l 321 1224 q 469 1085 429 1200 l 479 1085 q 626 1224 519 1201 l 647 1168 m 56 458 q 167 806 56 681 q 471 931 278 931 q 722 840 629 931 q 808 590 814 750 l 718 618 q 656 811 728 740 q 471 882 583 882 q 235 769 324 882 q 146 458 146 656 q 228 147 146 258 q 457 35 311 35 q 654 108 581 35 q 718 313 728 181 l 808 340 q 719 78 814 169 q 457 -14 625 -14 q 160 110 265 -14 q 56 458 56 233 z "},"č":{"ha":754,"x_min":56,"x_max":706,"o":"m 564 946 q 436 793 458 908 l 346 793 q 217 946 324 908 l 238 1001 q 386 863 346 978 l 396 863 q 543 1001 436 979 l 564 946 m 141 90 q 98 142 141 90 q 56 347 56 194 q 142 604 56 500 q 392 708 228 708 q 607 624 528 708 q 683 403 686 540 l 593 431 q 542 595 600 531 q 392 660 483 660 q 208 572 271 660 q 146 347 146 485 q 208 122 146 210 q 389 35 271 35 q 553 103 486 35 q 607 278 619 171 l 697 306 q 618 74 706 161 q 389 -14 531 -14 q 141 90 226 -14 z "},"Ď":{"ha":906,"x_min":56,"x_max":850,"o":"m 353 1015 q 224 1168 331 1131 l 244 1224 q 393 1085 353 1200 l 403 1085 q 550 1224 443 1201 l 571 1168 q 443 1015 465 1131 l 353 1015 m 404 917 q 511 908 460 917 q 627 871 563 900 q 739 794 692 842 q 818 660 786 747 q 850 458 850 574 q 818 256 850 343 q 739 122 786 169 q 627 46 692 75 q 511 8 563 17 q 404 0 460 0 l 56 0 l 56 21 q 112 44 99 21 q 125 126 125 68 l 125 792 q 112 873 125 850 q 56 896 99 896 l 56 917 l 404 917 m 383 49 q 660 147 560 49 q 760 458 760 246 q 660 769 760 671 q 383 868 560 868 l 215 868 l 215 49 l 383 49 z "},"ď":{"ha":979,"x_min":56,"x_max":951,"o":"m 889 679 q 873 845 885 758 q 861 956 861 932 q 907 1014 861 1014 q 951 956 951 1014 q 940 845 951 932 q 924 679 928 758 l 889 679 m 145 83 q 100 132 145 83 q 56 347 56 181 q 145 611 56 514 q 375 708 235 708 q 530 663 461 708 q 632 540 599 618 l 643 540 l 643 875 q 630 956 643 933 q 574 979 617 979 l 574 1000 l 656 1000 q 694 994 679 999 q 721 973 708 990 q 733 924 733 956 l 733 126 q 747 44 733 68 q 803 21 760 21 l 803 0 l 719 0 q 643 69 643 3 l 643 154 l 632 154 q 530 31 599 76 q 375 -14 461 -14 q 145 83 235 -14 m 215 573 q 184 530 215 573 q 153 347 153 486 q 215 122 153 208 q 389 35 276 35 q 571 122 510 35 q 632 347 632 210 q 571 572 632 485 q 389 660 510 660 q 215 573 276 660 z "},"Đ":{"ha":906,"x_min":42,"x_max":850,"o":"m 404 917 q 511 908 460 917 q 627 871 563 900 q 739 794 692 842 q 818 660 786 747 q 850 458 850 574 q 818 256 850 343 q 739 122 786 169 q 627 46 692 75 q 511 8 563 17 q 404 0 460 0 l 56 0 l 56 21 q 112 44 99 21 q 125 126 125 68 l 125 435 l 42 435 l 42 483 l 125 483 l 125 792 q 112 873 125 850 q 56 896 99 896 l 56 917 l 404 917 m 383 49 q 660 147 560 49 q 760 458 760 246 q 660 769 760 671 q 383 868 560 868 l 215 868 l 215 483 l 431 483 l 431 435 l 215 435 l 215 49 l 383 49 z "},"đ":{"ha":844,"x_min":56,"x_max":810,"o":"m 810 782 l 733 782 l 733 126 q 747 44 733 68 q 803 21 760 21 l 803 0 l 719 0 q 643 69 643 3 l 643 154 l 632 154 q 530 31 599 76 q 375 -14 461 -14 q 145 83 235 -14 q 56 347 56 181 q 145 611 56 514 q 375 708 235 708 q 530 663 461 708 q 632 540 599 618 l 643 540 l 643 782 l 421 782 l 421 831 l 643 831 l 643 875 q 630 956 643 933 q 574 979 617 979 l 574 1000 l 656 1000 q 694 994 679 999 q 721 973 708 990 q 733 924 733 956 l 733 831 l 810 831 l 810 782 m 389 35 q 571 122 510 35 q 632 347 632 210 q 571 572 632 485 q 389 660 510 660 q 215 573 276 660 q 153 347 153 486 q 215 122 153 208 q 389 35 276 35 z "},"Ē":{"ha":756,"x_min":56,"x_max":700,"o":"m 569 1143 l 569 1094 l 199 1094 l 199 1143 l 569 1143 m 679 189 l 700 186 l 676 21 l 674 0 l 56 0 l 56 21 q 112 44 99 21 q 125 126 125 68 l 125 792 q 112 873 125 850 q 56 896 99 896 l 56 917 l 660 917 l 663 896 l 686 731 l 665 728 q 626 840 653 813 q 542 868 599 868 l 215 868 l 215 490 l 436 490 q 517 503 494 490 q 540 560 540 517 l 561 560 l 561 372 l 540 372 q 517 428 540 415 q 436 442 494 442 l 215 442 l 215 49 l 556 49 q 640 76 613 49 q 679 189 667 104 z "},"ē":{"ha":733,"x_min":56,"x_max":683,"o":"m 608 921 l 608 872 l 238 872 l 238 921 l 608 921 m 672 253 q 612 68 683 150 q 404 -14 540 -14 q 142 83 228 -14 q 56 335 56 179 q 158 608 56 507 q 417 708 260 708 q 606 654 538 708 q 674 511 674 600 q 619 386 674 435 q 481 324 564 338 q 309 317 397 311 q 146 349 221 324 l 146 325 q 217 112 146 189 q 390 35 288 35 q 535 82 479 35 q 582 225 592 129 l 672 253 m 417 660 q 235 588 304 660 q 150 397 167 517 q 476 383 369 347 q 583 519 583 419 q 542 620 583 581 q 417 660 500 660 z "},"Ė":{"ha":756,"x_min":56,"x_max":700,"o":"m 425 1075 q 417 1067 425 1075 q 385 1058 408 1058 q 344 1075 361 1058 q 328 1117 328 1092 q 345 1156 328 1139 q 385 1172 363 1172 q 424 1156 407 1172 q 442 1117 442 1139 q 425 1075 442 1092 m 679 189 l 700 186 l 676 21 l 674 0 l 56 0 l 56 21 q 112 44 99 21 q 125 126 125 68 l 125 792 q 112 873 125 850 q 56 896 99 896 l 56 917 l 660 917 l 663 896 l 686 731 l 665 728 q 626 840 653 813 q 542 868 599 868 l 215 868 l 215 490 l 436 490 q 517 503 494 490 q 540 560 540 517 l 561 560 l 561 372 l 540 372 q 517 428 540 415 q 436 442 494 442 l 215 442 l 215 49 l 556 49 q 640 76 613 49 q 679 189 667 104 z "},"ė":{"ha":733,"x_min":56,"x_max":683,"o":"m 464 853 q 456 844 464 853 q 424 836 447 836 q 383 853 400 836 q 367 894 367 869 q 384 933 367 917 q 424 950 401 950 q 463 933 446 950 q 481 894 481 917 q 464 853 481 869 m 672 253 q 612 68 683 150 q 404 -14 540 -14 q 142 83 228 -14 q 56 335 56 179 q 158 608 56 507 q 417 708 260 708 q 606 654 538 708 q 674 511 674 600 q 619 386 674 435 q 481 324 564 338 q 309 317 397 311 q 146 349 221 324 l 146 325 q 217 112 146 189 q 390 35 288 35 q 535 82 479 35 q 582 225 592 129 l 672 253 m 417 660 q 235 588 304 660 q 150 397 167 517 q 476 383 369 347 q 583 519 583 419 q 542 620 583 581 q 417 660 500 660 z "},"Ę":{"ha":756,"x_min":56,"x_max":700,"o":"m 679 189 l 700 186 l 676 21 l 674 0 l 571 0 q 457 -90 489 -53 q 425 -167 425 -128 q 481 -240 425 -224 q 614 -206 536 -257 l 638 -247 q 518 -308 588 -297 q 399 -284 449 -318 q 349 -186 349 -250 q 508 -11 349 -85 l 508 0 l 56 0 l 56 21 q 112 44 99 21 q 125 126 125 68 l 125 792 q 112 873 125 850 q 56 896 99 896 l 56 917 l 660 917 l 663 896 l 686 731 l 665 728 q 626 840 653 813 q 542 868 599 868 l 215 868 l 215 490 l 436 490 q 517 503 494 490 q 540 560 540 517 l 561 560 l 561 372 l 540 372 q 517 428 540 415 q 436 442 494 442 l 215 442 l 215 49 l 556 49 q 640 76 613 49 q 679 189 667 104 z "},"ę":{"ha":733,"x_min":56,"x_max":681,"o":"m 501 0 q 388 -90 419 -53 q 356 -167 356 -128 q 411 -240 356 -224 q 544 -206 467 -257 l 568 -247 q 449 -308 518 -297 q 329 -284 379 -318 q 279 -186 279 -250 q 436 -12 279 -86 q 404 -14 425 -14 q 142 83 228 -14 q 56 335 56 179 q 158 608 56 507 q 417 708 260 708 q 606 654 538 708 q 674 511 674 600 q 619 386 674 435 q 481 324 564 338 q 309 317 397 311 q 146 349 221 324 l 146 325 q 217 112 146 189 q 390 35 288 35 q 535 82 479 35 q 582 225 592 129 l 672 253 q 636 100 681 172 q 501 0 592 28 m 417 660 q 235 588 304 660 q 150 397 167 517 q 476 383 369 347 q 583 519 583 419 q 542 620 583 581 q 417 660 500 660 z "},"Ě":{"ha":756,"x_min":56,"x_max":700,"o":"m 340 1015 q 211 1168 318 1131 l 232 1224 q 381 1085 340 1200 l 390 1085 q 538 1224 431 1201 l 558 1168 q 431 1015 453 1131 l 340 1015 m 679 189 l 700 186 l 676 21 l 674 0 l 56 0 l 56 21 q 112 44 99 21 q 125 126 125 68 l 125 792 q 112 873 125 850 q 56 896 99 896 l 56 917 l 660 917 l 663 896 l 686 731 l 665 728 q 626 840 653 813 q 542 868 599 868 l 215 868 l 215 490 l 436 490 q 517 503 494 490 q 540 560 540 517 l 561 560 l 561 372 l 540 372 q 517 428 540 415 q 436 442 494 442 l 215 442 l 215 49 l 556 49 q 640 76 613 49 q 679 189 667 104 z "},"ě":{"ha":733,"x_min":56,"x_max":683,"o":"m 379 793 q 250 946 357 908 l 271 1001 q 419 863 379 978 l 429 863 q 576 1001 469 979 l 597 946 q 469 793 492 908 l 379 793 m 672 253 q 612 68 683 150 q 404 -14 540 -14 q 142 83 228 -14 q 56 335 56 179 q 158 608 56 507 q 417 708 260 708 q 606 654 538 708 q 674 511 674 600 q 619 386 674 435 q 481 324 564 338 q 309 317 397 311 q 146 349 221 324 l 146 325 q 217 112 146 189 q 390 35 288 35 q 535 82 479 35 q 582 225 592 129 l 672 253 m 417 660 q 235 588 304 660 q 150 397 167 517 q 476 383 369 347 q 583 519 583 419 q 542 620 583 581 q 417 660 500 660 z "},"Ğ":{"ha":971,"x_min":56,"x_max":942,"o":"m 679 1222 q 506 1014 679 1014 q 367 1075 410 1014 q 325 1222 325 1136 l 415 1222 q 440 1101 415 1139 q 526 1063 465 1063 q 606 1101 582 1063 q 631 1222 631 1139 l 679 1222 m 56 458 q 176 800 56 669 q 501 931 296 931 q 765 840 674 931 q 850 597 856 749 l 760 625 q 699 810 771 738 q 501 882 628 882 q 243 772 340 882 q 146 458 146 663 q 245 144 146 253 q 493 35 344 35 q 627 51 571 35 q 756 104 683 67 l 756 314 q 716 400 756 372 q 553 443 676 428 l 556 464 l 796 433 l 826 431 l 942 415 l 940 396 q 863 382 881 403 q 846 303 846 361 l 846 101 q 493 -14 686 -14 q 172 114 288 -14 q 56 458 56 242 z "},"ğ":{"ha":771,"x_min":47,"x_max":764,"o":"m 361 792 q 223 853 265 792 q 181 1000 181 914 l 271 1000 q 296 878 271 917 q 382 840 321 840 q 462 878 438 840 q 486 1000 486 917 l 535 1000 q 361 792 535 792 m 754 610 l 671 582 q 643 660 688 660 q 582 622 604 660 q 643 458 643 554 q 565 278 643 347 q 358 208 488 208 q 218 236 281 208 q 171 163 171 199 q 215 111 171 124 q 378 111 258 99 q 613 90 532 128 q 694 -62 694 51 q 604 -234 694 -176 q 375 -292 514 -292 q 267 -283 317 -292 q 170 -256 217 -275 q 98 -204 124 -236 q 60 -124 72 -172 q 67 -10 47 -75 l 157 -37 q 145 -123 138 -87 q 172 -182 153 -158 q 225 -219 190 -206 q 297 -237 260 -232 q 376 -243 333 -243 q 544 -201 485 -243 q 604 -79 604 -158 q 551 22 604 0 q 378 29 499 43 q 101 131 101 1 q 182 254 101 199 q 74 458 74 325 q 151 639 74 569 q 358 708 229 708 q 554 647 478 708 q 674 708 599 708 q 745 677 726 708 q 754 610 764 646 m 410 264 q 527 344 489 278 q 549 494 565 411 q 469 625 533 578 q 307 654 404 672 q 190 572 228 639 q 168 424 151 506 q 248 292 183 339 q 410 264 313 246 z "},"Ġ":{"ha":971,"x_min":56,"x_max":942,"o":"m 542 1075 q 533 1067 542 1075 q 501 1058 525 1058 q 461 1075 478 1058 q 444 1117 444 1092 q 462 1156 444 1139 q 501 1172 479 1172 q 541 1156 524 1172 q 558 1117 558 1139 q 542 1075 558 1092 m 56 458 q 176 800 56 669 q 501 931 296 931 q 765 840 674 931 q 850 597 856 749 l 760 625 q 699 810 771 738 q 501 882 628 882 q 243 772 340 882 q 146 458 146 663 q 245 144 146 253 q 493 35 344 35 q 627 51 571 35 q 756 104 683 67 l 756 314 q 716 400 756 372 q 553 443 676 428 l 556 464 l 796 433 l 826 431 l 942 415 l 940 396 q 863 382 881 403 q 846 303 846 361 l 846 101 q 493 -14 686 -14 q 172 114 288 -14 q 56 458 56 242 z "},"ġ":{"ha":771,"x_min":47,"x_max":764,"o":"m 399 853 q 390 844 399 853 q 358 836 382 836 q 318 853 335 836 q 301 894 301 869 q 319 933 301 917 q 358 950 336 950 q 398 933 381 950 q 415 894 415 917 q 399 853 415 869 m 754 610 l 671 582 q 643 660 688 660 q 582 622 604 660 q 643 458 643 554 q 565 278 643 347 q 358 208 488 208 q 218 236 281 208 q 171 163 171 199 q 215 111 171 124 q 378 111 258 99 q 613 90 532 128 q 694 -62 694 51 q 604 -234 694 -176 q 375 -292 514 -292 q 267 -283 317 -292 q 170 -256 217 -275 q 98 -204 124 -236 q 60 -124 72 -172 q 67 -10 47 -75 l 157 -37 q 145 -123 138 -87 q 172 -182 153 -158 q 225 -219 190 -206 q 297 -237 260 -232 q 376 -243 333 -243 q 544 -201 485 -243 q 604 -79 604 -158 q 551 22 604 0 q 378 29 499 43 q 101 131 101 1 q 182 254 101 199 q 74 458 74 325 q 151 639 74 569 q 358 708 229 708 q 554 647 478 708 q 674 708 599 708 q 745 677 726 708 q 754 610 764 646 m 410 264 q 527 344 489 278 q 549 494 565 411 q 469 625 533 578 q 307 654 404 672 q 190 572 228 639 q 168 424 151 506 q 248 292 183 339 q 410 264 313 246 z "},"Ģ":{"ha":971,"x_min":56,"x_max":942,"o":"m 56 458 q 176 800 56 669 q 501 931 296 931 q 765 840 674 931 q 850 597 856 749 l 760 625 q 699 810 771 738 q 501 882 628 882 q 243 772 340 882 q 146 458 146 663 q 245 144 146 253 q 493 35 344 35 q 627 51 571 35 q 756 104 683 67 l 756 314 q 716 400 756 372 q 553 443 676 428 l 556 464 l 796 433 l 826 431 l 942 415 l 940 396 q 863 382 881 403 q 846 303 846 361 l 846 101 q 493 -14 686 -14 q 172 114 288 -14 q 56 458 56 242 m 436 -307 q 517 -239 511 -285 q 479 -251 504 -251 q 442 -233 456 -251 q 429 -189 429 -215 q 447 -146 429 -164 q 492 -128 464 -128 q 540 -148 521 -128 q 558 -210 558 -168 q 442 -342 558 -301 l 436 -307 z "},"ģ":{"ha":771,"x_min":47,"x_max":764,"o":"m 360 829 q 312 849 331 829 q 293 911 293 869 q 410 1043 293 1010 l 415 1015 q 335 940 338 992 q 372 953 347 953 q 409 935 396 953 q 422 890 422 917 q 405 847 422 865 q 360 829 388 829 m 754 610 l 671 582 q 643 660 688 660 q 582 622 604 660 q 643 458 643 554 q 565 278 643 347 q 358 208 488 208 q 218 236 281 208 q 171 163 171 199 q 215 111 171 124 q 378 111 258 99 q 613 90 532 128 q 694 -62 694 51 q 604 -234 694 -176 q 375 -292 514 -292 q 267 -283 317 -292 q 170 -256 217 -275 q 98 -204 124 -236 q 60 -124 72 -172 q 67 -10 47 -75 l 157 -37 q 145 -123 138 -87 q 172 -182 153 -158 q 225 -219 190 -206 q 297 -237 260 -232 q 376 -243 333 -243 q 544 -201 485 -243 q 604 -79 604 -158 q 551 22 604 0 q 378 29 499 43 q 101 131 101 1 q 182 254 101 199 q 74 458 74 325 q 151 639 74 569 q 358 708 229 708 q 554 647 478 708 q 674 708 599 708 q 745 677 726 708 q 754 610 764 646 m 410 264 q 527 344 489 278 q 549 494 565 411 q 469 625 533 578 q 307 654 404 672 q 190 572 228 639 q 168 424 151 506 q 248 292 183 339 q 410 264 313 246 z "},"Ħ":{"ha":972,"x_min":56,"x_max":917,"o":"m 917 896 q 860 873 874 896 q 847 792 847 850 l 847 740 l 917 740 l 917 692 l 847 692 l 847 126 q 860 44 847 68 q 917 21 874 21 l 917 0 l 688 0 l 688 21 q 744 44 731 21 q 757 126 757 68 l 757 475 l 215 475 l 215 126 q 228 44 215 68 q 285 21 242 21 l 285 0 l 56 0 l 56 21 q 112 44 99 21 q 125 126 125 68 l 125 692 l 56 692 l 56 740 l 125 740 l 125 792 q 112 873 125 850 q 56 896 99 896 l 56 917 l 285 917 l 285 896 q 228 873 242 896 q 215 792 215 850 l 215 740 l 757 740 l 757 792 q 744 873 757 850 q 688 896 731 896 l 688 917 l 917 917 l 917 896 m 757 524 l 757 692 l 215 692 l 215 524 l 757 524 z "},"ħ":{"ha":832,"x_min":42,"x_max":776,"o":"m 707 126 q 720 44 707 68 q 776 21 733 21 l 776 0 l 547 0 l 547 21 q 603 44 590 21 q 617 126 617 68 l 617 443 q 582 605 617 550 q 465 660 547 660 q 344 624 396 660 q 266 526 293 588 q 227 396 239 464 q 215 250 215 328 l 215 126 q 228 44 215 68 q 285 21 242 21 l 285 0 l 56 0 l 56 21 q 112 44 99 21 q 125 126 125 68 l 125 782 l 42 782 l 42 831 l 125 831 l 125 875 q 112 956 125 933 q 56 979 99 979 l 56 1000 l 139 1000 q 176 994 163 999 q 203 973 190 990 q 215 924 215 956 l 215 831 l 431 831 l 431 782 l 215 782 l 215 485 l 226 485 q 482 708 278 708 q 707 429 707 708 l 707 126 z "},"Ī":{"ha":340,"x_min":-17,"x_max":354,"o":"m -17 1143 l 354 1143 l 354 1094 l -17 1094 l -17 1143 m 56 0 l 56 21 q 112 44 99 21 q 125 126 125 68 l 125 792 q 112 873 125 850 q 56 896 99 896 l 56 917 l 285 917 l 285 896 q 228 873 242 896 q 215 792 215 850 l 215 126 q 228 44 215 68 q 285 21 242 21 l 285 0 l 56 0 z "},"ī":{"ha":313,"x_min":-32,"x_max":339,"o":"m -32 921 l 339 921 l 339 872 l -32 872 l -32 921 m 201 632 l 201 126 q 215 44 201 68 q 271 21 228 21 l 271 0 l 42 0 l 42 21 q 98 44 85 21 q 111 126 111 68 l 111 569 q 98 651 111 628 q 42 674 85 674 l 42 694 l 125 694 q 163 690 149 693 q 189 672 176 686 q 201 632 201 658 z "},"Į":{"ha":340,"x_min":56,"x_max":351,"o":"m 328 -206 l 351 -247 q 232 -308 301 -297 q 113 -284 163 -318 q 63 -186 63 -250 q 222 -11 63 -85 l 222 0 l 56 0 l 56 21 q 112 44 99 21 q 125 126 125 68 l 125 792 q 112 873 125 850 q 56 896 99 896 l 56 917 l 285 917 l 285 896 q 228 873 242 896 q 215 792 215 850 l 215 126 q 228 44 215 68 q 285 21 242 21 l 285 0 q 171 -90 203 -53 q 139 -167 139 -128 q 194 -240 139 -224 q 328 -206 250 -257 z "},"į":{"ha":313,"x_min":42,"x_max":338,"o":"m 194 853 q 186 844 194 853 q 154 836 178 836 q 114 853 131 836 q 97 894 97 869 q 115 933 97 917 q 154 950 132 950 q 194 933 176 950 q 211 894 211 917 q 194 853 211 869 m 314 -206 l 338 -247 q 218 -308 288 -297 q 99 -284 149 -318 q 49 -186 49 -250 q 208 -11 49 -85 l 208 0 l 42 0 l 42 21 q 98 44 85 21 q 111 126 111 68 l 111 569 q 98 651 111 628 q 42 674 85 674 l 42 694 l 125 694 q 163 690 149 693 q 189 672 176 686 q 201 632 201 658 l 201 126 q 215 44 201 68 q 271 21 228 21 l 271 0 q 157 -90 189 -53 q 125 -167 125 -128 q 181 -240 125 -224 q 314 -206 236 -257 z "},"İ":{"ha":340,"x_min":56,"x_max":285,"o":"m 211 1075 q 203 1067 211 1075 q 171 1058 194 1058 q 131 1075 147 1058 q 114 1117 114 1092 q 131 1156 114 1139 q 171 1172 149 1172 q 210 1156 193 1172 q 228 1117 228 1139 q 211 1075 228 1092 m 56 0 l 56 21 q 112 44 99 21 q 125 126 125 68 l 125 792 q 112 873 125 850 q 56 896 99 896 l 56 917 l 285 917 l 285 896 q 228 873 242 896 q 215 792 215 850 l 215 126 q 228 44 215 68 q 285 21 242 21 l 285 0 l 56 0 z "},"ı":{"ha":313,"x_min":42,"x_max":271,"o":"m 201 632 l 201 126 q 215 44 201 68 q 271 21 228 21 l 271 0 l 42 0 l 42 21 q 98 44 85 21 q 111 126 111 68 l 111 569 q 98 651 111 628 q 42 674 85 674 l 42 694 l 125 694 q 163 690 149 693 q 189 672 176 686 q 201 632 201 658 z "},"Ķ":{"ha":864,"x_min":56,"x_max":850,"o":"m 660 231 q 745 65 710 110 q 850 21 781 21 l 850 0 q 676 35 722 0 q 579 192 629 71 q 553 258 568 217 q 528 322 538 300 q 504 375 519 344 q 472 422 489 406 q 431 455 456 438 q 372 479 406 472 q 296 486 339 486 l 215 407 l 215 126 q 228 44 215 68 q 285 21 242 21 l 285 0 l 56 0 l 56 21 q 112 44 99 21 q 125 126 125 68 l 125 792 q 112 873 125 850 q 56 896 99 896 l 56 917 l 285 917 l 285 896 q 228 873 242 896 q 215 792 215 850 l 215 475 l 581 829 q 620 881 625 867 q 532 896 615 896 l 532 917 l 821 917 l 821 896 q 647 829 715 896 l 350 539 l 350 531 q 431 522 394 531 q 495 492 467 514 q 545 449 524 471 q 588 386 567 426 q 624 315 610 346 q 660 231 638 285 m 451 -128 q 499 -148 481 -128 q 518 -210 518 -168 q 401 -342 518 -301 l 396 -307 q 476 -239 471 -285 q 439 -251 464 -251 q 402 -233 415 -251 q 389 -189 389 -215 q 406 -146 389 -164 q 451 -128 424 -128 z "},"ķ":{"ha":906,"x_min":56,"x_max":765,"o":"m 592 231 q 665 66 632 111 q 765 21 699 21 l 765 0 q 597 37 644 0 q 507 199 550 74 q 427 347 469 306 q 306 388 385 388 l 215 310 l 215 126 q 228 44 215 68 q 285 21 242 21 l 285 0 l 56 0 l 56 21 q 112 44 99 21 q 125 126 125 68 l 125 875 q 112 956 125 933 q 56 979 99 979 l 56 1000 l 139 1000 q 176 994 163 999 q 203 973 190 990 q 215 924 215 956 l 215 374 l 494 613 q 519 634 514 629 q 534 649 525 639 q 539 662 543 660 q 527 668 535 664 q 501 673 519 672 q 451 674 482 674 l 451 694 l 733 694 l 733 674 q 568 613 640 674 l 368 440 l 368 432 q 592 231 522 432 m 442 -128 q 490 -148 471 -128 q 508 -210 508 -168 q 392 -342 508 -301 l 386 -307 q 467 -239 461 -285 q 429 -251 454 -251 q 392 -233 406 -251 q 379 -189 379 -215 q 397 -146 379 -164 q 442 -128 414 -128 z "},"Ĺ":{"ha":742,"x_min":56,"x_max":700,"o":"m 279 1222 q 97 1014 279 1064 l 63 1035 q 175 1194 175 1079 l 279 1222 m 679 189 l 700 186 l 676 21 l 674 0 l 56 0 l 56 21 q 112 44 99 21 q 125 126 125 68 l 125 792 q 112 873 125 850 q 56 896 99 896 l 56 917 l 285 917 l 285 896 q 228 873 242 896 q 215 792 215 850 l 215 49 l 556 49 q 640 76 613 49 q 679 189 667 104 z "},"ĺ":{"ha":326,"x_min":53,"x_max":285,"o":"m 53 1118 q 165 1278 165 1163 l 269 1306 q 88 1097 269 1147 l 53 1118 m 215 924 l 215 126 q 228 44 215 68 q 285 21 242 21 l 285 0 l 56 0 l 56 21 q 112 44 99 21 q 125 126 125 68 l 125 875 q 112 956 125 933 q 56 979 99 979 l 56 1000 l 139 1000 q 176 994 163 999 q 203 973 190 990 q 215 924 215 956 z "},"Ļ":{"ha":742,"x_min":56,"x_max":700,"o":"m 679 189 l 700 186 l 676 21 l 674 0 l 56 0 l 56 21 q 112 44 99 21 q 125 126 125 68 l 125 792 q 112 873 125 850 q 56 896 99 896 l 56 917 l 285 917 l 285 896 q 228 873 242 896 q 215 792 215 850 l 215 49 l 556 49 q 640 76 613 49 q 679 189 667 104 m 375 -128 q 423 -148 404 -128 q 442 -210 442 -168 q 325 -342 442 -301 l 319 -307 q 400 -239 394 -285 q 363 -251 388 -251 q 326 -233 339 -251 q 313 -189 313 -215 q 330 -146 313 -164 q 375 -128 347 -128 z "},"ļ":{"ha":326,"x_min":56,"x_max":285,"o":"m 215 924 l 215 126 q 228 44 215 68 q 285 21 242 21 l 285 0 l 56 0 l 56 21 q 112 44 99 21 q 125 126 125 68 l 125 875 q 112 956 125 933 q 56 979 99 979 l 56 1000 l 139 1000 q 176 994 163 999 q 203 973 190 990 q 215 924 215 956 m 113 -307 q 193 -239 188 -285 q 156 -251 181 -251 q 119 -233 132 -251 q 106 -189 106 -215 q 123 -146 106 -164 q 168 -128 140 -128 q 216 -148 197 -128 q 235 -210 235 -168 q 118 -342 235 -301 l 113 -307 z "},"Ľ":{"ha":742,"x_min":-4,"x_max":700,"o":"m 125 1015 q -4 1168 103 1131 l 17 1224 q 165 1085 125 1200 l 175 1085 q 322 1224 215 1201 l 343 1168 q 215 1015 238 1131 l 125 1015 m 679 189 l 700 186 l 676 21 l 674 0 l 56 0 l 56 21 q 112 44 99 21 q 125 126 125 68 l 125 792 q 112 873 125 850 q 56 896 99 896 l 56 917 l 285 917 l 285 896 q 228 873 242 896 q 215 792 215 850 l 215 49 l 556 49 q 640 76 613 49 q 679 189 667 104 z "},"ľ":{"ha":326,"x_min":-12,"x_max":335,"o":"m 335 1251 q 207 1099 229 1214 l 117 1099 q -12 1251 94 1214 l 8 1307 q 157 1168 117 1283 l 167 1168 q 314 1307 207 1285 l 335 1251 m 215 924 l 215 126 q 228 44 215 68 q 285 21 242 21 l 285 0 l 56 0 l 56 21 q 112 44 99 21 q 125 126 125 68 l 125 875 q 112 956 125 933 q 56 979 99 979 l 56 1000 l 139 1000 q 176 994 163 999 q 203 973 190 990 q 215 924 215 956 z "},"Ł":{"ha":781,"x_min":56,"x_max":700,"o":"m 679 189 l 700 186 l 676 21 l 674 0 l 56 0 l 56 21 q 112 44 99 21 q 125 126 125 68 l 125 554 l 56 535 l 56 585 l 125 604 l 125 792 q 112 873 125 850 q 56 896 99 896 l 56 917 l 285 917 l 285 896 q 228 873 242 896 q 215 792 215 850 l 215 628 l 461 694 l 461 644 l 215 578 l 215 49 l 556 49 q 640 76 613 49 q 679 189 667 104 z "},"ł":{"ha":375,"x_min":28,"x_max":347,"o":"m 347 635 l 215 593 l 215 126 q 228 44 215 68 q 285 21 242 21 l 285 0 l 56 0 l 56 21 q 112 44 99 21 q 125 126 125 68 l 125 565 l 28 535 l 28 594 l 125 625 l 125 875 q 112 956 125 933 q 56 979 99 979 l 56 1000 l 139 1000 q 176 994 163 999 q 203 973 190 990 q 215 924 215 956 l 215 653 l 347 694 l 347 635 z "},"Ń":{"ha":985,"x_min":56,"x_max":929,"o":"m 385 1035 q 497 1194 497 1079 l 601 1222 q 419 1014 601 1064 l 385 1035 m 56 0 l 56 21 q 112 44 99 21 q 125 126 125 68 l 125 792 q 112 873 125 850 q 56 896 99 896 l 56 917 l 139 917 q 206 900 182 915 q 268 836 231 885 l 811 107 l 811 792 q 798 873 811 850 q 742 896 785 896 l 742 917 l 929 917 l 929 896 q 873 873 886 896 q 860 792 860 850 l 860 0 q 782 15 808 0 q 717 82 756 29 l 174 811 l 174 126 q 187 44 174 68 q 243 21 200 21 l 243 0 l 56 0 z "},"ń":{"ha":832,"x_min":56,"x_max":776,"o":"m 525 1000 q 343 792 525 842 l 308 813 q 421 972 421 857 l 525 1000 m 707 126 q 720 44 707 68 q 776 21 733 21 l 776 0 l 547 0 l 547 21 q 603 44 590 21 q 617 126 617 68 l 617 443 q 582 605 617 550 q 465 660 547 660 q 344 624 396 660 q 266 526 293 588 q 227 396 239 464 q 215 250 215 328 l 215 126 q 228 44 215 68 q 285 21 242 21 l 285 0 l 56 0 l 56 21 q 112 44 99 21 q 125 126 125 68 l 125 569 q 112 651 125 628 q 56 674 99 674 l 56 694 l 139 694 q 176 690 163 693 q 203 672 190 686 q 215 632 215 658 l 215 485 l 226 485 q 482 708 278 708 q 707 429 707 708 l 707 126 z "},"Ņ":{"ha":985,"x_min":56,"x_max":929,"o":"m 56 0 l 56 21 q 112 44 99 21 q 125 126 125 68 l 125 792 q 112 873 125 850 q 56 896 99 896 l 56 917 l 139 917 q 206 900 182 915 q 268 836 231 885 l 811 107 l 811 792 q 798 873 811 850 q 742 896 785 896 l 742 917 l 929 917 l 929 896 q 873 873 886 896 q 860 792 860 850 l 860 0 q 782 15 808 0 q 717 82 756 29 l 174 811 l 174 126 q 187 44 174 68 q 243 21 200 21 l 243 0 l 56 0 m 436 -307 q 517 -239 511 -285 q 479 -251 504 -251 q 442 -233 456 -251 q 429 -189 429 -215 q 447 -146 429 -164 q 492 -128 464 -128 q 540 -148 521 -128 q 558 -210 558 -168 q 442 -342 558 -301 l 436 -307 z "},"ņ":{"ha":832,"x_min":56,"x_max":776,"o":"m 707 126 q 720 44 707 68 q 776 21 733 21 l 776 0 l 547 0 l 547 21 q 603 44 590 21 q 617 126 617 68 l 617 443 q 582 605 617 550 q 465 660 547 660 q 344 624 396 660 q 266 526 293 588 q 227 396 239 464 q 215 250 215 328 l 215 126 q 228 44 215 68 q 285 21 242 21 l 285 0 l 56 0 l 56 21 q 112 44 99 21 q 125 126 125 68 l 125 569 q 112 651 125 628 q 56 674 99 674 l 56 694 l 139 694 q 176 690 163 693 q 203 672 190 686 q 215 632 215 658 l 215 485 l 226 485 q 482 708 278 708 q 707 429 707 708 l 707 126 m 414 -128 q 462 -148 443 -128 q 481 -210 481 -168 q 364 -342 481 -301 l 358 -307 q 439 -239 433 -285 q 401 -251 426 -251 q 365 -233 378 -251 q 351 -189 351 -215 q 369 -146 351 -164 q 414 -128 386 -128 z "},"Ň":{"ha":985,"x_min":56,"x_max":929,"o":"m 667 1168 q 539 1015 561 1131 l 449 1015 q 319 1168 426 1131 l 340 1224 q 489 1085 449 1200 l 499 1085 q 646 1224 539 1201 l 667 1168 m 56 0 l 56 21 q 112 44 99 21 q 125 126 125 68 l 125 792 q 112 873 125 850 q 56 896 99 896 l 56 917 l 139 917 q 206 900 182 915 q 268 836 231 885 l 811 107 l 811 792 q 798 873 811 850 q 742 896 785 896 l 742 917 l 929 917 l 929 896 q 873 873 886 896 q 860 792 860 850 l 860 0 q 782 15 808 0 q 717 82 756 29 l 174 811 l 174 126 q 187 44 174 68 q 243 21 200 21 l 243 0 l 56 0 z "},"ň":{"ha":832,"x_min":56,"x_max":776,"o":"m 372 793 q 243 946 350 908 l 264 1001 q 413 863 372 978 l 422 863 q 569 1001 463 979 l 590 946 q 463 793 485 908 l 372 793 m 707 126 q 720 44 707 68 q 776 21 733 21 l 776 0 l 547 0 l 547 21 q 603 44 590 21 q 617 126 617 68 l 617 443 q 582 605 617 550 q 465 660 547 660 q 344 624 396 660 q 266 526 293 588 q 227 396 239 464 q 215 250 215 328 l 215 126 q 228 44 215 68 q 285 21 242 21 l 285 0 l 56 0 l 56 21 q 112 44 99 21 q 125 126 125 68 l 125 569 q 112 651 125 628 q 56 674 99 674 l 56 694 l 139 694 q 176 690 163 693 q 203 672 190 686 q 215 632 215 658 l 215 485 l 226 485 q 482 708 278 708 q 707 429 707 708 l 707 126 z "},"Ŋ":{"ha":985,"x_min":56,"x_max":929,"o":"m 929 917 l 929 896 q 873 873 886 896 q 860 792 860 850 l 860 0 q 675 -292 860 -292 q 561 -264 625 -292 l 589 -215 q 674 -243 635 -243 q 753 -197 721 -243 q 783 -80 785 -150 q 743 50 782 -10 q 717 82 736 57 l 174 811 l 174 126 q 187 44 174 68 q 243 21 200 21 l 243 0 l 56 0 l 56 21 q 112 44 99 21 q 125 126 125 68 l 125 792 q 112 873 125 850 q 56 896 99 896 l 56 917 l 139 917 q 206 900 182 915 q 268 836 231 885 l 811 107 l 811 792 q 798 873 811 850 q 742 896 785 896 l 742 917 l 929 917 z "},"ŋ":{"ha":763,"x_min":56,"x_max":707,"o":"m 482 708 q 707 429 707 708 l 707 0 q 662 -224 707 -157 q 529 -292 617 -292 q 415 -264 475 -292 l 443 -215 q 522 -243 489 -243 q 583 -208 561 -243 q 610 -124 604 -172 q 617 0 617 -75 l 617 443 q 582 605 617 550 q 465 660 547 660 q 344 624 396 660 q 266 526 293 588 q 227 396 239 464 q 215 250 215 328 l 215 126 q 228 44 215 68 q 285 21 242 21 l 285 0 l 56 0 l 56 21 q 112 44 99 21 q 125 126 125 68 l 125 569 q 112 651 125 628 q 56 674 99 674 l 56 694 l 139 694 q 176 690 163 693 q 203 672 190 686 q 215 632 215 658 l 215 485 l 226 485 q 482 708 278 708 z "},"Ō":{"ha":958,"x_min":56,"x_max":903,"o":"m 293 1143 l 664 1143 l 664 1094 l 293 1094 l 293 1143 m 170 119 q 113 185 170 119 q 56 458 56 251 q 170 798 56 665 q 479 931 285 931 q 788 798 674 931 q 903 458 903 665 q 788 119 903 251 q 479 -14 674 -14 q 170 119 285 -14 m 149 428 q 267 130 167 236 q 528 39 368 24 q 753 176 676 53 q 811 490 831 300 q 691 788 792 682 q 432 879 590 894 q 206 742 283 865 q 149 428 129 618 z "},"ō":{"ha":778,"x_min":56,"x_max":722,"o":"m 203 921 l 574 921 l 574 872 l 203 872 l 203 921 m 56 347 q 143 603 56 497 q 389 708 231 708 q 635 603 547 708 q 722 347 722 497 q 635 92 722 199 q 389 -14 547 -14 q 143 92 231 -14 q 56 347 56 199 m 187 556 q 160 510 187 556 q 147 325 133 464 q 231 106 161 186 q 419 38 300 25 q 592 140 539 49 q 632 371 644 232 q 548 589 618 508 q 360 658 478 669 q 187 556 240 647 z "},"Ő":{"ha":958,"x_min":56,"x_max":903,"o":"m 503 1063 q 615 1222 615 1107 l 719 1250 q 538 1042 719 1092 l 503 1063 m 308 1035 q 421 1194 421 1079 l 525 1222 q 343 1014 525 1064 l 308 1035 m 170 119 q 113 185 170 119 q 56 458 56 251 q 170 798 56 665 q 479 931 285 931 q 788 798 674 931 q 903 458 903 665 q 788 119 903 251 q 479 -14 674 -14 q 170 119 285 -14 m 149 428 q 267 130 167 236 q 528 39 368 24 q 753 176 676 53 q 811 490 831 300 q 691 788 792 682 q 432 879 590 894 q 206 742 283 865 q 149 428 129 618 z "},"ő":{"ha":778,"x_min":56,"x_max":722,"o":"m 413 840 q 525 1000 525 885 l 629 1028 q 447 819 629 869 l 413 840 m 218 813 q 331 972 331 857 l 435 1000 q 253 792 435 842 l 218 813 m 56 347 q 143 603 56 497 q 389 708 231 708 q 635 603 547 708 q 722 347 722 497 q 635 92 722 199 q 389 -14 547 -14 q 143 92 231 -14 q 56 347 56 199 m 187 556 q 160 510 187 556 q 147 325 133 464 q 231 106 161 186 q 419 38 300 25 q 592 140 539 49 q 632 371 644 232 q 548 589 618 508 q 360 658 478 669 q 187 556 240 647 z "},"Œ":{"ha":1450,"x_min":56,"x_max":1394,"o":"m 1374 189 l 1394 186 l 1371 21 l 1368 0 l 819 0 l 819 160 q 479 -14 704 -14 q 170 119 285 -14 q 56 458 56 251 q 170 798 56 665 q 479 931 285 931 q 819 757 704 931 l 819 917 l 1354 917 l 1357 896 l 1381 731 l 1360 728 q 1320 840 1347 813 q 1235 868 1293 868 l 910 868 l 910 490 l 1129 490 q 1211 503 1188 490 q 1235 560 1235 517 l 1256 560 l 1256 476 l 1254 454 l 1256 372 l 1235 372 q 1211 428 1235 415 q 1129 442 1188 442 l 910 442 l 910 49 l 1249 49 q 1334 76 1307 49 q 1374 189 1361 104 m 528 39 q 753 176 676 53 q 811 490 831 300 q 691 788 792 682 q 432 879 590 894 q 206 742 283 865 q 149 428 129 618 q 267 130 167 236 q 528 39 368 24 z "},"œ":{"ha":1314,"x_min":56,"x_max":1264,"o":"m 1253 253 q 1192 68 1264 150 q 985 -14 1121 -14 q 675 151 758 -14 q 389 -14 585 -14 q 143 92 231 -14 q 56 347 56 199 q 143 603 56 497 q 389 708 231 708 q 682 531 594 708 q 810 663 728 617 q 997 708 893 708 q 1186 654 1118 708 q 1254 511 1254 600 q 1199 386 1254 435 q 1061 324 1144 338 q 890 317 978 311 q 726 349 801 324 l 726 325 q 797 112 726 189 q 971 35 868 35 q 1116 82 1060 35 q 1163 225 1172 129 l 1253 253 m 419 38 q 592 140 539 49 q 632 371 644 232 q 548 589 618 508 q 360 658 478 669 q 187 556 240 647 q 147 325 133 464 q 231 106 161 186 q 419 38 300 25 m 997 660 q 816 588 885 660 q 731 397 747 517 q 1057 383 950 347 q 1164 519 1164 419 q 1122 620 1164 581 q 997 660 1081 660 z "},"Ŕ":{"ha":864,"x_min":56,"x_max":850,"o":"m 485 1222 q 303 1014 485 1064 l 268 1035 q 381 1194 381 1079 l 485 1222 m 636 274 q 724 76 671 131 q 850 21 776 21 l 850 0 q 767 3 800 0 q 697 21 733 7 q 637 60 661 35 q 590 128 613 85 q 553 235 568 172 q 447 438 514 388 q 233 488 381 488 l 215 488 l 215 126 q 228 44 215 68 q 285 21 242 21 l 285 0 l 56 0 l 56 21 q 112 44 99 21 q 125 126 125 68 l 125 792 q 112 873 125 850 q 56 896 99 896 l 56 917 l 363 917 q 440 915 407 917 q 520 900 472 913 q 599 866 568 888 q 653 802 631 844 q 676 700 676 760 q 482 493 676 519 q 636 274 594 438 m 215 536 l 383 536 q 586 700 586 536 q 383 868 586 868 l 215 868 l 215 536 z "},"ŕ":{"ha":676,"x_min":56,"x_max":656,"o":"m 451 1000 q 269 792 451 842 l 235 813 q 347 972 347 857 l 451 1000 m 479 708 q 621 634 586 708 q 606 422 656 560 l 515 450 q 461 660 601 660 q 330 597 388 660 q 244 441 272 533 q 215 250 215 349 l 215 126 q 228 44 215 68 q 285 21 242 21 l 285 0 l 56 0 l 56 21 q 112 44 99 21 q 125 126 125 68 l 125 569 q 112 651 125 628 q 56 674 99 674 l 56 694 l 139 694 q 176 690 163 693 q 203 672 190 686 q 215 632 215 658 l 215 478 l 226 478 q 256 559 238 521 q 305 632 275 597 q 379 688 335 667 q 479 708 424 708 z "},"Ŗ":{"ha":864,"x_min":56,"x_max":850,"o":"m 636 274 q 724 76 671 131 q 850 21 776 21 l 850 0 q 767 3 800 0 q 697 21 733 7 q 637 60 661 35 q 590 128 613 85 q 553 235 568 172 q 447 438 514 388 q 233 488 381 488 l 215 488 l 215 126 q 228 44 215 68 q 285 21 242 21 l 285 0 l 56 0 l 56 21 q 112 44 99 21 q 125 126 125 68 l 125 792 q 112 873 125 850 q 56 896 99 896 l 56 917 l 363 917 q 440 915 407 917 q 520 900 472 913 q 599 866 568 888 q 653 802 631 844 q 676 700 676 760 q 482 493 676 519 q 636 274 594 438 m 215 536 l 383 536 q 586 700 586 536 q 383 868 586 868 l 215 868 l 215 536 m 444 -128 q 492 -148 474 -128 q 511 -210 511 -168 q 394 -342 511 -301 l 389 -307 q 469 -239 464 -285 q 432 -251 457 -251 q 395 -233 408 -251 q 382 -189 382 -215 q 399 -146 382 -164 q 444 -128 417 -128 z "},"ŗ":{"ha":676,"x_min":56,"x_max":656,"o":"m 479 708 q 621 634 586 708 q 606 422 656 560 l 515 450 q 461 660 601 660 q 330 597 388 660 q 244 441 272 533 q 215 250 215 349 l 215 126 q 228 44 215 68 q 285 21 242 21 l 285 0 l 56 0 l 56 21 q 112 44 99 21 q 125 126 125 68 l 125 569 q 112 651 125 628 q 56 674 99 674 l 56 694 l 139 694 q 176 690 163 693 q 203 672 190 686 q 215 632 215 658 l 215 478 l 226 478 q 256 559 238 521 q 305 632 275 597 q 379 688 335 667 q 479 708 424 708 m 175 -128 q 223 -148 204 -128 q 242 -210 242 -168 q 125 -342 242 -301 l 119 -307 q 200 -239 194 -285 q 163 -251 188 -251 q 126 -233 139 -251 q 113 -189 113 -215 q 130 -146 113 -164 q 175 -128 147 -128 z "},"Ř":{"ha":864,"x_min":56,"x_max":850,"o":"m 332 1015 q 203 1168 310 1131 l 224 1224 q 372 1085 332 1200 l 382 1085 q 529 1224 422 1201 l 550 1168 q 422 1015 444 1131 l 332 1015 m 636 274 q 724 76 671 131 q 850 21 776 21 l 850 0 q 767 3 800 0 q 697 21 733 7 q 637 60 661 35 q 590 128 613 85 q 553 235 568 172 q 447 438 514 388 q 233 488 381 488 l 215 488 l 215 126 q 228 44 215 68 q 285 21 242 21 l 285 0 l 56 0 l 56 21 q 112 44 99 21 q 125 126 125 68 l 125 792 q 112 873 125 850 q 56 896 99 896 l 56 917 l 363 917 q 440 915 407 917 q 520 900 472 913 q 599 866 568 888 q 653 802 631 844 q 676 700 676 760 q 482 493 676 519 q 636 274 594 438 m 215 536 l 383 536 q 586 700 586 536 q 383 868 586 868 l 215 868 l 215 536 z "},"ř":{"ha":676,"x_min":56,"x_max":656,"o":"m 299 793 q 169 946 276 908 l 190 1001 q 339 863 299 978 l 349 863 q 496 1001 389 979 l 517 946 q 389 793 411 908 l 299 793 m 479 708 q 621 634 586 708 q 606 422 656 560 l 515 450 q 461 660 601 660 q 330 597 388 660 q 244 441 272 533 q 215 250 215 349 l 215 126 q 228 44 215 68 q 285 21 242 21 l 285 0 l 56 0 l 56 21 q 112 44 99 21 q 125 126 125 68 l 125 569 q 112 651 125 628 q 56 674 99 674 l 56 694 l 139 694 q 176 690 163 693 q 203 672 190 686 q 215 632 215 658 l 215 478 l 226 478 q 256 559 238 521 q 305 632 275 597 q 379 688 335 667 q 479 708 424 708 z "},"Ś":{"ha":807,"x_min":54,"x_max":765,"o":"m 317 1035 q 429 1194 429 1079 l 533 1222 q 351 1014 533 1064 l 317 1035 m 89 701 q 181 872 89 814 q 417 931 274 931 q 552 913 490 931 q 663 858 614 896 q 726 758 713 819 q 717 610 740 697 l 626 638 q 610 817 675 753 q 415 882 544 882 q 242 840 304 882 q 179 717 179 797 q 220 624 179 664 q 297 567 261 583 q 408 526 333 551 q 424 521 419 522 q 649 431 599 460 q 765 249 758 365 q 765 232 765 240 q 718 88 765 144 q 600 8 671 31 q 436 -14 529 -14 q 332 -6 382 -14 q 233 19 282 1 q 148 65 183 36 q 86 135 113 93 q 57 235 60 178 q 69 368 54 293 l 160 340 q 144 219 136 271 q 178 133 153 168 q 247 76 203 97 q 338 44 290 54 q 439 35 385 35 q 675 218 675 35 q 671 255 675 238 q 663 285 667 272 q 647 313 660 299 q 628 335 635 326 q 601 354 621 343 q 574 370 582 365 q 540 386 567 375 q 505 400 514 397 q 464 415 496 403 q 424 429 432 426 q 373 447 410 435 q 322 465 336 460 q 276 483 307 471 q 231 503 244 496 q 192 525 217 511 q 156 551 167 539 q 129 580 144 563 q 107 615 114 597 q 94 654 100 632 q 89 701 89 676 z "},"ś":{"ha":660,"x_min":33,"x_max":618,"o":"m 215 813 q 328 972 328 857 l 432 1000 q 250 792 432 842 l 215 813 m 60 529 q 130 664 60 619 q 321 708 200 708 q 434 696 382 708 q 528 654 486 683 q 582 578 571 625 q 574 461 593 531 l 483 489 q 499 572 503 539 q 464 624 494 604 q 398 651 433 643 q 321 660 363 660 q 192 629 233 660 q 150 551 150 599 q 188 471 150 496 q 321 415 225 446 q 339 410 332 411 q 551 321 485 367 q 618 183 618 275 q 544 33 618 81 q 350 -14 471 -14 q 244 -6 292 -14 q 151 23 196 3 q 81 76 106 43 q 44 161 56 110 q 53 282 33 213 l 143 254 q 131 162 124 200 q 156 99 139 124 q 206 60 172 74 q 275 40 240 46 q 351 35 310 35 q 483 69 438 35 q 528 164 528 104 q 525 193 528 179 q 519 217 522 207 q 506 238 515 228 q 492 255 497 249 q 472 269 486 261 q 450 281 457 278 q 424 292 443 285 q 399 302 406 300 q 369 311 392 304 q 339 321 346 318 q 120 408 181 369 q 60 529 60 447 z "},"Ş":{"ha":807,"x_min":47,"x_max":765,"o":"m 765 232 q 677 47 765 106 q 447 -14 589 -11 l 400 -106 l 411 -106 q 496 -76 450 -76 q 572 -104 540 -76 q 604 -186 604 -132 q 563 -283 604 -247 q 456 -318 522 -318 q 352 -283 394 -318 q 321 -185 310 -249 l 390 -210 q 403 -250 383 -237 q 453 -262 424 -262 q 513 -242 492 -262 q 535 -183 535 -221 q 471 -118 535 -118 q 383 -154 417 -118 l 349 -146 l 382 -12 q 269 6 321 -8 q 170 48 218 19 q 96 119 122 76 q 58 224 69 163 q 69 368 47 286 l 160 340 q 144 219 136 271 q 178 133 153 168 q 247 76 203 97 q 338 44 290 54 q 439 35 385 35 q 675 218 675 35 q 671 255 675 238 q 663 285 667 272 q 647 313 660 299 q 628 335 635 326 q 601 354 621 343 q 574 370 582 365 q 540 386 567 375 q 505 400 514 397 q 464 415 496 403 q 424 429 432 426 q 373 447 410 435 q 322 465 336 460 q 276 483 307 471 q 231 503 244 496 q 192 525 217 511 q 156 551 167 539 q 129 580 144 563 q 107 615 114 597 q 94 654 100 632 q 89 701 89 676 q 181 872 89 814 q 417 931 274 931 q 552 913 490 931 q 663 858 614 896 q 726 758 713 819 q 717 610 740 697 l 626 638 q 610 817 675 753 q 415 882 544 882 q 242 840 304 882 q 179 717 179 797 q 220 624 179 664 q 297 567 261 583 q 408 526 333 551 q 424 521 419 522 q 649 431 599 460 q 765 249 758 365 q 765 232 765 240 z "},"ş":{"ha":660,"x_min":18,"x_max":618,"o":"m 350 -14 l 349 -14 l 301 -106 l 313 -106 q 397 -76 351 -76 q 474 -104 442 -76 q 506 -186 506 -132 q 465 -283 506 -247 q 357 -318 424 -318 q 253 -283 296 -318 q 222 -185 211 -249 l 292 -210 q 305 -250 285 -237 q 354 -262 325 -262 q 415 -242 393 -262 q 436 -183 436 -221 q 372 -118 436 -118 q 285 -154 318 -118 l 250 -146 l 283 -11 q 85 70 153 1 q 53 282 18 139 l 143 254 q 131 162 124 200 q 156 99 139 124 q 206 60 172 74 q 275 40 240 46 q 351 35 310 35 q 483 69 438 35 q 528 164 528 104 q 525 193 528 179 q 519 217 522 207 q 506 238 515 228 q 492 255 497 249 q 472 269 486 261 q 450 281 457 278 q 424 292 443 285 q 399 302 406 300 q 369 311 392 304 q 339 321 346 318 q 120 408 181 369 q 60 529 60 447 q 130 664 60 619 q 321 708 200 708 q 434 696 382 708 q 528 654 486 683 q 582 578 571 625 q 574 461 593 531 l 483 489 q 499 572 503 539 q 464 624 494 604 q 398 651 433 643 q 321 660 363 660 q 192 629 233 660 q 150 551 150 599 q 188 471 150 496 q 321 415 225 446 q 339 410 332 411 q 551 321 485 367 q 618 183 618 275 q 544 33 618 81 q 350 -14 471 -14 z "},"Š":{"ha":807,"x_min":54,"x_max":765,"o":"m 599 1168 q 471 1015 493 1131 l 381 1015 q 251 1168 358 1131 l 272 1224 q 421 1085 381 1200 l 431 1085 q 578 1224 471 1201 l 599 1168 m 89 701 q 181 872 89 814 q 417 931 274 931 q 552 913 490 931 q 663 858 614 896 q 726 758 713 819 q 717 610 740 697 l 626 638 q 610 817 675 753 q 415 882 544 882 q 242 840 304 882 q 179 717 179 797 q 220 624 179 664 q 297 567 261 583 q 408 526 333 551 q 424 521 419 522 q 649 431 599 460 q 765 249 758 365 q 765 232 765 240 q 718 88 765 144 q 600 8 671 31 q 436 -14 529 -14 q 332 -6 382 -14 q 233 19 282 1 q 148 65 183 36 q 86 135 113 93 q 57 235 60 178 q 69 368 54 293 l 160 340 q 144 219 136 271 q 178 133 153 168 q 247 76 203 97 q 338 44 290 54 q 439 35 385 35 q 675 218 675 35 q 671 255 675 238 q 663 285 667 272 q 647 313 660 299 q 628 335 635 326 q 601 354 621 343 q 574 370 582 365 q 540 386 567 375 q 505 400 514 397 q 464 415 496 403 q 424 429 432 426 q 373 447 410 435 q 322 465 336 460 q 276 483 307 471 q 231 503 244 496 q 192 525 217 511 q 156 551 167 539 q 129 580 144 563 q 107 615 114 597 q 94 654 100 632 q 89 701 89 676 z "},"š":{"ha":660,"x_min":33,"x_max":618,"o":"m 497 946 q 369 793 392 908 l 279 793 q 150 946 257 908 l 171 1001 q 319 863 279 978 l 329 863 q 476 1001 369 979 l 497 946 m 60 529 q 130 664 60 619 q 321 708 200 708 q 434 696 382 708 q 528 654 486 683 q 582 578 571 625 q 574 461 593 531 l 483 489 q 499 572 503 539 q 464 624 494 604 q 398 651 433 643 q 321 660 363 660 q 192 629 233 660 q 150 551 150 599 q 188 471 150 496 q 321 415 225 446 q 339 410 332 411 q 551 321 485 367 q 618 183 618 275 q 544 33 618 81 q 350 -14 471 -14 q 244 -6 292 -14 q 151 23 196 3 q 81 76 106 43 q 44 161 56 110 q 53 282 33 213 l 143 254 q 131 162 124 200 q 156 99 139 124 q 206 60 172 74 q 275 40 240 46 q 351 35 310 35 q 483 69 438 35 q 528 164 528 104 q 525 193 528 179 q 519 217 522 207 q 506 238 515 228 q 492 255 497 249 q 472 269 486 261 q 450 281 457 278 q 424 292 443 285 q 399 302 406 300 q 369 311 392 304 q 339 321 346 318 q 120 408 181 369 q 60 529 60 447 z "},"Ţ":{"ha":853,"x_min":42,"x_max":811,"o":"m 788 896 l 811 731 l 790 728 q 751 840 778 813 q 667 868 724 868 l 472 868 l 472 126 q 485 44 472 68 q 542 21 499 21 l 542 0 l 458 0 l 404 -106 l 415 -106 q 500 -76 454 -76 q 576 -104 544 -76 q 608 -186 608 -132 q 567 -283 608 -247 q 460 -318 526 -318 q 356 -283 399 -318 q 325 -185 314 -249 l 394 -210 q 408 -250 388 -237 q 457 -262 428 -262 q 517 -242 496 -262 q 539 -183 539 -221 q 475 -118 539 -118 q 388 -154 421 -118 l 353 -146 l 389 0 l 313 0 l 313 21 q 369 44 356 21 q 382 126 382 68 l 382 868 l 188 868 q 102 840 129 868 q 63 728 75 813 l 42 731 l 65 896 l 68 917 l 785 917 l 788 896 z "},"ţ":{"ha":465,"x_min":56,"x_max":479,"o":"m 371 -76 q 447 -104 415 -76 q 479 -186 479 -132 q 438 -283 479 -247 q 331 -318 397 -318 q 227 -283 269 -318 q 196 -185 185 -249 l 265 -210 q 278 -250 258 -237 q 328 -262 299 -262 q 388 -242 367 -262 q 410 -183 410 -221 q 346 -118 410 -118 q 258 -154 292 -118 l 224 -146 l 257 -10 q 143 196 143 11 l 143 646 l 56 646 l 56 694 q 133 713 108 699 q 172 774 158 728 q 185 917 185 821 l 233 917 l 233 694 l 388 694 q 386 669 388 676 q 375 653 385 661 q 346 646 365 646 l 233 646 l 233 225 q 248 78 233 121 q 307 35 263 35 q 361 90 356 35 l 424 69 q 322 -12 404 -1 l 275 -106 l 286 -106 q 371 -76 325 -76 z "},"Ť":{"ha":853,"x_min":42,"x_max":811,"o":"m 382 1015 q 253 1168 360 1131 l 274 1224 q 422 1085 382 1200 l 432 1085 q 579 1224 472 1201 l 600 1168 q 472 1015 494 1131 l 382 1015 m 788 896 l 811 731 l 790 728 q 751 840 778 813 q 667 868 724 868 l 472 868 l 472 126 q 485 44 472 68 q 542 21 499 21 l 542 0 l 313 0 l 313 21 q 369 44 356 21 q 382 126 382 68 l 382 868 l 188 868 q 102 840 129 868 q 63 728 75 813 l 42 731 l 65 896 l 68 917 l 785 917 l 788 896 z "},"ť":{"ha":465,"x_min":56,"x_max":424,"o":"m 372 778 l 344 778 q 326 872 340 813 q 313 961 313 931 q 358 1014 313 1014 q 403 961 403 1014 q 390 872 403 931 q 372 778 376 814 m 361 90 l 424 69 q 301 -14 400 -14 q 186 28 229 -14 q 143 196 143 71 l 143 646 l 56 646 l 56 694 q 133 713 108 699 q 172 774 158 728 q 185 917 185 821 l 233 917 l 233 694 l 388 694 q 386 669 388 676 q 375 653 385 661 q 346 646 365 646 l 233 646 l 233 225 q 248 78 233 121 q 307 35 263 35 q 361 90 356 35 z "},"Ŧ":{"ha":853,"x_min":42,"x_max":811,"o":"m 788 896 l 811 731 l 790 728 q 751 840 778 813 q 667 868 724 868 l 472 868 l 472 483 l 621 483 l 621 435 l 472 435 l 472 126 q 485 44 472 68 q 542 21 499 21 l 542 0 l 313 0 l 313 21 q 369 44 356 21 q 382 126 382 68 l 382 435 l 232 435 l 232 483 l 382 483 l 382 868 l 188 868 q 102 840 129 868 q 63 728 75 813 l 42 731 l 65 896 l 68 917 l 785 917 l 788 896 z "},"ŧ":{"ha":465,"x_min":56,"x_max":424,"o":"m 361 90 l 424 69 q 301 -14 400 -14 q 186 28 229 -14 q 143 196 143 71 l 143 393 l 56 393 l 56 442 l 143 442 l 143 646 l 56 646 l 56 694 q 133 713 108 699 q 172 774 158 728 q 185 917 185 821 l 233 917 l 233 694 l 388 694 q 386 669 388 676 q 375 653 385 661 q 346 646 365 646 l 233 646 l 233 442 l 388 442 l 388 393 l 233 393 l 233 225 q 248 78 233 121 q 307 35 263 35 q 361 90 356 35 z "},"Ū":{"ha":944,"x_min":42,"x_max":903,"o":"m 675 1143 l 675 1094 l 304 1094 l 304 1143 l 675 1143 m 903 917 l 903 896 q 847 873 860 896 q 833 792 833 850 l 832 465 q 814 260 829 343 q 760 112 799 176 q 653 17 722 47 q 479 -14 583 -14 q 298 16 371 -14 q 185 110 225 46 q 128 258 144 174 q 111 465 111 342 l 111 792 q 98 873 111 850 q 42 896 85 896 l 42 917 l 271 917 l 271 896 q 215 873 228 896 q 201 792 201 850 l 200 465 q 267 135 200 236 q 493 35 335 35 q 716 142 651 35 q 785 465 781 249 l 786 792 q 773 873 786 850 q 717 896 760 896 l 717 917 l 903 917 z "},"ū":{"ha":832,"x_min":57,"x_max":776,"o":"m 601 921 l 601 872 l 231 872 l 231 921 l 601 921 m 776 674 q 720 651 733 674 q 707 569 707 628 l 707 126 q 720 44 707 68 q 776 21 733 21 l 776 0 l 693 0 q 656 5 669 1 q 629 22 642 8 q 617 63 617 36 l 617 210 l 607 210 q 351 -14 553 -14 q 126 265 126 -14 l 126 569 q 113 651 126 628 q 57 674 100 674 l 57 694 l 286 694 l 286 674 q 230 651 243 674 q 217 569 217 628 l 217 251 q 251 90 217 144 q 367 35 285 35 q 488 71 438 35 q 566 169 539 107 q 605 299 593 232 q 617 444 617 367 l 617 569 q 603 651 617 628 q 547 674 590 674 l 547 694 l 776 694 l 776 674 z "},"Ů":{"ha":944,"x_min":42,"x_max":903,"o":"m 490 1014 q 398 1043 431 1014 q 365 1118 365 1072 q 399 1192 365 1163 q 490 1222 432 1222 q 582 1192 549 1222 q 615 1118 615 1163 q 582 1043 615 1072 q 490 1014 549 1014 m 546 1118 q 546 1146 546 1118 q 490 1174 546 1174 q 435 1118 435 1174 q 490 1063 435 1063 q 546 1118 546 1063 m 903 917 l 903 896 q 847 873 860 896 q 833 792 833 850 l 832 465 q 814 260 829 343 q 760 112 799 176 q 653 17 722 47 q 479 -14 583 -14 q 298 16 371 -14 q 185 110 225 46 q 128 258 144 174 q 111 465 111 342 l 111 792 q 98 873 111 850 q 42 896 85 896 l 42 917 l 271 917 l 271 896 q 215 873 228 896 q 201 792 201 850 l 200 465 q 267 135 200 236 q 493 35 335 35 q 716 142 651 35 q 785 465 781 249 l 786 792 q 773 873 786 850 q 717 896 760 896 l 717 917 l 903 917 z "},"ů":{"ha":832,"x_min":57,"x_max":776,"o":"m 417 792 q 324 821 357 792 q 292 896 292 850 q 325 970 292 940 q 417 1000 358 1000 q 508 970 475 1000 q 542 896 542 940 q 508 821 542 850 q 417 792 475 792 m 472 896 q 472 924 472 896 q 417 951 472 951 q 361 896 361 951 q 417 840 361 840 q 472 896 472 840 m 776 674 q 720 651 733 674 q 707 569 707 628 l 707 126 q 720 44 707 68 q 776 21 733 21 l 776 0 l 693 0 q 656 5 669 1 q 629 22 642 8 q 617 63 617 36 l 617 210 l 607 210 q 351 -14 553 -14 q 126 265 126 -14 l 126 569 q 113 651 126 628 q 57 674 100 674 l 57 694 l 286 694 l 286 674 q 230 651 243 674 q 217 569 217 628 l 217 251 q 251 90 217 144 q 367 35 285 35 q 488 71 438 35 q 566 169 539 107 q 605 299 593 232 q 617 444 617 367 l 617 569 q 603 651 617 628 q 547 674 590 674 l 547 694 l 776 694 l 776 674 z "},"Ű":{"ha":944,"x_min":42,"x_max":903,"o":"m 549 1042 l 514 1063 q 626 1222 626 1107 l 731 1250 q 549 1042 731 1092 m 536 1222 q 354 1014 536 1064 l 319 1035 q 432 1194 432 1079 l 536 1222 m 903 917 l 903 896 q 847 873 860 896 q 833 792 833 850 l 832 465 q 814 260 829 343 q 760 112 799 176 q 653 17 722 47 q 479 -14 583 -14 q 298 16 371 -14 q 185 110 225 46 q 128 258 144 174 q 111 465 111 342 l 111 792 q 98 873 111 850 q 42 896 85 896 l 42 917 l 271 917 l 271 896 q 215 873 228 896 q 201 792 201 850 l 200 465 q 267 135 200 236 q 493 35 335 35 q 716 142 651 35 q 785 465 781 249 l 786 792 q 773 873 786 850 q 717 896 760 896 l 717 917 l 903 917 z "},"ű":{"ha":832,"x_min":57,"x_max":776,"o":"m 475 819 l 440 840 q 553 1000 553 885 l 657 1028 q 475 819 657 869 m 463 1000 q 281 792 463 842 l 246 813 q 358 972 358 857 l 463 1000 m 776 674 q 720 651 733 674 q 707 569 707 628 l 707 126 q 720 44 707 68 q 776 21 733 21 l 776 0 l 693 0 q 656 5 669 1 q 629 22 642 8 q 617 63 617 36 l 617 210 l 607 210 q 351 -14 553 -14 q 126 265 126 -14 l 126 569 q 113 651 126 628 q 57 674 100 674 l 57 694 l 286 694 l 286 674 q 230 651 243 674 q 217 569 217 628 l 217 251 q 251 90 217 144 q 367 35 285 35 q 488 71 438 35 q 566 169 539 107 q 605 299 593 232 q 617 444 617 367 l 617 569 q 603 651 617 628 q 547 674 590 674 l 547 694 l 776 694 l 776 674 z "},"Ų":{"ha":944,"x_min":42,"x_max":903,"o":"m 903 917 l 903 896 q 847 873 860 896 q 833 792 833 850 l 832 465 q 777 140 829 253 q 590 -3 725 26 q 480 -91 511 -54 q 449 -167 449 -128 q 505 -240 449 -224 q 638 -206 561 -257 l 661 -247 q 542 -308 611 -297 q 422 -284 472 -318 q 372 -186 372 -250 q 531 -12 372 -85 q 479 -14 514 -14 q 298 16 371 -14 q 185 110 225 46 q 128 258 144 174 q 111 465 111 342 l 111 792 q 98 873 111 850 q 42 896 85 896 l 42 917 l 271 917 l 271 896 q 215 873 228 896 q 201 792 201 850 l 200 465 q 267 135 200 236 q 493 35 335 35 q 716 142 651 35 q 785 465 781 249 l 786 792 q 773 873 786 850 q 717 896 760 896 l 717 917 l 903 917 z "},"ų":{"ha":832,"x_min":57,"x_max":832,"o":"m 808 -206 l 832 -247 q 713 -308 782 -297 q 593 -284 643 -318 q 543 -186 543 -250 q 703 -11 543 -85 l 703 0 l 693 0 q 656 5 669 1 q 629 22 642 8 q 617 63 617 36 l 617 210 l 607 210 q 351 -14 553 -14 q 126 265 126 -14 l 126 569 q 113 651 126 628 q 57 674 100 674 l 57 694 l 286 694 l 286 674 q 230 651 243 674 q 217 569 217 628 l 217 251 q 251 90 217 144 q 367 35 285 35 q 488 71 438 35 q 566 169 539 107 q 605 299 593 232 q 617 444 617 367 l 617 569 q 603 651 617 628 q 547 674 590 674 l 547 694 l 776 694 l 776 674 q 720 651 733 674 q 707 569 707 628 l 707 126 q 720 44 707 68 q 776 21 733 21 l 776 0 l 765 0 q 651 -90 683 -53 q 619 -167 619 -128 q 675 -240 619 -224 q 808 -206 731 -257 z "},"Ŵ":{"ha":1638,"x_min":56,"x_max":1582,"o":"m 833 1153 q 685 1014 793 1038 l 664 1069 q 793 1222 771 1107 l 883 1222 q 1011 1069 906 1107 l 990 1014 q 843 1153 883 1036 l 833 1153 m 1582 917 l 1582 896 q 1503 873 1529 896 q 1460 797 1478 850 l 1197 0 l 1103 0 l 819 840 l 540 0 l 446 0 l 179 797 q 135 874 161 851 q 56 896 108 896 l 56 917 l 367 917 l 367 896 q 269 872 286 896 q 274 797 251 849 l 514 76 l 793 917 l 888 917 l 1171 76 l 1408 797 q 1413 872 1431 849 q 1317 896 1396 896 l 1317 917 l 1582 917 z "},"ŵ":{"ha":1164,"x_min":14,"x_max":1150,"o":"m 592 931 q 443 792 551 815 l 422 847 q 551 1000 529 885 l 642 1000 q 769 847 664 885 l 749 792 q 601 931 642 814 l 592 931 m 1150 694 l 1150 674 q 1075 651 1100 674 q 1033 575 1050 628 l 857 0 l 761 0 l 588 549 l 403 0 l 307 0 l 131 574 q 89 651 114 628 q 14 674 64 674 l 14 694 l 319 694 l 319 674 q 221 650 239 674 q 225 575 203 626 l 378 81 l 585 694 l 636 694 l 831 82 l 982 575 q 986 650 1004 626 q 888 674 968 674 l 888 694 l 1150 694 z "},"Ŷ":{"ha":901,"x_min":14,"x_max":888,"o":"m 447 1153 q 299 1014 407 1038 l 278 1069 q 407 1222 385 1107 l 497 1222 q 625 1069 519 1107 l 604 1014 q 457 1153 497 1036 l 447 1153 m 888 917 l 888 896 q 810 876 840 896 q 751 808 779 856 l 496 369 l 496 126 q 509 44 496 68 q 565 21 522 21 l 565 0 l 336 0 l 336 21 q 392 44 379 21 q 406 126 406 68 l 406 369 l 150 808 q 92 876 122 856 q 14 896 61 896 l 14 917 l 324 917 l 324 896 q 233 876 243 896 q 254 808 222 856 l 475 429 l 693 808 q 715 876 725 856 q 625 896 704 896 l 625 917 l 888 917 z "},"ŷ":{"ha":835,"x_min":14,"x_max":821,"o":"m 439 931 q 290 792 399 815 l 269 847 q 399 1000 376 885 l 489 1000 q 617 847 511 885 l 596 792 q 449 931 489 814 l 439 931 m 821 694 l 821 674 q 740 651 768 674 q 693 578 713 629 l 450 -57 q 428 -111 433 -99 q 410 -156 424 -124 q 388 -199 396 -189 q 363 -231 379 -210 q 333 -258 347 -251 q 297 -271 318 -264 q 253 -278 276 -278 q 124 -212 161 -278 q 128 -42 86 -146 l 218 -69 q 188 -192 175 -156 q 254 -229 201 -229 q 333 -189 303 -229 q 397 -57 363 -149 l 419 0 l 365 0 l 143 578 q 94 651 122 629 q 14 674 67 674 l 14 694 l 333 694 l 333 674 q 231 651 249 674 q 239 578 214 628 l 440 57 l 640 576 q 647 651 664 628 q 546 674 631 674 l 546 694 l 821 694 z "},"Ÿ":{"ha":901,"x_min":14,"x_max":888,"o":"m 388 1075 q 379 1067 388 1075 q 347 1058 371 1058 q 307 1075 324 1058 q 290 1117 290 1092 q 308 1156 290 1139 q 347 1172 325 1172 q 387 1156 369 1172 q 404 1117 404 1139 q 388 1075 404 1092 m 597 1075 q 589 1067 597 1075 q 557 1058 581 1058 q 517 1075 533 1058 q 500 1117 500 1092 q 517 1156 500 1139 q 557 1172 535 1172 q 597 1156 579 1172 q 614 1117 614 1139 q 597 1075 614 1092 m 888 917 l 888 896 q 810 876 840 896 q 751 808 779 856 l 496 369 l 496 126 q 509 44 496 68 q 565 21 522 21 l 565 0 l 336 0 l 336 21 q 392 44 379 21 q 406 126 406 68 l 406 369 l 150 808 q 92 876 122 856 q 14 896 61 896 l 14 917 l 324 917 l 324 896 q 233 876 243 896 q 254 808 222 856 l 475 429 l 693 808 q 715 876 725 856 q 625 896 704 896 l 625 917 l 888 917 z "},"Ź":{"ha":806,"x_min":56,"x_max":750,"o":"m 525 1222 q 343 1014 525 1064 l 308 1035 q 421 1194 421 1079 l 525 1222 m 729 189 l 750 186 l 726 21 l 724 0 l 58 0 l 58 42 l 621 868 l 201 868 q 116 840 143 868 q 76 728 89 813 l 56 731 l 79 896 l 82 917 l 733 917 l 733 875 l 172 49 l 606 49 q 690 76 663 49 q 729 189 717 104 z "},"ź":{"ha":722,"x_min":56,"x_max":667,"o":"m 253 813 q 365 972 365 857 l 469 1000 q 288 792 469 842 l 253 813 m 535 646 l 206 646 q 120 618 147 646 q 81 506 93 590 l 60 508 l 83 674 l 86 694 l 653 694 l 653 653 l 175 49 l 522 49 q 606 76 579 49 q 646 189 633 104 l 667 186 l 643 21 l 640 0 l 56 0 l 56 42 l 535 646 z "},"Ż":{"ha":806,"x_min":56,"x_max":750,"o":"m 457 1075 q 449 1067 457 1075 q 417 1058 440 1058 q 376 1075 393 1058 q 360 1117 360 1092 q 377 1156 360 1139 q 417 1172 394 1172 q 456 1156 439 1172 q 474 1117 474 1139 q 457 1075 474 1092 m 729 189 l 750 186 l 726 21 l 724 0 l 58 0 l 58 42 l 621 868 l 201 868 q 116 840 143 868 q 76 728 89 813 l 56 731 l 79 896 l 82 917 l 733 917 l 733 875 l 172 49 l 606 49 q 690 76 663 49 q 729 189 717 104 z "},"ż":{"ha":722,"x_min":56,"x_max":667,"o":"m 401 853 q 393 844 401 853 q 361 836 385 836 q 321 853 338 836 q 304 894 304 869 q 322 933 304 917 q 361 950 339 950 q 401 933 383 950 q 418 894 418 917 q 401 853 418 869 m 535 646 l 206 646 q 120 618 147 646 q 81 506 93 590 l 60 508 l 83 674 l 86 694 l 653 694 l 653 653 l 175 49 l 522 49 q 606 76 579 49 q 646 189 633 104 l 667 186 l 643 21 l 640 0 l 56 0 l 56 42 l 535 646 z "},"Ž":{"ha":806,"x_min":56,"x_max":750,"o":"m 372 1015 q 243 1168 350 1131 l 264 1224 q 413 1085 372 1200 l 422 1085 q 569 1224 463 1201 l 590 1168 q 463 1015 485 1131 l 372 1015 m 729 189 l 750 186 l 726 21 l 724 0 l 58 0 l 58 42 l 621 868 l 201 868 q 116 840 143 868 q 76 728 89 813 l 56 731 l 79 896 l 82 917 l 733 917 l 733 875 l 172 49 l 606 49 q 690 76 663 49 q 729 189 717 104 z "},"ž":{"ha":722,"x_min":56,"x_max":667,"o":"m 535 946 q 407 793 429 908 l 317 793 q 188 946 294 908 l 208 1001 q 357 863 317 978 l 367 863 q 514 1001 407 979 l 535 946 m 535 646 l 206 646 q 120 618 147 646 q 81 506 93 590 l 60 508 l 83 674 l 86 694 l 653 694 l 653 653 l 175 49 l 522 49 q 606 76 579 49 q 646 189 633 104 l 667 186 l 643 21 l 640 0 l 56 0 l 56 42 l 535 646 z "},"Ș":{"ha":807,"x_min":54,"x_max":765,"o":"m 89 701 q 181 872 89 814 q 417 931 274 931 q 552 913 490 931 q 663 858 614 896 q 726 758 713 819 q 717 610 740 697 l 626 638 q 610 817 675 753 q 415 882 544 882 q 242 840 304 882 q 179 717 179 797 q 220 624 179 664 q 297 567 261 583 q 408 526 333 551 q 424 521 419 522 q 649 431 599 460 q 765 249 758 365 q 765 232 765 240 q 718 88 765 144 q 600 8 671 31 q 436 -14 529 -14 q 332 -6 382 -14 q 233 19 282 1 q 148 65 183 36 q 86 135 113 93 q 57 235 60 178 q 69 368 54 293 l 160 340 q 144 219 136 271 q 178 133 153 168 q 247 76 203 97 q 338 44 290 54 q 439 35 385 35 q 675 218 675 35 q 671 255 675 238 q 663 285 667 272 q 647 313 660 299 q 628 335 635 326 q 601 354 621 343 q 574 370 582 365 q 540 386 567 375 q 505 400 514 397 q 464 415 496 403 q 424 429 432 426 q 373 447 410 435 q 322 465 336 460 q 276 483 307 471 q 231 503 244 496 q 192 525 217 511 q 156 551 167 539 q 129 580 144 563 q 107 615 114 597 q 94 654 100 632 q 89 701 89 676 m 365 -307 q 446 -239 440 -285 q 408 -251 433 -251 q 372 -233 385 -251 q 358 -189 358 -215 q 376 -146 358 -164 q 421 -128 393 -128 q 469 -148 450 -128 q 488 -210 488 -168 q 371 -342 488 -301 l 365 -307 z "},"ș":{"ha":660,"x_min":33,"x_max":618,"o":"m 60 529 q 130 664 60 619 q 321 708 200 708 q 434 696 382 708 q 528 654 486 683 q 582 578 571 625 q 574 461 593 531 l 483 489 q 499 572 503 539 q 464 624 494 604 q 398 651 433 643 q 321 660 363 660 q 192 629 233 660 q 150 551 150 599 q 188 471 150 496 q 321 415 225 446 q 339 410 332 411 q 551 321 485 367 q 618 183 618 275 q 544 33 618 81 q 350 -14 471 -14 q 244 -6 292 -14 q 151 23 196 3 q 81 76 106 43 q 44 161 56 110 q 53 282 33 213 l 143 254 q 131 162 124 200 q 156 99 139 124 q 206 60 172 74 q 275 40 240 46 q 351 35 310 35 q 483 69 438 35 q 528 164 528 104 q 525 193 528 179 q 519 217 522 207 q 506 238 515 228 q 492 255 497 249 q 472 269 486 261 q 450 281 457 278 q 424 292 443 285 q 399 302 406 300 q 369 311 392 304 q 339 321 346 318 q 120 408 181 369 q 60 529 60 447 m 267 -307 q 347 -239 342 -285 q 310 -251 335 -251 q 273 -233 286 -251 q 260 -189 260 -215 q 277 -146 260 -164 q 322 -128 294 -128 q 370 -148 351 -128 q 389 -210 389 -168 q 272 -342 389 -301 l 267 -307 z "},"Ț":{"ha":853,"x_min":42,"x_max":811,"o":"m 788 896 l 811 731 l 790 728 q 751 840 778 813 q 667 868 724 868 l 472 868 l 472 126 q 485 44 472 68 q 542 21 499 21 l 542 0 l 313 0 l 313 21 q 369 44 356 21 q 382 126 382 68 l 382 868 l 188 868 q 102 840 129 868 q 63 728 75 813 l 42 731 l 65 896 l 68 917 l 785 917 l 788 896 m 425 -128 q 473 -148 454 -128 q 492 -210 492 -168 q 375 -342 492 -301 l 369 -307 q 450 -239 444 -285 q 413 -251 438 -251 q 376 -233 389 -251 q 363 -189 363 -215 q 380 -146 363 -164 q 425 -128 397 -128 z "},"ț":{"ha":465,"x_min":56,"x_max":424,"o":"m 361 90 l 424 69 q 301 -14 400 -14 q 186 28 229 -14 q 143 196 143 71 l 143 646 l 56 646 l 56 694 q 133 713 108 699 q 172 774 158 728 q 185 917 185 821 l 233 917 l 233 694 l 388 694 q 386 669 388 676 q 375 653 385 661 q 346 646 365 646 l 233 646 l 233 225 q 248 78 233 121 q 307 35 263 35 q 361 90 356 35 m 296 -128 q 344 -148 325 -128 q 363 -210 363 -168 q 246 -342 363 -301 l 240 -307 q 321 -239 315 -285 q 283 -251 308 -251 q 247 -233 260 -251 q 233 -189 233 -215 q 251 -146 233 -164 q 296 -128 268 -128 z "},"ˆ":{"ha":458,"x_min":56,"x_max":403,"o":"m 403 847 l 382 792 q 235 931 275 814 l 225 931 q 76 792 185 815 l 56 847 q 185 1000 163 885 l 275 1000 q 403 847 297 885 z "},"ˇ":{"ha":458,"x_min":56,"x_max":403,"o":"m 403 946 q 275 793 297 908 l 185 793 q 56 946 163 908 l 76 1001 q 225 863 185 978 l 235 863 q 382 1001 275 979 l 403 946 z "},"˘":{"ha":465,"x_min":56,"x_max":410,"o":"m 410 1000 q 236 792 410 792 q 98 853 140 792 q 56 1000 56 914 l 146 1000 q 171 878 146 917 q 257 840 196 840 q 337 878 313 840 q 361 1000 361 917 l 410 1000 z "},"˙":{"ha":225,"x_min":56,"x_max":169,"o":"m 153 853 q 144 844 153 853 q 113 836 136 836 q 72 853 89 836 q 56 894 56 869 q 73 933 56 917 q 113 950 90 950 q 152 933 135 950 q 169 894 169 917 q 153 853 169 869 z "},"˚":{"ha":361,"x_min":56,"x_max":306,"o":"m 181 792 q 88 821 121 792 q 56 896 56 850 q 89 970 56 940 q 181 1000 122 1000 q 272 970 239 1000 q 306 896 306 940 q 272 821 306 850 q 181 792 239 792 m 125 896 q 125 868 125 896 q 181 840 125 840 q 236 896 236 840 q 181 951 236 951 q 125 896 125 951 z "},"˛":{"ha":400,"x_min":56,"x_max":344,"o":"m 56 -186 q 215 -11 56 -85 l 215 0 l 278 0 q 164 -90 196 -53 q 132 -167 132 -128 q 188 -240 132 -224 q 321 -206 244 -257 l 344 -247 q 225 -308 294 -297 q 106 -284 156 -318 q 56 -186 56 -250 z "},"˜":{"ha":525,"x_min":43,"x_max":482,"o":"m 374 813 q 285 842 325 813 q 214 901 244 872 q 157 931 183 931 q 135 826 96 931 l 65 847 q 69 959 43 918 q 151 1000 96 1000 q 223 981 189 1000 q 278 941 257 963 q 323 901 299 919 q 369 882 347 882 q 390 986 428 882 l 460 958 q 455 852 482 892 q 374 813 428 813 z "},"˝":{"ha":522,"x_min":56,"x_max":467,"o":"m 250 840 q 363 1000 363 885 l 467 1028 q 285 819 467 869 l 250 840 m 56 813 q 168 972 168 857 l 272 1000 q 90 792 272 842 l 56 813 z "},"̀":{"ha":0,"x_min":-272,"x_max":-56,"o":"m -56 813 l -90 792 q -272 1000 -272 842 l -168 972 q -56 813 -168 857 z "},"́":{"ha":0,"x_min":-272,"x_max":-56,"o":"m -272 813 q -160 972 -160 857 l -56 1000 q -237 792 -56 842 l -272 813 z "},"̂":{"ha":0,"x_min":-403,"x_max":-56,"o":"m -56 847 l -76 792 q -224 931 -183 814 l -233 931 q -382 792 -274 815 l -403 847 q -274 1000 -296 885 l -183 1000 q -56 847 -161 885 z "},"̃":{"ha":0,"x_min":-482,"x_max":-43,"o":"m -151 813 q -240 842 -200 813 q -311 901 -281 872 q -368 931 -342 931 q -390 826 -428 931 l -460 847 q -456 959 -482 918 q -374 1000 -429 1000 q -302 981 -336 1000 q -247 941 -268 963 q -202 901 -226 919 q -156 882 -178 882 q -135 986 -96 882 l -65 958 q -70 852 -43 892 q -151 813 -97 813 z "},"̄":{"ha":0,"x_min":-426,"x_max":-56,"o":"m -426 921 l -56 921 l -56 872 l -426 872 l -426 921 z "},"̆":{"ha":0,"x_min":-410,"x_max":-56,"o":"m -56 1000 q -229 792 -56 792 q -367 853 -325 792 q -410 1000 -410 914 l -319 1000 q -294 878 -319 917 q -208 840 -269 840 q -128 878 -153 840 q -104 1000 -104 917 l -56 1000 z "},"̇":{"ha":0,"x_min":-169,"x_max":-56,"o":"m -72 853 q -81 844 -72 853 q -112 836 -89 836 q -153 853 -136 836 q -169 894 -169 869 q -152 933 -169 917 q -112 950 -135 950 q -73 933 -90 950 q -56 894 -56 917 q -72 853 -56 869 z "},"̈":{"ha":0,"x_min":-379,"x_max":-56,"o":"m -282 853 q -290 844 -282 853 q -322 836 -299 836 q -362 853 -346 836 q -379 894 -379 869 q -362 933 -379 917 q -322 950 -344 950 q -283 933 -300 950 q -265 894 -265 917 q -282 853 -265 869 m -72 853 q -81 844 -72 853 q -112 836 -89 836 q -153 853 -136 836 q -169 894 -169 869 q -152 933 -169 917 q -112 950 -135 950 q -73 933 -90 950 q -56 894 -56 917 q -72 853 -56 869 z "},"̊":{"ha":0,"x_min":-306,"x_max":-56,"o":"m -181 792 q -273 821 -240 792 q -306 896 -306 850 q -272 970 -306 940 q -181 1000 -239 1000 q -89 970 -122 1000 q -56 896 -56 940 q -89 821 -56 850 q -181 792 -122 792 m -236 896 q -236 868 -236 896 q -181 840 -236 840 q -125 896 -125 840 q -181 951 -125 951 q -236 896 -236 951 z "},"̋":{"ha":0,"x_min":-467,"x_max":-56,"o":"m -272 840 q -160 1000 -160 885 l -56 1028 q -237 819 -56 869 l -272 840 m -467 813 q -354 972 -354 857 l -250 1000 q -432 792 -250 842 l -467 813 z "},"̌":{"ha":0,"x_min":-403,"x_max":-56,"o":"m -56 946 q -183 793 -161 908 l -274 793 q -403 946 -296 908 l -382 1001 q -233 863 -274 978 l -224 863 q -76 1001 -183 979 l -56 946 z "},"̒":{"ha":0,"x_min":-185,"x_max":-56,"o":"m -62 1015 q -143 940 -140 992 q -106 953 -131 953 q -69 935 -82 953 q -56 890 -56 917 q -73 847 -56 865 q -118 829 -90 829 q -166 849 -147 829 q -185 911 -185 869 q -68 1043 -185 1010 l -62 1015 z "},"̦":{"ha":0,"x_min":-185,"x_max":-56,"o":"m -178 -307 q -97 -239 -103 -285 q -135 -251 -110 -251 q -172 -233 -158 -251 q -185 -189 -185 -215 q -167 -146 -185 -164 q -122 -128 -150 -128 q -74 -148 -93 -128 q -56 -210 -56 -168 q -172 -342 -56 -301 l -178 -307 z "},"̧":{"ha":0,"x_min":-350,"x_max":-56,"o":"m -164 -76 q -87 -104 -119 -76 q -56 -186 -56 -132 q -97 -283 -56 -247 q -204 -318 -137 -318 q -308 -283 -265 -318 q -339 -185 -350 -249 l -269 -210 q -256 -250 -276 -237 q -207 -262 -236 -262 q -147 -242 -168 -262 q -125 -183 -125 -221 q -189 -118 -125 -118 q -276 -154 -243 -118 l -311 -146 l -275 0 l -206 0 l -260 -106 l -249 -106 q -164 -76 -210 -76 z "},"̨":{"ha":0,"x_min":-344,"x_max":-56,"o":"m -344 -186 q -185 -11 -344 -85 l -185 0 l -122 0 q -236 -90 -204 -53 q -268 -167 -268 -128 q -212 -240 -268 -224 q -79 -206 -156 -257 l -56 -247 q -175 -308 -106 -297 q -294 -284 -244 -318 q -344 -186 -344 -250 z "},"̵":{"ha":0,"x_min":-444,"x_max":-56,"o":"m -444 372 l -56 372 l -56 324 l -444 324 l -444 372 z "},"̶":{"ha":0,"x_min":-917,"x_max":-56,"o":"m -917 372 l -56 372 l -56 324 l -917 324 l -917 372 z "},"̷":{"ha":0,"x_min":-544,"x_max":-56,"o":"m -56 1000 l -492 -83 l -544 -83 l -107 1000 l -56 1000 z "},"̸":{"ha":0,"x_min":-544,"x_max":-56,"o":"m -56 1000 l -492 -83 l -544 -83 l -107 1000 l -56 1000 z "},"Ẁ":{"ha":1638,"x_min":56,"x_max":1582,"o":"m 883 1014 q 701 1222 701 1064 l 806 1194 q 918 1035 806 1079 l 883 1014 m 1582 917 l 1582 896 q 1503 873 1529 896 q 1460 797 1478 850 l 1197 0 l 1103 0 l 819 840 l 540 0 l 446 0 l 179 797 q 135 874 161 851 q 56 896 108 896 l 56 917 l 367 917 l 367 896 q 269 872 286 896 q 274 797 251 849 l 514 76 l 793 917 l 888 917 l 1171 76 l 1408 797 q 1413 872 1431 849 q 1317 896 1396 896 l 1317 917 l 1582 917 z "},"ẁ":{"ha":1164,"x_min":14,"x_max":1150,"o":"m 642 792 q 460 1000 460 842 l 564 972 q 676 813 564 857 l 642 792 m 1150 694 l 1150 674 q 1075 651 1100 674 q 1033 575 1050 628 l 857 0 l 761 0 l 588 549 l 403 0 l 307 0 l 131 574 q 89 651 114 628 q 14 674 64 674 l 14 694 l 319 694 l 319 674 q 221 650 239 674 q 225 575 203 626 l 378 81 l 585 694 l 636 694 l 831 82 l 982 575 q 986 650 1004 626 q 888 674 968 674 l 888 694 l 1150 694 z "},"Ẃ":{"ha":1638,"x_min":56,"x_max":1582,"o":"m 946 1222 q 764 1014 946 1064 l 729 1035 q 842 1194 842 1079 l 946 1222 m 1582 917 l 1582 896 q 1503 873 1529 896 q 1460 797 1478 850 l 1197 0 l 1103 0 l 819 840 l 540 0 l 446 0 l 179 797 q 135 874 161 851 q 56 896 108 896 l 56 917 l 367 917 l 367 896 q 269 872 286 896 q 274 797 251 849 l 514 76 l 793 917 l 888 917 l 1171 76 l 1408 797 q 1413 872 1431 849 q 1317 896 1396 896 l 1317 917 l 1582 917 z "},"ẃ":{"ha":1164,"x_min":14,"x_max":1150,"o":"m 704 1000 q 522 792 704 842 l 488 813 q 600 972 600 857 l 704 1000 m 1150 694 l 1150 674 q 1075 651 1100 674 q 1033 575 1050 628 l 857 0 l 761 0 l 588 549 l 403 0 l 307 0 l 131 574 q 89 651 114 628 q 14 674 64 674 l 14 694 l 319 694 l 319 674 q 221 650 239 674 q 225 575 203 626 l 378 81 l 585 694 l 636 694 l 831 82 l 982 575 q 986 650 1004 626 q 888 674 968 674 l 888 694 l 1150 694 z "},"Ẅ":{"ha":1638,"x_min":56,"x_max":1582,"o":"m 772 1075 q 764 1067 772 1075 q 732 1058 756 1058 q 692 1075 708 1058 q 675 1117 675 1092 q 692 1156 675 1139 q 732 1172 710 1172 q 772 1156 754 1172 q 789 1117 789 1139 q 772 1075 789 1092 m 982 1075 q 974 1067 982 1075 q 942 1058 965 1058 q 901 1075 918 1058 q 885 1117 885 1092 q 902 1156 885 1139 q 942 1172 919 1172 q 981 1156 964 1172 q 999 1117 999 1139 q 982 1075 999 1092 m 1582 917 l 1582 896 q 1503 873 1529 896 q 1460 797 1478 850 l 1197 0 l 1103 0 l 819 840 l 540 0 l 446 0 l 179 797 q 135 874 161 851 q 56 896 108 896 l 56 917 l 367 917 l 367 896 q 269 872 286 896 q 274 797 251 849 l 514 76 l 793 917 l 888 917 l 1171 76 l 1408 797 q 1413 872 1431 849 q 1317 896 1396 896 l 1317 917 l 1582 917 z "},"ẅ":{"ha":1164,"x_min":14,"x_max":1150,"o":"m 531 853 q 522 844 531 853 q 490 836 514 836 q 450 853 467 836 q 433 894 433 869 q 451 933 433 917 q 490 950 468 950 q 530 933 513 950 q 547 894 547 917 q 531 853 547 869 m 740 853 q 732 844 740 853 q 700 836 724 836 q 660 853 676 836 q 643 894 643 869 q 660 933 643 917 q 700 950 678 950 q 740 933 722 950 q 757 894 757 917 q 740 853 757 869 m 1150 694 l 1150 674 q 1075 651 1100 674 q 1033 575 1050 628 l 857 0 l 761 0 l 588 549 l 403 0 l 307 0 l 131 574 q 89 651 114 628 q 14 674 64 674 l 14 694 l 319 694 l 319 674 q 221 650 239 674 q 225 575 203 626 l 378 81 l 585 694 l 636 694 l 831 82 l 982 575 q 986 650 1004 626 q 888 674 968 674 l 888 694 l 1150 694 z "},"Ỳ":{"ha":901,"x_min":14,"x_max":888,"o":"m 497 1014 q 315 1222 315 1064 l 419 1194 q 532 1035 419 1079 l 497 1014 m 888 917 l 888 896 q 810 876 840 896 q 751 808 779 856 l 496 369 l 496 126 q 509 44 496 68 q 565 21 522 21 l 565 0 l 336 0 l 336 21 q 392 44 379 21 q 406 126 406 68 l 406 369 l 150 808 q 92 876 122 856 q 14 896 61 896 l 14 917 l 324 917 l 324 896 q 233 876 243 896 q 254 808 222 856 l 475 429 l 693 808 q 715 876 725 856 q 625 896 704 896 l 625 917 l 888 917 z "},"ỳ":{"ha":835,"x_min":14,"x_max":821,"o":"m 489 792 q 307 1000 307 842 l 411 972 q 524 813 411 857 l 489 792 m 821 694 l 821 674 q 740 651 768 674 q 693 578 713 629 l 450 -57 q 428 -111 433 -99 q 410 -156 424 -124 q 388 -199 396 -189 q 363 -231 379 -210 q 333 -258 347 -251 q 297 -271 318 -264 q 253 -278 276 -278 q 124 -212 161 -278 q 128 -42 86 -146 l 218 -69 q 188 -192 175 -156 q 254 -229 201 -229 q 333 -189 303 -229 q 397 -57 363 -149 l 419 0 l 365 0 l 143 578 q 94 651 122 629 q 14 674 67 674 l 14 694 l 333 694 l 333 674 q 231 651 249 674 q 239 578 214 628 l 440 57 l 640 576 q 647 651 664 628 q 546 674 631 674 l 546 694 l 821 694 z "},"–":{"ha":828,"x_min":56,"x_max":772,"o":"m 111 382 l 772 382 q 770 347 772 358 q 756 324 768 336 q 717 313 743 313 l 56 313 q 58 347 56 336 q 72 370 60 358 q 111 382 85 382 z "},"—":{"ha":1167,"x_min":56,"x_max":1111,"o":"m 111 382 l 1111 382 q 1109 347 1111 358 q 1094 324 1107 336 q 1056 313 1082 313 l 56 313 q 58 347 56 336 q 72 370 60 358 q 111 382 85 382 z "},"‘":{"ha":263,"x_min":56,"x_max":207,"o":"m 207 1004 q 103 847 108 943 q 140 861 117 861 q 189 840 171 861 q 207 788 207 819 q 187 736 207 757 q 135 715 167 715 q 78 742 100 715 q 56 819 56 768 q 93 940 56 883 q 200 1032 131 997 l 207 1004 z "},"’":{"ha":263,"x_min":56,"x_max":207,"o":"m 56 725 q 160 882 157 786 q 124 868 146 868 q 74 890 92 868 q 56 943 56 911 q 76 993 56 972 q 129 1014 96 1014 q 185 988 164 1014 q 207 911 207 961 q 169 789 207 846 q 63 697 132 732 l 56 725 z "},"‚":{"ha":263,"x_min":56,"x_max":207,"o":"m 56 -157 q 160 0 157 -96 q 124 -14 147 -14 q 74 8 92 -14 q 56 61 56 29 q 76 111 56 90 q 129 132 96 132 q 185 106 164 132 q 207 29 207 79 q 169 -93 207 -36 q 63 -185 132 -150 l 56 -157 z "},"“":{"ha":485,"x_min":56,"x_max":429,"o":"m 207 1004 q 103 847 108 943 q 140 861 117 861 q 189 840 171 861 q 207 788 207 819 q 187 736 207 757 q 135 715 167 715 q 78 742 100 715 q 56 819 56 768 q 93 940 56 883 q 200 1032 131 997 l 207 1004 m 429 1004 q 325 847 331 943 q 363 861 339 861 q 411 840 393 861 q 429 788 429 819 q 409 736 429 757 q 357 715 389 715 q 300 742 322 715 q 278 819 278 768 q 315 940 278 883 q 422 1032 353 997 l 429 1004 z "},"”":{"ha":485,"x_min":56,"x_max":429,"o":"m 56 725 q 160 882 157 786 q 124 868 146 868 q 74 890 92 868 q 56 943 56 911 q 76 993 56 972 q 129 1014 96 1014 q 185 988 164 1014 q 207 911 207 961 q 169 789 207 846 q 63 697 132 732 l 56 725 m 278 725 q 382 882 379 786 q 346 868 368 868 q 296 890 314 868 q 278 943 278 911 q 298 993 278 972 q 351 1014 318 1014 q 408 988 386 1014 q 429 911 429 961 q 392 789 429 846 q 285 697 354 732 l 278 725 z "},"„":{"ha":263,"x_min":56,"x_max":207,"o":"m 129 132 q 185 106 164 132 q 207 29 207 79 q 169 -93 207 -36 q 63 -185 132 -150 l 56 -157 q 160 0 157 -96 q 124 -14 147 -14 q 74 8 92 -14 q 56 61 56 29 q 76 111 56 90 q 129 132 96 132 z "},"†":{"ha":606,"x_min":56,"x_max":550,"o":"m 425 774 l 550 774 l 550 704 l 425 704 q 329 714 411 704 q 338 617 338 639 l 338 171 l 268 171 l 268 617 q 278 714 268 626 q 181 704 190 704 l 56 704 l 56 774 l 181 774 q 278 765 203 774 q 268 861 268 847 l 268 1000 l 338 1000 l 338 861 q 329 765 338 836 q 425 774 400 774 z "},"‡":{"ha":606,"x_min":56,"x_max":550,"o":"m 550 704 l 425 704 q 329 714 411 704 q 338 617 338 639 l 338 554 q 329 458 338 529 q 425 467 400 467 l 550 467 l 550 397 l 425 397 q 329 407 411 397 q 338 310 338 332 l 338 171 l 268 171 l 268 310 q 278 407 268 319 q 181 397 190 397 l 56 397 l 56 467 l 181 467 q 278 458 203 467 q 268 554 268 540 l 268 617 q 278 714 268 626 q 181 704 190 704 l 56 704 l 56 774 l 181 774 q 278 765 203 774 q 268 861 268 847 l 268 1000 l 338 1000 l 338 861 q 329 765 338 836 q 425 774 400 774 l 550 774 l 550 704 z "},"•":{"ha":350,"x_min":56,"x_max":293,"o":"m 175 229 q 88 264 121 229 q 56 350 56 299 q 88 433 56 399 q 175 467 121 467 q 260 433 226 467 q 293 350 293 399 q 260 264 293 299 q 175 229 228 229 z "},"…":{"ha":729,"x_min":56,"x_max":674,"o":"m 129 -14 q 76 8 96 -14 q 56 61 56 29 q 76 111 56 90 q 129 132 96 132 q 181 111 161 132 q 201 61 201 90 q 181 8 201 29 q 129 -14 161 -14 m 365 -14 q 312 8 332 -14 q 292 61 292 29 q 312 111 292 90 q 365 132 332 132 q 417 111 397 132 q 438 61 438 90 q 417 8 438 29 q 365 -14 397 -14 m 601 -14 q 548 8 568 -14 q 528 61 528 29 q 548 111 528 90 q 601 132 568 132 q 653 111 633 132 q 674 61 674 90 q 653 8 674 29 q 601 -14 633 -14 z "},"‰":{"ha":1694,"x_min":56,"x_max":1639,"o":"m 336 919 q 426 908 390 904 q 496 924 463 911 q 553 957 529 938 q 608 993 578 976 q 669 1020 639 1010 q 742 1026 699 1031 q 839 1000 786 1022 l 403 -83 l 350 -83 l 788 1000 q 701 973 746 1000 q 623 918 657 946 q 528 876 589 890 q 396 886 468 861 q 478 682 478 817 q 424 508 478 582 q 265 433 369 433 q 108 508 161 433 q 56 682 56 582 q 108 856 56 782 q 265 931 161 931 q 336 919 303 931 m 172 535 q 185 508 172 535 q 267 482 199 482 q 361 535 335 482 q 388 682 388 588 q 361 829 388 776 q 267 882 335 882 q 172 829 199 882 q 146 682 146 776 q 172 535 146 588 m 764 409 q 790 446 764 409 q 921 483 817 483 q 1079 409 1025 483 q 1133 235 1133 335 q 1079 60 1133 135 q 921 -14 1025 -14 q 764 60 817 -14 q 711 235 711 135 q 764 409 711 335 m 1269 409 q 1296 446 1269 409 q 1426 483 1322 483 q 1585 409 1531 483 q 1639 235 1639 335 q 1585 60 1639 135 q 1426 -14 1531 -14 q 1269 60 1322 -14 q 1217 235 1217 135 q 1269 409 1217 335 m 828 88 q 841 61 828 88 q 922 35 854 35 q 1017 88 990 35 q 1043 235 1043 140 q 1017 382 1043 329 q 922 435 990 435 q 828 382 854 435 q 801 235 801 329 q 828 88 801 140 m 1333 88 q 1347 61 1333 88 q 1428 35 1360 35 q 1522 88 1496 35 q 1549 235 1549 140 q 1522 382 1549 329 q 1428 435 1496 435 q 1333 382 1360 435 q 1307 235 1307 329 q 1333 88 1307 140 z "},"‹":{"ha":383,"x_min":56,"x_max":344,"o":"m 225 660 l 315 660 q 298 449 344 544 q 125 353 251 353 l 125 343 q 298 247 251 343 q 315 35 344 150 l 225 35 q 240 138 239 90 q 228 228 242 185 q 170 298 214 272 q 56 324 126 324 l 56 372 q 170 397 126 372 q 228 466 214 422 q 240 557 242 510 q 225 660 239 604 z "},"›":{"ha":383,"x_min":39,"x_max":328,"o":"m 158 660 q 143 557 144 604 q 156 466 142 510 q 213 397 169 422 q 328 372 257 372 l 328 324 q 213 298 257 324 q 156 228 169 272 q 143 138 142 185 q 158 35 144 90 l 68 35 q 85 247 39 150 q 258 343 132 343 l 258 353 q 85 449 132 353 q 68 660 39 544 l 158 660 z "},"⁄":{"ha":600,"x_min":56,"x_max":544,"o":"m 544 1000 l 108 -83 l 56 -83 l 493 1000 l 544 1000 z "},"€":{"ha":989,"x_min":56,"x_max":939,"o":"m 843 313 l 933 340 q 844 78 939 169 q 582 -14 750 -14 q 315 78 417 -14 q 189 342 214 171 l 56 342 l 56 390 l 183 390 q 181 458 181 435 l 181 467 l 83 467 l 83 515 l 182 515 q 306 822 196 713 q 596 931 415 931 q 847 840 754 931 q 933 590 939 750 l 843 618 q 781 811 853 740 q 596 882 708 882 q 373 785 460 882 q 274 515 286 688 l 633 515 l 633 467 l 271 467 l 271 458 q 274 390 271 435 l 606 390 l 606 342 l 279 342 q 381 115 301 194 q 582 35 460 35 q 779 108 706 35 q 843 313 853 181 z "},"™":{"ha":918,"x_min":56,"x_max":863,"o":"m 835 683 q 840 651 835 660 q 863 642 844 642 l 863 633 l 771 633 l 771 642 q 793 651 788 642 q 799 683 799 660 l 799 951 l 644 633 l 604 633 l 446 951 l 446 683 q 451 651 446 660 q 474 642 456 642 l 474 633 l 399 633 l 399 642 q 421 651 415 642 q 426 683 426 660 l 426 950 q 421 983 426 974 q 399 993 415 993 l 399 1001 l 431 1000 q 460 994 451 1000 q 482 961 468 988 l 633 656 l 782 961 q 829 1000 800 1000 l 861 1001 l 863 993 q 839 983 844 993 q 833 950 833 974 l 835 683 m 353 1000 l 354 992 l 364 925 l 356 925 q 340 969 350 958 q 306 981 329 981 l 228 981 l 228 683 q 233 651 228 660 q 256 642 239 642 l 256 633 l 164 633 l 164 642 q 186 651 181 642 q 192 683 192 660 l 192 981 l 114 981 q 80 969 90 981 q 64 925 69 958 l 56 925 l 65 992 l 67 1000 l 353 1000 z "},"←":{"ha":622,"x_min":56,"x_max":567,"o":"m 567 313 l 285 313 q 208 318 249 313 q 146 324 167 324 q 360 140 289 253 l 304 92 q 56 313 204 233 l 56 382 q 304 603 204 461 l 360 554 q 146 372 289 443 q 208 377 167 372 q 285 382 249 382 l 567 382 l 567 313 z "},"↑":{"ha":622,"x_min":56,"x_max":567,"o":"m 346 589 q 567 340 425 440 l 518 285 q 336 499 407 356 q 341 437 336 478 q 346 360 346 396 l 346 78 l 276 78 l 276 360 q 282 437 276 396 q 288 499 288 478 q 104 285 217 356 l 56 340 q 276 589 197 440 l 346 589 z "},"→":{"ha":622,"x_min":56,"x_max":567,"o":"m 318 603 q 567 382 418 461 l 567 313 q 318 92 418 233 l 263 140 q 476 324 333 253 q 415 318 456 324 q 338 313 374 313 l 56 313 l 56 382 l 338 382 q 415 377 374 382 q 476 372 456 372 q 263 554 333 443 l 318 603 z "},"↓":{"ha":622,"x_min":56,"x_max":567,"o":"m 518 410 l 567 354 q 346 106 425 254 l 276 106 q 56 354 197 254 l 104 410 q 288 196 217 339 q 282 258 288 217 q 276 335 276 299 l 276 617 l 346 617 l 346 335 q 341 258 346 299 q 336 196 336 217 q 518 410 407 339 z "},"↔":{"ha":917,"x_min":56,"x_max":861,"o":"m 613 603 q 861 382 713 461 l 861 313 q 613 92 713 233 l 557 140 q 771 324 628 253 q 709 318 750 324 q 632 313 668 313 l 285 313 q 208 318 249 313 q 146 324 167 324 q 360 140 289 253 l 304 92 q 56 313 204 233 l 56 382 q 304 603 204 461 l 360 554 q 146 372 289 443 q 208 377 167 372 q 285 382 249 382 l 632 382 q 709 377 668 382 q 771 372 750 372 q 557 554 628 443 l 613 603 z "},"↕":{"ha":622,"x_min":56,"x_max":567,"o":"m 336 35 q 518 249 407 178 l 567 193 q 346 -56 425 93 l 276 -56 q 56 193 197 93 l 104 249 q 288 35 217 178 q 282 97 288 56 q 276 174 276 138 l 276 521 q 282 598 276 557 q 288 660 288 639 q 104 446 217 517 l 56 501 q 276 750 197 601 l 346 750 q 567 501 425 601 l 518 446 q 336 660 407 517 q 341 598 336 639 q 346 521 346 557 l 346 174 q 341 97 346 138 q 336 35 336 56 z "},"↖":{"ha":522,"x_min":56,"x_max":467,"o":"m 267 381 l 467 182 l 417 132 l 218 332 q 167 390 193 357 q 126 438 142 422 q 149 157 178 285 l 75 163 q 56 494 106 331 l 104 543 q 436 524 268 493 l 442 450 q 161 472 314 421 q 209 431 176 457 q 267 381 242 406 z "},"↗":{"ha":522,"x_min":56,"x_max":467,"o":"m 467 494 q 447 163 417 331 l 374 157 q 396 438 344 285 q 355 390 381 422 q 304 332 329 357 l 106 132 l 56 182 l 256 381 q 313 431 281 406 q 361 472 346 457 q 81 450 208 421 l 86 524 q 418 543 254 493 l 467 494 z "},"↘":{"ha":522,"x_min":56,"x_max":467,"o":"m 447 532 q 467 200 417 364 l 418 151 q 86 171 254 201 l 81 244 q 361 222 208 274 q 313 263 346 238 q 256 314 281 289 l 56 513 l 106 563 l 304 363 q 355 305 329 338 q 396 257 381 272 q 374 538 344 410 l 447 532 z "},"↙":{"ha":522,"x_min":56,"x_max":467,"o":"m 161 222 q 442 244 314 274 l 436 171 q 104 151 268 201 l 56 200 q 75 532 106 364 l 149 538 q 126 257 178 410 q 167 305 142 272 q 218 363 193 338 l 417 563 l 467 513 l 267 314 q 209 263 242 289 q 161 222 176 238 z "},"∂":{"ha":736,"x_min":56,"x_max":681,"o":"m 207 1000 q 681 440 681 913 q 667 288 681 360 q 619 144 653 217 q 515 29 585 72 q 347 -14 446 -14 q 205 14 265 -14 q 114 88 144 42 q 69 179 83 133 q 56 274 56 225 q 142 517 56 438 q 357 596 228 596 q 610 504 506 596 q 583 649 604 583 q 515 776 561 714 q 385 886 469 839 q 183 958 301 933 l 207 1000 m 350 35 q 611 450 611 35 l 611 453 q 363 547 497 547 q 194 478 263 547 q 125 293 125 410 q 176 110 125 186 q 350 35 228 35 z "},"∅":{"ha":833,"x_min":56,"x_max":778,"o":"m 690 588 q 778 347 778 488 q 676 91 778 196 q 417 -14 574 -14 q 176 72 276 -14 l 100 -4 l 67 31 l 143 107 q 56 347 56 207 q 158 603 56 499 q 417 708 260 708 q 657 621 556 708 l 735 699 l 768 665 l 690 588 m 125 347 q 193 157 125 236 l 607 571 q 417 639 528 639 q 207 554 289 639 q 125 347 125 469 m 417 56 q 626 140 543 56 q 708 347 708 225 q 640 538 708 457 l 226 122 q 417 56 307 56 z "},"∏":{"ha":783,"x_min":56,"x_max":728,"o":"m 658 -83 q 672 -165 658 -142 q 728 -187 685 -187 l 728 -208 l 519 -208 l 519 -187 q 576 -165 563 -187 q 589 -83 589 -142 l 589 951 l 194 951 l 194 -83 q 208 -165 194 -142 q 264 -187 221 -187 l 264 -208 l 56 -208 l 56 -187 q 112 -165 99 -187 q 125 -83 125 -142 l 125 1000 l 658 1000 l 658 -83 z "},"∑":{"ha":782,"x_min":56,"x_max":726,"o":"m 706 -12 l 726 -14 l 711 -164 l 707 -208 l 56 -208 l 56 -139 l 414 382 l 56 951 l 56 1000 l 682 1000 l 685 976 l 707 828 l 686 825 q 648 926 675 901 q 564 951 621 951 l 138 951 l 485 399 l 114 -139 l 589 -139 q 672 -114 646 -139 q 706 -12 697 -89 z "},"−":{"ha":606,"x_min":56,"x_max":550,"o":"m 56 382 l 550 382 l 550 313 l 56 313 l 56 382 z "},"√":{"ha":797,"x_min":56,"x_max":742,"o":"m 692 1000 l 742 1000 l 443 -208 l 371 -208 l 169 258 l 56 258 l 56 307 l 224 307 l 407 -115 l 417 -115 l 692 1000 z "},"∞":{"ha":1089,"x_min":56,"x_max":1033,"o":"m 705 573 q 731 588 705 573 q 817 603 757 603 q 920 580 876 603 q 988 519 964 557 q 1022 438 1011 481 q 1033 349 1033 396 q 1022 258 1033 301 q 988 177 1011 215 q 918 116 964 139 q 811 93 872 93 q 715 109 758 93 q 635 160 672 125 q 583 215 599 196 q 536 279 568 235 q 465 186 494 219 q 384 123 436 153 q 272 93 332 93 q 107 169 158 93 q 56 349 56 244 q 67 438 56 396 q 101 519 78 481 q 171 580 125 557 q 278 603 217 603 q 374 587 331 603 q 453 535 417 571 q 506 481 490 500 q 553 417 521 461 q 624 510 594 476 q 705 573 653 543 m 267 176 q 304 180 286 176 q 336 187 322 183 q 367 202 350 190 q 393 219 383 214 q 419 242 403 224 q 442 265 436 260 q 464 292 447 269 q 483 317 481 314 q 504 347 486 321 q 524 375 522 374 q 410 499 463 458 q 282 540 358 540 q 153 488 201 540 q 104 349 104 436 q 149 220 104 264 q 267 176 194 176 m 807 156 q 936 208 888 156 q 985 349 985 260 q 940 476 985 432 q 822 519 894 519 q 783 517 801 519 q 746 505 764 514 q 715 490 728 496 q 685 467 703 483 q 660 443 668 450 q 634 414 651 436 q 612 385 617 392 q 588 353 607 379 q 567 322 569 326 q 617 257 597 281 q 668 206 638 233 q 733 167 699 179 q 807 156 767 156 z "},"∫":{"ha":521,"x_min":44,"x_max":478,"o":"m 374 944 q 309 880 329 944 q 289 713 289 815 q 295 485 289 610 q 303 237 301 361 q 297 10 306 113 q 250 -158 288 -93 q 147 -222 213 -222 q 68 -177 92 -222 q 72 -33 44 -132 l 121 -61 q 115 -132 106 -111 q 149 -153 125 -153 q 213 -88 193 -153 q 233 79 233 -24 q 227 306 233 182 q 219 555 221 431 q 226 782 217 679 q 272 949 235 885 q 375 1014 310 1014 q 454 969 431 1014 q 450 825 478 924 l 401 853 q 407 924 417 903 q 374 944 397 944 z "},"≈":{"ha":606,"x_min":42,"x_max":564,"o":"m 449 347 q 360 369 404 347 q 285 417 315 390 q 217 465 256 443 q 143 486 178 486 q 113 375 72 486 l 64 403 q 71 517 42 478 q 157 556 100 556 q 246 534 201 556 q 320 486 290 513 q 389 438 350 460 q 463 417 428 417 q 493 528 533 417 l 542 500 q 535 386 564 425 q 449 347 506 347 m 449 139 q 360 160 404 139 q 285 208 315 182 q 217 256 256 235 q 143 278 178 278 q 113 167 72 278 l 64 194 q 71 308 42 269 q 157 347 100 347 q 246 326 201 347 q 320 278 290 304 q 389 230 350 251 q 463 208 428 208 q 493 319 533 208 l 542 292 q 535 178 564 217 q 449 139 506 139 z "},"≠":{"ha":606,"x_min":56,"x_max":550,"o":"m 550 424 l 360 424 l 299 271 l 550 271 l 550 201 l 271 201 l 192 0 l 140 0 l 219 201 l 56 201 l 56 271 l 247 271 l 308 424 l 56 424 l 56 493 l 336 493 l 415 694 l 467 694 l 388 493 l 550 493 l 550 424 z "},"≤":{"ha":606,"x_min":56,"x_max":550,"o":"m 244 419 q 124 383 164 383 l 124 372 q 244 336 164 372 l 550 203 l 550 67 l 56 67 l 56 136 l 531 136 l 56 343 l 56 413 l 550 628 l 550 553 l 244 419 z "},"≥":{"ha":606,"x_min":56,"x_max":550,"o":"m 550 413 l 550 343 l 75 136 l 550 136 l 550 67 l 56 67 l 56 203 l 361 336 q 483 372 442 372 l 483 383 q 361 419 442 383 l 56 553 l 56 628 l 550 413 z "},"◊":{"ha":611,"x_min":56,"x_max":556,"o":"m 342 1000 l 556 478 l 342 -44 l 272 -44 l 56 478 l 272 1000 l 342 1000 m 347 147 l 482 478 l 347 808 q 311 931 313 890 l 301 931 q 268 808 301 886 l 131 478 l 268 149 q 301 25 301 68 l 311 25 q 347 147 313 65 z "}}}
